<svg width="2598" height="1000" viewBox="0 0 2598 1000" fill="none" xmlns="http://www.w3.org/2000/svg">
<path d="M2034.71 971.195C1993.78 1002.41 1956.54 1007.37 1911.86 985.999L1071.51 583.4C1032.39 564.644 1011.56 531.886 1013.04 492.564C1014.58 451.902 1037.42 423.432 1076.4 405.279L1907.17 18.1538C1943.21 1.33977 1983.8 -7.16773 2017.76 18.1538L2566.25 426.045C2614.08 461.616 2603.43 537.312 2560.02 570.405L2034.64 971.195H2034.71ZM1352.86 481.779L1436.59 408.963L1376.17 408.695L1291.5 483.722L1289.29 407.489L1247.49 407.891V588.759L1293.11 586.951C1284.33 549.504 1287.34 527.934 1318.23 508.039L1387.42 587.688L1442.89 586.013L1352.92 481.846L1352.86 481.779ZM1625.83 406.819L1582.35 407.087L1583.36 589.027L1626.83 588.759L1625.83 406.819ZM1877.03 587.554V443.462L1941.87 442.122L1941.33 407.154L1770.12 407.355L1769.91 442.591H1833.89V588.156L1876.96 587.554H1877.03ZM2231.12 511.187C2239.29 511.187 2239.09 479.1 2231.32 479.1H2129.97L2128.89 442.725L2252.75 442.859L2251.08 407.154L2085.69 407.422L2085.35 588.692L2251.01 588.425L2252.02 553.859L2128.36 553.122L2128.69 511.321L2231.12 511.12V511.187Z" fill="black"/>
<path d="M523.164 521.637L525.24 490.354L616.141 489.952L615.94 588.023L587.537 587.286C582.045 587.152 579.164 574.357 576.686 567.256C546.14 597.334 506.752 598.942 468.771 588.492C425.497 576.568 396.559 540.059 396.492 497.991C396.425 455.922 423.689 418.609 469.574 407.221C530.197 392.149 603.279 408.896 616.208 468.315L566.504 464.965C549.288 440.247 522.092 431.806 494.225 437.098C468.235 442.055 444.656 463.157 443.316 495.579C442.043 526.728 464.617 550.844 489.871 557.342C521.556 565.515 552.839 561.428 572.064 524.183L523.164 521.57V521.637Z" fill="black"/>
<path d="M56.7374 467.444C37.7133 504.555 56.4695 540.662 85.1397 553.724C119.504 569.4 159.361 560.289 173.964 520.9L224.203 521.369C204.375 593.917 119.504 610.129 55.3977 580.252C18.2203 562.902 0.736817 529.676 2.8134 491.559C4.68901 457.127 26.3256 425.509 64.8428 411.107C126.939 387.929 212.883 407.824 222.395 474.343L175.102 473.808C162.442 449.424 145.026 437.299 122.25 435.423C99.4748 433.548 69.1969 443.127 56.7374 467.31V467.444Z" fill="black"/>
<path d="M813.325 406.979L813.229 589.454L856.436 589.477L856.531 407.001L813.325 406.979Z" fill="black"/>
<path d="M1352.86 481.779L1442.82 585.946L1387.35 587.621L1318.16 507.972C1287.28 527.867 1284.26 549.437 1293.04 586.884L1247.42 588.692V407.824L1289.29 407.422L1291.5 483.655L1376.17 408.628L1436.59 408.896L1352.86 481.712V481.779Z" fill="white"/>
<path d="M2231.12 511.187L2128.69 511.388L2128.36 553.189L2252.02 553.926L2251.01 588.492L2085.35 588.759L2085.69 407.489L2251.08 407.221L2252.75 442.926L2128.89 442.792L2129.97 479.234H2231.32C2239.09 479.234 2239.29 511.254 2231.12 511.254V511.187Z" fill="white"/>
<path d="M1877.03 587.554L1833.89 588.157L1833.82 442.658H1769.85L1770.05 407.422L1941.33 407.221L1941.8 442.122L1877.03 443.462V587.554Z" fill="white"/>
<path d="M1625.81 406.841L1582.33 407.084L1583.35 589.021L1626.82 588.778L1625.81 406.841Z" fill="white"/>
</svg>
