<svg width="200" height="32" viewBox="0 0 200 32" fill="none" xmlns="http://www.w3.org/2000/svg">
<g clip-path="url(#clip0_2_2)">
<path d="M5.99933 7.14925C6.6683 6.44659 7.46556 5.88815 8.36973 5.49233C9.27391 5.09651 10.2606 4.89707 11.3022 4.89707C11.9589 4.89707 12.6187 5.00446 13.2694 5.21925C13.92 5.43403 14.5676 5.75314 15.1969 6.17044C15.8261 6.58774 16.4615 7.1155 17.0846 7.74144L17.1732 7.83043L19.678 5.21004L19.6169 5.12719C19.0702 4.35703 18.3523 3.65745 17.4848 3.04991C16.6203 2.44544 15.6459 1.96678 14.5829 1.62619C13.5199 1.2856 12.4171 1.11377 11.3022 1.11377C9.72905 1.11377 8.24144 1.41447 6.88518 2.00666C5.53197 2.59886 4.32233 3.44573 3.29291 4.52273C2.26655 5.59972 1.45096 6.86389 0.873629 8.27841C0.293246 9.69599 0 11.2455 0 12.8932C0 14.6269 0.271864 16.2378 0.806427 17.683C1.34099 19.1312 2.11382 20.4077 3.09741 21.4724C4.08101 22.5402 5.2601 23.3686 6.59498 23.9424C7.92986 24.5131 9.41442 24.8046 11.012 24.8046C12.0811 24.8046 13.1594 24.6666 14.2224 24.3904C15.2793 24.1173 16.2538 23.7307 17.1213 23.249C17.9888 22.7642 18.6853 22.2149 19.1923 21.6166L19.2504 21.5491L17.3626 18.4562L17.2526 18.5666C16.7639 19.0576 16.211 19.4933 15.6154 19.8584C15.0197 20.2205 14.3721 20.5028 13.6909 20.6961C13.0067 20.8894 12.3072 20.9876 11.6046 20.9876C10.4499 20.9876 9.38693 20.7973 8.43999 20.423C7.49305 20.0487 6.67135 19.5025 5.99016 18.7998C5.30898 18.0941 4.77441 17.2319 4.4048 16.2378C4.03213 15.2436 3.84275 14.1175 3.84275 12.8932C3.84275 11.7365 4.03824 10.6564 4.42007 9.68065C4.80496 8.70798 5.33952 7.85497 6.00849 7.15232L5.99933 7.14925Z" fill="black"/>
<path d="M26.1936 0H22.5891V24.4733H26.1936V0Z" fill="black"/>
<path d="M43.5684 9.07639C42.8536 8.32464 42.0014 7.72631 41.0361 7.29673C40.0709 6.86409 39.0109 6.64624 37.8898 6.64624C36.6191 6.64624 35.4247 6.87637 34.3403 7.32742C33.2529 7.77847 32.309 8.42896 31.527 9.25435C30.7481 10.0797 30.131 11.0678 29.6942 12.1908C29.2544 13.3138 29.0344 14.5718 29.0344 15.9342C29.0344 17.6525 29.4285 19.1928 30.2105 20.5153C30.9894 21.8377 32.0799 22.8932 33.4514 23.6542C34.823 24.4152 36.4145 24.7987 38.1892 24.7987C39.0017 24.7987 39.8418 24.6821 40.6818 24.452C41.5218 24.2219 42.3313 23.9058 43.0858 23.51C43.8403 23.1142 44.494 22.6447 45.0224 22.1139L45.0958 22.0402L43.263 19.4536L43.1591 19.5426C42.3252 20.2729 41.5402 20.7822 40.8315 21.0584C40.1228 21.3345 39.3408 21.4757 38.513 21.4757C37.3431 21.4757 36.2984 21.2394 35.4095 20.7699C34.5236 20.3035 33.8272 19.6316 33.3415 18.7724C32.9932 18.1588 32.7703 17.4592 32.6695 16.6829H45.7403L45.7769 15.1211C45.7983 13.9091 45.615 12.7768 45.2302 11.752C44.8453 10.7272 44.2893 9.82814 43.5745 9.07639H43.5684ZM33.2101 12.5713C33.6103 11.7367 34.2059 11.0954 34.9849 10.6627C35.7669 10.227 36.7444 10.0061 37.8898 10.0061C38.6046 10.0061 39.2767 10.1657 39.8876 10.4848C40.4955 10.8008 41.0086 11.2396 41.4088 11.7888C41.8059 12.335 42.0411 12.964 42.1022 13.6483V13.7526H32.8069C32.9047 13.3199 33.0421 12.9272 33.2101 12.5713Z" fill="black"/>
<path d="M61.7253 9.37103C61.4168 8.94146 61.0533 8.54871 60.6409 8.19584C60.0758 7.71718 59.4129 7.34284 58.6646 7.07589C57.9131 6.80894 57.0792 6.677 56.1781 6.677C54.663 6.677 53.2762 7.06975 52.0543 7.84298C50.8355 8.61621 49.855 9.69321 49.1432 11.0494C48.4315 12.4026 48.068 13.9705 48.068 15.7072C48.068 17.4439 48.4223 18.9842 49.1249 20.3466C49.8275 21.712 50.7775 22.8043 51.9535 23.5991C53.1326 24.3968 54.4553 24.7988 55.8848 24.7988C56.7218 24.7988 57.5313 24.6638 58.2888 24.3999C59.0464 24.136 59.749 23.777 60.3721 23.3382C60.8975 22.967 61.3496 22.5497 61.7253 22.0894V24.4735H65.3634V7.03907H61.7253V9.37103ZM61.8567 15.7072C61.8567 16.818 61.6367 17.8152 61.203 18.6805C60.7692 19.5396 60.1644 20.2238 59.4038 20.7086C58.6462 21.1965 57.7573 21.442 56.7646 21.442C55.7718 21.442 54.9226 21.1934 54.1742 20.7086C53.4258 20.2208 52.8241 19.5365 52.3903 18.6774C51.9566 17.8152 51.7366 16.8149 51.7366 15.7041C51.7366 14.5934 51.9566 13.633 52.3903 12.78C52.8241 11.93 53.4228 11.2519 54.1742 10.7641C54.9226 10.2762 55.7932 10.0307 56.7646 10.0307C57.736 10.0307 58.6462 10.2793 59.4038 10.7641C60.1644 11.2519 60.7692 11.93 61.203 12.7769C61.6367 13.6299 61.8567 14.6118 61.8567 15.7011V15.7072Z" fill="black"/>
<path d="M126.252 19.5302C126.136 19.8769 126.019 20.2206 125.897 20.5673C125.769 20.2052 125.662 19.9352 125.567 19.7511L120.222 7.11249L120.188 7.03578H116.006L124 25.176L121.062 32H124.953L127.883 24.3935L134.924 7.20454L134.994 7.03271H130.748L126.252 19.524V19.5302Z" fill="black"/>
<path d="M82.0447 7.55114C80.9603 6.98043 79.7324 6.69507 78.3639 6.69507C77.3314 6.69507 76.357 6.89758 75.4406 7.29954C74.5242 7.70149 73.7697 8.263 73.1802 8.981V7.04179H69.5787V24.4763H73.1802V14.6974C73.1802 13.1325 73.5742 11.9328 74.3654 11.0951C75.1565 10.2605 76.2256 9.84014 77.5727 9.84014C78.9198 9.84014 79.9859 10.2574 80.7649 11.0951C81.5438 11.9328 81.9348 13.1325 81.9348 14.6974V24.4763H85.5057V14.1573C85.5057 12.571 85.2002 11.2148 84.5893 10.0948C83.9783 8.9718 83.1291 8.12493 82.0447 7.55421V7.55114Z" fill="black"/>
<path d="M113.465 1.44531V24.4734H109.857V8.66211L102.905 24.4734H100.315L93.3286 8.66211V24.4734H89.7211V1.44531H93.6219L101.625 19.5303L109.595 1.44531H113.465Z" fill="black"/>
<path d="M177.851 9.37078C177.542 8.94121 177.179 8.54846 176.766 8.1956C176.201 7.71693 175.538 7.34259 174.79 7.07565C174.038 6.8087 173.205 6.67676 172.303 6.67676C170.788 6.67676 169.402 7.06951 168.18 7.84274C166.961 8.61597 165.98 9.69296 165.269 11.0492C164.557 12.4023 164.193 13.9703 164.193 15.707C164.193 17.4437 164.548 18.984 165.25 20.3463C165.953 21.7118 166.903 22.8041 168.079 23.5988C169.258 24.3966 170.581 24.7985 172.01 24.7985C172.847 24.7985 173.657 24.6635 174.414 24.3996C175.172 24.1358 175.874 23.7768 176.497 23.338C177.023 22.9667 177.475 22.5494 177.851 22.0892V24.4733H181.489V7.03883H177.851V9.37078ZM177.982 15.707C177.982 16.8177 177.762 17.8149 177.328 18.6802C176.895 19.5394 176.29 20.2236 175.529 20.7084C174.772 21.1963 173.883 21.4417 172.89 21.4417C171.897 21.4417 171.048 21.1932 170.3 20.7084C169.551 20.2205 168.949 19.5363 168.516 18.6771C168.082 17.8149 167.862 16.8146 167.862 15.7039C167.862 14.5931 168.082 13.6327 168.516 12.7797C168.949 11.9298 169.548 11.2517 170.3 10.7638C171.048 10.276 171.919 10.0305 172.89 10.0305C173.861 10.0305 174.772 10.279 175.529 10.7638C176.29 11.2517 176.895 11.9298 177.328 12.7767C177.762 13.6297 177.982 14.6116 177.982 15.7008V15.707Z" fill="#FB35B5"/>
<path d="M197.981 18.8182L197.886 18.9379C197.437 19.4933 196.951 19.9719 196.441 20.3585C195.931 20.7421 195.4 21.0336 194.862 21.2238C194.324 21.4141 193.762 21.5123 193.191 21.5123C192.22 21.5123 191.319 21.2545 190.518 20.7452C189.715 20.2358 189.058 19.5393 188.573 18.6771C188.087 17.8149 187.839 16.8299 187.839 15.7437C187.839 14.6575 188.075 13.6634 188.542 12.7889C189.006 11.9175 189.645 11.224 190.439 10.7239C191.23 10.2268 192.147 9.97519 193.161 9.97519C193.707 9.97519 194.285 10.0949 194.874 10.328C195.47 10.5643 196.041 10.8896 196.573 11.2946C197.104 11.6996 197.544 12.1537 197.883 12.6416L197.978 12.7766L199.939 10.3587L199.994 10.2912L199.948 10.2176C199.285 9.13445 198.311 8.26304 197.046 7.63402C195.785 7.00501 194.367 6.68896 192.837 6.68896C191.306 6.68896 189.782 7.09092 188.518 7.88563C187.256 8.68034 186.242 9.77574 185.509 11.1412C184.776 12.5066 184.403 14.0561 184.403 15.7499C184.403 17.4436 184.776 18.9931 185.509 20.3585C186.242 21.724 187.256 22.8194 188.518 23.611C189.782 24.4057 191.233 24.8107 192.837 24.8107C194.239 24.8107 195.61 24.4886 196.915 23.8473C198.219 23.206 199.239 22.3806 199.945 21.3834L200 21.3067L197.987 18.8244L197.981 18.8182Z" fill="#FB35B5"/>
<path d="M161.285 1.44531V24.4734H157.678V8.66211L150.725 24.4734H148.135L141.149 8.66211V24.4734H137.542V1.44531H141.442L149.446 19.5303L157.415 1.44531H161.285Z" fill="#FB35B5"/>
</g>
<defs>
<clipPath id="clip0_2_2">
<rect width="200" height="32" fill="white"/>
</clipPath>
</defs>
</svg>
