<svg width="700" height="100" viewBox="0 0 700 100" fill="none" xmlns="http://www.w3.org/2000/svg">
<path fill-rule="evenodd" clip-rule="evenodd" d="M352.327 27.3161V41.2944H429.616V58.6135H352.327V72.5731C352.327 72.6875 352.333 72.8031 352.346 72.9187C352.558 74.5894 354.232 75.9012 356.304 75.9525C356.354 75.9587 356.398 75.9587 356.448 75.9587H429.616V93.2975H352.327C350.453 93.2975 348.406 92.99 346.153 92.3625C337.403 89.95 333.008 84.4837 333.008 75.9587V23.9237C333.008 22.2469 333.357 20.3971 334.066 18.3941C336.768 10.5277 342.848 6.5918 352.327 6.5918H429.616V23.9237H356.448C356.398 23.9237 356.354 23.9237 356.304 23.9303C354.232 23.9814 352.551 25.2998 352.346 26.9766C352.333 27.0853 352.327 27.2007 352.327 27.3161Z" fill="black"/>
<path fill-rule="evenodd" clip-rule="evenodd" d="M303.449 72.535C303.449 74.3856 301.693 75.875 299.476 75.9206C299.433 75.9431 299.389 75.9431 299.345 75.9431H245.489V23.9014H299.476C301.693 23.9691 303.449 25.4583 303.449 27.2866V72.535ZM321.705 18.3947C319.028 10.5183 312.926 6.5918 303.446 6.5918H226.196V93.2975H303.446C305.334 93.2975 307.397 92.9812 309.613 92.3494C318.392 89.935 322.781 84.4731 322.781 75.9656V23.9237C322.781 22.2314 322.408 20.4032 321.705 18.3947Z" fill="black"/>
<path fill-rule="evenodd" clip-rule="evenodd" d="M196.652 72.535C196.652 74.3856 194.874 75.875 192.657 75.9206C192.614 75.9431 192.571 75.9431 192.526 75.9431H142.796C142.753 75.9431 142.709 75.9431 142.665 75.9206C140.58 75.875 138.912 74.5662 138.693 72.8962C138.693 72.7837 138.671 72.6706 138.671 72.535V27.2866C138.671 27.1739 138.693 27.0613 138.693 26.9482C138.912 25.2781 140.58 23.9469 142.665 23.9014H192.657C194.874 23.9691 196.652 25.4583 196.652 27.2866V72.535ZM202.796 7.56249C200.58 6.90792 198.517 6.5918 196.652 6.5918H138.671C136.783 6.5918 134.742 6.90792 132.504 7.56249C123.726 9.95424 119.336 15.3934 119.336 23.9237V75.9656C119.336 84.4731 123.726 89.935 132.504 92.3494C134.742 92.9812 136.783 93.2975 138.671 93.2975H196.652C198.517 93.2975 200.58 92.9812 202.796 92.3494C211.575 89.935 215.942 84.4731 215.942 75.9656V23.9237C215.942 15.3934 211.575 9.95424 202.796 7.56249Z" fill="black"/>
<path fill-rule="evenodd" clip-rule="evenodd" d="M89.8019 33.6408V28.3414C89.8019 28.2133 89.7956 28.0919 89.7769 27.9704C89.5588 26.3058 87.8844 25.0067 85.825 24.9557C85.775 24.9491 85.7313 24.9491 85.6813 24.9491H36.0827C36.0331 24.943 35.9888 24.943 35.9392 24.943C35.8896 24.943 35.8459 24.943 35.7963 24.9491C33.5869 25.0067 31.8188 26.4982 31.8188 28.3354V73.2656C31.8064 73.3744 31.8004 73.4894 31.8004 73.6044C31.8004 73.72 31.8064 73.835 31.8188 73.95C32.0308 75.6206 33.7051 76.9325 35.7774 76.9844C35.8276 76.99 35.8713 76.99 35.9209 76.99C35.9705 76.99 36.0142 76.99 36.0638 76.9844H85.6813C85.7313 76.9844 85.775 76.9844 85.825 76.9775C87.8844 76.9262 89.5588 75.6269 89.7769 73.9694C89.7956 73.8481 89.8019 73.7262 89.8019 73.5981V68.3244H109.103V76.9844C109.103 79.9156 108.586 82.4819 107.553 84.69C107.366 85.0937 107.161 85.4831 106.936 85.8612C106.824 86.0469 106.706 86.2319 106.588 86.4181C106.109 87.1481 105.561 87.8325 104.944 88.4725C104.634 88.7856 104.309 89.0869 103.974 89.3875C103.457 89.8294 102.897 90.2394 102.306 90.6294C101.864 90.9175 101.397 91.1925 100.911 91.455C99.4488 92.2294 97.7931 92.8762 95.945 93.3881C95.665 93.4644 95.3906 93.5419 95.1231 93.6119C94.8494 93.6756 94.5756 93.74 94.3075 93.7981C92.6963 94.1494 91.1894 94.3225 89.7769 94.3225H31.8188C29.952 94.3225 27.8921 94.0156 25.6509 93.3881C22.9059 92.6325 20.5973 91.5831 18.7116 90.2325C17.9392 89.6756 17.2364 89.0744 16.6015 88.4088C16.3901 88.1913 16.1905 87.9675 15.9915 87.7362C15.8486 87.5631 15.7051 87.3781 15.5681 87.1988C13.5205 84.5106 12.5 81.1 12.5 76.9844V24.9491C12.5 20.8339 13.5205 17.4288 15.5681 14.7469C15.7051 14.5678 15.8421 14.3953 15.9915 14.2222V14.2156C16.1905 13.9854 16.3901 13.7613 16.6015 13.5439C16.8129 13.3259 17.0309 13.1151 17.2548 12.9037C17.7094 12.4877 18.1949 12.0973 18.7116 11.7262C20.5973 10.3822 22.9059 9.33888 25.6509 8.59006C27.8921 7.93725 29.952 7.61719 31.8188 7.61719H89.7769C90.9531 7.61719 92.1981 7.74475 93.5113 7.99494C93.9031 8.07144 94.3075 8.16075 94.7188 8.25725C95.1231 8.35931 95.5338 8.46863 95.945 8.59006C98.2044 9.20413 100.177 10.0234 101.858 11.0478C102.617 11.5149 103.326 12.0202 103.968 12.571C104.303 12.8655 104.634 13.1728 104.944 13.4862C105.561 14.1202 106.109 14.7986 106.588 15.5279C106.706 15.7137 106.824 15.899 106.936 16.0848C107.161 16.4626 107.366 16.8525 107.553 17.2496C108.586 19.4511 109.103 22.0176 109.103 24.9491V33.6408H89.8019Z" fill="black"/>
<path fill-rule="evenodd" clip-rule="evenodd" d="M627.869 32.7561H608.708V79.6519H595.672V32.7561H576.228V21.0209H627.869V32.7561ZM570.959 32.7561H555.839V67.9169H570.959V79.6519H527.66V67.9169H542.781V32.7561H527.66V21.0209H570.959V32.7561ZM692.319 15.1961C689.75 6.52981 683.956 2.19727 674.937 2.19727H478.611C469.569 2.19727 463.775 6.52981 461.207 15.1961C460.659 17.0464 460.351 18.9651 460.351 20.9059V80.6875C460.351 80.8913 460.373 81.0938 460.373 81.2969C460.395 81.5906 460.417 81.9513 460.439 82.2C461.141 89.6019 465.486 94.4088 472.729 96.7106C474.857 97.4106 476.811 97.7488 478.611 97.7488H674.937C676.719 97.7488 678.669 97.4106 680.819 96.7106C689.137 94.07 693.331 88.0444 693.331 78.6338V21.2897C693.331 19.4388 693 17.4075 692.319 15.1961Z" fill="#C0272D"/>
<path d="M627.869 32.7561H608.708V79.6519H595.672V32.7561H576.228V21.0209H627.869V32.7561Z" fill="white"/>
<path d="M570.959 32.7561H555.839V67.9169H570.959V79.6519H527.66V67.9169H542.781V32.7561H527.66V21.0209H570.959V32.7561Z" fill="white"/>
</svg>
