<svg width="5128" height="1000" viewBox="0 0 5128 1000" fill="none" xmlns="http://www.w3.org/2000/svg">
<path d="M749.97 0C788.878 15.5128 807.147 46.0897 807.147 90.0641L806.57 723.846C806.57 769.744 768.046 801.346 724.201 801.346L83.5219 801.154C45.7029 801.154 6.66602 770.256 6.66602 730.641V64.6795C6.73012 33.718 38.5878 14.359 60.8305 0H749.97ZM551.388 440.321C527.222 525.321 451.456 561.987 377.228 548.718C304.026 535.641 252.169 469.487 255.054 394.423C257.938 319.359 313.705 258.269 388.125 249.872C460.943 241.667 529.914 284.423 552.221 360.256L728.496 360.641V78.5256L84.7398 78.4615V722.885L728.496 722.821V438.91L551.324 440.321H551.388Z" fill="black"/>
<path d="M5128 275.641V698.718L5031.91 698.526L5029.41 329.744C5028.84 239.487 4958.13 178.462 4871.6 177.5C4785.06 176.538 4704.94 239.551 4704.36 334.551L4702.18 698.59H4602.89L4600.33 328.974C4599.69 238.718 4528.22 178.077 4442 177.436C4355.91 176.859 4277.52 236.538 4276.88 328.205L4274.38 698.59H4172.72V101.859L4273.1 100.577L4276.24 176.538C4326.81 114.167 4395.59 87.5641 4474.18 90.8974C4562.51 94.6154 4642.12 137.308 4677.12 220.385C4736.54 86.1539 4910.44 57.1154 5026.27 127.051C5082.23 160.833 5110.56 217.372 5127.87 275.705L5128 275.641Z" fill="black"/>
<path d="M2424.52 784.487L2522.72 782.564C2545.92 857.115 2614.06 897.244 2691.62 904.679C2801.3 915.128 2895.65 842.564 2896.04 730.256L2896.49 593.91C2845.59 666.923 2772.65 706.795 2684.76 709.038C2570.67 711.923 2468.94 650.513 2422.53 544.551C2385.74 460.513 2382.66 365.513 2412.15 278.461C2453.81 155.32 2568.23 83.6538 2695.92 92.0512C2778.61 97.4999 2846.1 133.397 2895.97 202.179L2897.58 101.346L2997.57 101.218L2995.01 745.192C2994.5 876.795 2888.99 971.602 2764.89 989.872C2614.83 1011.92 2444.97 943.974 2424.52 784.615V784.487ZM2885.08 478.013C2904.56 412.692 2900.53 346.731 2872.51 288.461C2841.94 224.808 2781.94 187.179 2718.67 180.641C2648.1 173.333 2580.28 199.103 2538.62 256.41C2496.95 313.718 2487.34 388.59 2502.02 459.103C2521.05 550.577 2594.9 615.385 2683.93 619.936C2775.15 624.615 2857.32 571.09 2885.08 478.013Z" fill="black"/>
<path d="M3949.2 698.974L3947.53 594.744C3899.52 666.026 3826.9 704.808 3741.77 708.782C3625.37 714.167 3521.78 652.244 3474.67 544.167C3438.77 461.859 3435.7 369.423 3462.68 283.205C3501.78 158.077 3618.25 84.0385 3746.97 91.9231C3829.01 96.9231 3899.46 132.244 3947.47 201.603L3949.27 100.962L4051.25 101.859V698.526L3949.33 699.038L3949.2 698.974ZM3934.07 488.59C3981.76 355.513 3916.89 202.372 3781.39 181.987C3704.98 170.513 3630.75 197.756 3587.74 260.256C3547.29 318.974 3540.11 390.064 3554.22 458.782C3572.55 548.333 3643.89 612.5 3729.92 619.551C3820.04 626.987 3901.77 578.974 3934.14 488.654L3934.07 488.59Z" fill="black"/>
<path d="M2041.52 708.91C1904.22 710.897 1790.95 629.679 1754.87 500.641C1738.01 440.385 1736.85 376.474 1750.57 316.026C1782.69 174.936 1902.87 90.8333 2044.53 91.0897C2204.21 91.3461 2329.65 201.923 2343.43 362.115C2360.1 556.282 2238.31 706.09 2041.52 708.91ZM2201.9 259.359C2165.56 207.372 2106.97 180.577 2047.42 179.551C1987.87 178.526 1924.35 199.359 1887.04 253.718C1826.98 341.218 1827.04 469.808 1893.39 554.487C1944.67 619.936 2032.42 633.59 2108.44 608.013C2247.8 561.026 2279.08 369.872 2201.84 259.423L2201.9 259.359Z" fill="black"/>
<path d="M1238.09 481.667C1261.17 578.141 1341.93 631.282 1436.16 622.949C1506.22 616.731 1564.62 577.18 1583.72 506.603L1691.85 506.346C1662.88 627.692 1560.64 702.692 1439.56 708.526C1250.08 717.756 1127.2 592.756 1125.72 403.782C1125.02 315.513 1149.76 230.705 1213.54 168.654C1281.81 102.308 1375.2 83.0128 1468.53 94.6795C1580.38 108.654 1669.42 182.5 1691.79 295L1584.1 294.68C1564.23 222.051 1502.05 181.603 1429.69 177.179C1337.57 171.538 1259.88 226.026 1238.35 317.115C1225.98 369.167 1225.01 426.667 1238.16 481.667H1238.09Z" fill="black"/>
<path d="M3220 698.013L3121.29 698.526V101.859L3219.23 100.705L3221.6 190.769C3266.22 120.256 3331.08 89.1026 3411.79 91.3462L3411.98 193.59C3367.49 194.551 3328.71 195.192 3292.24 216.154C3248.01 241.603 3222.11 293.269 3221.86 346.41L3220 698.141V698.013Z" fill="black"/>
<path d="M2885.08 478.013C2857.32 571.09 2775.15 624.615 2683.93 619.936C2594.9 615.385 2521.05 550.577 2502.02 459.103C2487.34 388.59 2495.73 315.385 2538.62 256.41C2581.5 197.436 2648.16 173.333 2718.67 180.641C2781.94 187.18 2841.94 224.808 2872.51 288.462C2900.53 346.731 2904.56 412.692 2885.08 478.013Z" fill="white"/>
<path d="M3934.07 488.59C3901.7 578.91 3819.98 626.923 3729.85 619.487C3643.83 612.436 3572.49 548.269 3554.15 458.718C3540.05 390 3547.29 318.91 3587.68 260.192C3630.69 197.692 3704.92 170.449 3781.32 181.923C3916.83 202.308 3981.7 355.513 3934.01 488.526L3934.07 488.59Z" fill="white"/>
<path d="M2201.9 259.359C2279.07 369.808 2247.79 561.026 2108.5 607.949C2032.48 633.59 1944.73 619.872 1893.45 554.423C1827.11 469.808 1827.04 341.154 1887.1 253.654C1924.41 199.295 1987.04 178.461 2047.48 179.487C2107.93 180.513 2165.62 207.308 2201.96 259.295L2201.9 259.359Z" fill="white"/>
</svg>
