<svg width="700" height="173" viewBox="0 0 700 173" fill="none" xmlns="http://www.w3.org/2000/svg">
<path d="M421.296 4.74143H465.836V5.61169C460.332 8.40107 459.079 12.9465 459.183 18.8595C459.523 39.0614 459.407 59.2711 459.303 79.4728C459.289 82.3247 460.214 83.0628 462.928 83.0938C471.901 83.187 480.879 83.0628 489.306 79.6519C492.843 78.2223 496.068 76.0309 499.374 74.0264C500.079 73.5989 500.974 74.2906 500.681 75.0674C500.681 75.0674 500.681 75.0832 500.671 75.0908C498.55 80.5066 496.505 85.953 494.164 91.2755C492.642 94.7334 489.952 96.4193 485.871 96.4038C456.032 96.3341 399.155 96.4193 387.138 96.4348C386.367 96.4348 385.976 95.5414 386.476 94.9584C390.277 90.522 389.088 85.6889 386.825 81.0271C385.386 78.0587 384.042 75.0207 382.361 72.1925C381.81 71.2602 380.341 70.3354 379.275 70.3199C370.352 70.1801 361.419 70.3199 352.487 70.2269C350.396 70.2033 349.297 71.027 348.513 72.8529C346.415 77.7326 344.235 82.5733 341.904 87.818C341.649 88.3931 340.902 88.5328 340.467 88.0898C336.838 84.4149 331.776 79.7995 331.061 78.0747C330.756 77.3287 330.811 76.544 331.542 74.9277C337.569 61.3846 360.625 9.32571 363.526 2.78342C363.695 2.38715 364.132 2.17734 364.544 2.27836L379.344 5.89139C379.603 5.95357 379.821 6.1245 379.929 6.36536C382.284 11.1983 402.637 53.2728 413.079 74.8035C414.969 78.7037 417.317 82.2236 421.023 84.6479C424.157 86.6993 429.98 86.1707 431.284 82.107C431.955 80.0403 432.21 77.3206 432.265 75.7047C432.881 58.9681 432.295 39.5821 432.265 17.2433C432.265 5.98464 422.543 5.20765 421.282 4.7492L421.296 4.74143ZM375.819 55.4873C372.608 48.2923 369.527 41.4077 366.457 34.5391C366.138 33.8322 365.136 33.84 364.831 34.5546C361.909 41.4468 358.985 48.3464 355.952 55.5102C355.705 56.0932 356.133 56.7457 356.769 56.7457H375.014C375.659 56.7457 376.089 56.0777 375.823 55.4947L375.819 55.4873Z" fill="black"/>
<path d="M366.306 130.586C366.741 130.896 366.857 131.487 366.577 131.945C363.653 136.74 357.007 139.723 351.439 137.423C338.582 132.109 322.185 122.474 302.376 106.305C302.363 106.289 302.339 106.274 302.323 106.258C273.106 79.1485 263.226 67.1205 257.691 59.6225C256.166 57.5558 256.564 56.5143 258.547 54.976C262.822 51.6659 267.339 48.4257 270.791 44.3469C280.143 33.2744 273.31 24.3234 263.849 20.7881C260.529 19.5449 256.617 19.7858 252.965 19.5449C250.873 19.4051 251.183 21.1378 251.177 22.4665C251.128 35.2946 251.082 48.115 251.052 60.9434C251.035 66.4835 251.223 72.0235 251.028 77.5555C250.788 84.5097 252.886 90.1039 258.149 94.2843C258.896 94.8749 258.461 96.0713 257.513 96.0713H221.385C221.084 95.2165 220.783 94.3618 220.483 93.5073C220.483 93.5073 220.522 93.4763 220.545 93.4605C223.305 91.4174 224.79 88.0606 224.821 84.6263C225.054 61.7671 225.342 38.9001 225.241 16.0407C225.225 13.0959 223.624 10.1588 222.419 6.95755C222.193 6.35927 222.566 5.7066 223.196 5.59782C223.74 5.50458 224.308 5.4191 224.868 5.41135C239.14 5.21708 253.416 5.01506 267.689 4.90629C276.139 4.84413 284.138 6.42142 290.748 12.2256C301.981 22.1012 302.821 38.6669 292.612 50.0265C290.935 51.8912 289.059 53.6475 287.046 55.1393C284.909 56.7165 287.093 67.0585 320.36 96.0403C349.637 121.541 359.822 125.885 366.306 130.578V130.586Z" fill="black"/>
<path d="M41.6044 60.0324C40.8346 59.1466 39.3888 59.6671 39.3501 60.8325C39.3501 61.0114 39.3501 61.1823 39.3501 61.3611C39.5211 72.6273 39.692 83.8939 39.9019 95.1603C39.9717 99.0455 41.4023 100.716 45.0718 101.936C46.479 102.402 47.9327 103.094 49.0056 104.119C49.7442 104.819 52.8306 107.484 47.6141 107.554C47.2565 107.554 46.8443 107.585 46.4556 107.585C33.737 107.53 21.0181 107.484 8.29932 107.414C6.65115 107.406 4.94858 107.491 3.37041 107.111C2.37528 106.87 -3.38548 105.456 2.88061 102.254C4.40435 101.477 6.16916 101.12 7.78619 100.467C10.274 99.4727 11.5878 97.7167 11.6034 94.8806C11.7667 67.0953 11.9999 39.3176 12.1787 11.5321C12.202 7.67824 11.5412 6.95564 7.84839 6.27188C6.32461 5.99215 4.69203 6.04656 3.26154 5.53373C2.64739 5.30839 2.14205 4.78004 1.65227 4.22837C1.20913 3.73888 1.21691 2.99296 1.66004 2.50344C2.28199 1.82745 2.90393 1.15147 3.57252 1.09708C7.24201 0.801812 10.9426 0.895061 14.6276 0.902833C24.5322 0.918355 34.4289 0.957219 44.3332 1.00383C45.2039 1.00383 46.2146 0.988286 46.891 1.22917C47.8471 1.56328 48.6792 2.09163 48.6792 3.82433C48.6792 4.98208 47.7073 5.42496 46.9764 5.65805C39.0156 8.17553 39.008 8.14444 39.0466 16.3884C39.1091 28.2377 39.1632 40.0946 39.2331 51.9437C39.2331 51.9514 39.2331 51.9595 39.2331 51.9669C39.2412 53.1559 40.7416 53.6764 41.5033 52.7596C53.8958 37.888 65.9381 23.4202 78.3769 8.49411C78.9601 7.79478 78.6413 6.72255 77.7706 6.45058C76.3403 5.99993 75.1894 5.64252 74.0776 5.19962C73.448 4.94319 72.5386 4.68679 72.5386 3.85542C72.5386 2.76762 73.2148 2.28588 73.8445 1.89736C74.5364 1.47003 75.5082 1.3768 76.3634 1.36126C86.8433 1.21362 97.3308 1.08931 107.81 1.01938C108.129 1.01938 108.448 1.12815 108.775 1.26801C109.389 1.54773 109.544 1.92068 109.435 2.89194C109.381 3.41254 109.086 3.7311 108.775 3.91758C91.7567 14.1351 81.5567 31.0969 68.1538 44.8887C66.801 46.2873 66.1789 47.5848 67.6407 49.4107C78.9365 63.4898 90.1242 77.6703 101.474 91.7105C104.732 95.7352 107.919 99.8535 111.27 101.695C116.308 104.477 116.836 103.723 119.356 104.912C121.206 105.782 120.358 107.903 118.399 107.895C107.103 107.857 95.6127 109.659 84.7206 105.106C74.6532 100.887 67.182 93.3888 60.5817 85.005C54.2222 76.9164 48.1348 68.6181 41.9077 60.4208C41.8068 60.2887 41.6979 60.1566 41.5889 60.0324H41.6044Z" fill="black"/>
<path d="M511.898 96.5595C514.058 94.6015 514.627 94.5705 517.278 91.1593C519.508 88.2844 519.18 85.402 519.198 82.4801C519.284 67.4299 519.073 52.3794 518.972 37.3211C518.925 30.235 518.638 23.1332 518.925 16.0548C519.12 11.3229 513.038 6.76193 513.038 6.76193L510.313 4.86605C510.313 4.86605 550.8 4.39985 570.19 5.01371C589.881 5.63526 609.06 21.1364 613.492 39.6755C619.604 65.239 604.996 89.683 579.987 95.868C576.626 96.6992 573.091 97.1655 569.63 97.15C551.966 97.0725 513.943 96.5516 511.898 96.5516V96.5595ZM545.396 80.5069C545.373 82.9465 546.252 83.8477 548.614 83.6925C553.544 83.3663 558.522 83.4283 563.408 82.7912C570.81 81.812 577.343 78.7196 581.347 72.1462C588.74 60.0172 589.61 47.2978 583.577 34.3143C580.156 26.9562 574.907 21.5949 566.503 20.4371C560.463 19.6057 554.36 19.2794 548.304 18.5567C545.718 18.2459 545.149 19.3182 545.172 21.6414C545.257 31.3537 545.498 70.6 545.396 80.499V80.5069Z" fill="black"/>
<path d="M682.257 33.2513C682.176 33.2355 682.132 33.1578 682.146 33.0803C682.193 32.8395 682.301 32.3112 682.357 31.8992C684.207 21.6582 676.391 16.4214 669.217 15.3258C663.952 14.5255 658.9 15.0072 654.898 19.0865C650.94 23.1269 651.065 27.4081 655.666 30.6171C662.507 35.3881 669.655 39.7158 676.564 44.3934C682.028 48.0919 683.655 49.1329 688.239 53.0646C705.934 68.2316 703.239 93.5695 683.002 105.069C672.421 111.083 661.202 111.891 649.719 109.63C640.415 107.796 631.303 105.007 622.105 102.66C619.974 102.116 619.549 101.052 620.021 98.8297C621.499 91.8056 622.651 84.7115 623.926 77.6488C623.986 77.2835 624.055 76.9261 624.157 76.5532C624.381 75.7685 625.466 75.7142 625.776 76.4602C625.952 76.8951 626.132 77.3379 626.287 77.7809C630.618 90.0498 644.301 98.8919 657.135 97.7031C665.858 96.8949 673.478 89.5758 674.566 81.0676C674.924 78.2782 674.177 76.2735 671.66 74.6963C661.787 68.5268 651.949 62.2876 642.21 55.9083C636.005 51.8445 630.868 46.6933 628.325 39.5295C622.447 22.956 633.054 4.39347 650.373 1.14562C663.534 -1.32524 676.261 0.104439 688.288 6.3748C689.875 7.19843 690.699 7.92882 690.125 9.9257C688.351 16.3437 684.027 31.3243 683.303 33.3676C683.282 33.4456 683.203 33.4842 683.127 33.4611C682.877 33.391 682.482 33.2899 682.278 33.2434L682.257 33.2513Z" fill="black"/>
<path d="M185.572 22.7089C185.572 22.7089 185.541 22.6934 185.525 22.6856C184.056 21.9009 182.486 20.8519 180.923 20.7975C174.043 20.5488 167.139 20.6887 160.251 20.5178C158.23 20.4712 157.748 21.2792 157.748 23.0663C157.748 28.6996 157.709 34.3327 157.577 39.9658C157.53 41.8463 158.199 42.5456 160.096 42.5224C167.372 42.4292 174.657 42.4988 181.934 42.3668C183.092 42.3436 184.212 41.5511 185.385 41.248C186.062 41.0771 187.049 40.8129 187.469 41.2323C188.052 41.8153 188.075 42.6078 187.92 43.2215C186.987 46.7803 185.883 48.3577 184.904 51.9086C184.429 53.6255 183.628 53.5244 181.825 53.5244C172.62 53.5244 167.046 53.61 159.295 53.61C157.577 53.61 157.196 54.4726 157.196 55.9723C157.196 64.3247 157.11 72.6775 157.188 81.0303C157.188 81.784 158.199 83.1826 158.72 83.1747C167.917 83.004 177.145 83.0195 186.303 82.2348C192.281 81.722 196.853 77.5805 201.564 74.1538C202.194 73.6953 202.652 73.3847 203.437 72.7862C203.904 72.4288 204.51 72.1182 205.233 72.6465C205.886 73.1205 205.77 73.944 205.552 74.4104C202.1 81.9006 198.61 87.0444 194.994 94.4569C194.715 95.0238 193.401 95.4127 192.608 95.3581C186.964 95.3581 131.307 95.5524 127.249 95.2494C126.526 95.195 125.547 95.0784 125.259 94.0372C124.925 92.8329 125.539 92.1959 126.099 91.8537C130.919 88.9559 131.385 84.1849 131.439 79.3675C131.673 60.7197 131.797 42.0716 131.906 23.4316C131.914 21.5046 131.657 19.5465 131.284 17.6507C130.608 14.2086 128.711 11.9164 125.018 11.2638C125.01 11.2638 125.003 11.2638 124.987 11.2638C123.346 10.9452 122.872 8.75404 124.132 7.66624C124.443 7.40204 124.769 7.1845 125.127 7.06016C126.542 6.57847 128.19 6.71053 129.737 6.71053C145.495 6.72608 161.246 6.78824 177.005 6.77269C179.532 6.77269 189.84 6.22102 189.84 10.479C189.84 13.7424 189.84 16.998 189.84 20.2614L185.564 22.7244L185.572 22.7089Z" fill="black"/>
<path d="M290.123 121.384C295.481 125.758 300.743 129.798 305.907 133.497C195.705 135.649 94.6003 145.214 11.8738 160.039C79.4247 136.597 174.917 120.203 283.438 115.206C285.242 116.9 287.132 118.664 289.098 120.49L290.123 121.384Z" fill="#FECC53"/>
<path d="M386.053 133.25C386.652 126.281 376.686 114.121 376.175 113.771C504.241 115.628 618.08 133.219 695.346 160.041C608.82 144.532 502.179 134.789 386.053 133.25Z" fill="#FECC53"/>
<path d="M218.64 152.986C218.64 152.986 249.474 149.102 350.935 149.102C460.73 149.102 483.231 152.986 483.231 152.986C483.231 152.986 438.428 172.598 350.935 172.598C279.133 172.598 218.64 152.986 218.64 152.986Z" fill="#FECC53"/>
</svg>
