<svg width="5582" height="1000" viewBox="0 0 5582 1000" fill="none" xmlns="http://www.w3.org/2000/svg">
<path d="M511.115 135.527C487.876 148.541 479.51 169.92 490.665 189.441C501.82 208.961 524.129 211.75 547.369 198.736C570.608 185.722 584.551 156.906 575.256 140.175C565.96 124.373 535.284 121.584 511.115 135.527ZM507.397 237.777C486.946 248.931 480.439 266.592 489.735 284.254C499.031 300.985 518.552 303.774 538.073 292.619C557.594 281.465 569.678 257.297 562.242 242.424C554.805 227.552 527.848 226.622 507.397 237.777ZM499.961 114.148C476.721 127.161 454.411 124.373 443.257 104.852C432.102 84.4024 440.468 64.8819 463.707 50.9388C486.947 36.9957 517.622 38.8548 527.848 56.5161C537.143 73.2478 523.2 101.134 499.961 114.148ZM408.863 66.7411C388.412 77.8956 369.821 75.107 360.525 58.3753C351.229 41.6436 357.736 23.9823 378.187 11.8982C398.637 0.743753 425.595 1.67329 433.031 16.5459C441.398 31.4186 429.313 54.6571 408.863 66.7411ZM468.355 994.423C361.454 994.423 257.342 957.241 173.681 889.385C90.9493 821.528 34.2454 726.715 12.8653 621.677C-8.51486 516.639 8.21741 406.953 58.4142 312.14C108.611 217.327 191.343 142.963 289.877 102.064C316.835 90.909 347.511 89.05 376.328 97.4158C404.215 105.782 429.313 124.373 446.045 148.541C462.778 172.709 470.214 202.454 467.426 232.199C464.637 261.945 451.623 288.901 431.172 310.281C419.088 322.365 404.215 331.66 388.412 339.096C379.116 343.744 367.961 348.392 358.666 354.899C328.919 372.56 304.751 397.658 288.018 427.403C270.356 457.148 261.061 490.612 260.131 525.005C259.202 559.398 266.638 593.791 282.441 624.466C298.244 655.14 320.553 681.167 348.44 701.617C376.328 721.138 408.863 734.152 443.257 737.87C477.651 741.588 512.045 736.94 543.65 724.856C575.256 711.842 604.072 691.393 626.382 665.365C648.692 639.338 663.565 607.734 671.002 574.27C672.861 560.327 674.72 546.384 675.649 532.441C675.649 518.498 678.438 504.555 682.156 490.612C692.382 461.796 711.903 437.628 737.931 421.826C763.959 406.024 794.635 400.446 824.381 405.094C854.127 409.742 882.014 425.544 901.535 448.782C921.056 472.021 932.211 501.766 932.211 531.512C932.211 654.211 882.944 772.263 796.494 859.639C709.114 945.157 591.058 993.493 468.355 994.423ZM1959.39 181.075C1955.67 181.075 1951.02 182.004 1948.23 184.793C1944.51 187.582 1942.65 190.37 1940.8 194.088L1783.7 667.225H1781.84L1624.74 194.088C1623.81 190.37 1621.02 186.652 1617.3 184.793C1613.59 182.004 1609.87 181.075 1606.15 181.075H1361.67C1356.1 181.075 1351.45 182.934 1347.73 186.652C1344.01 190.37 1342.15 195.018 1342.15 200.595V883.807C1342.15 889.385 1344.01 894.032 1347.73 897.751C1351.45 901.469 1356.1 903.328 1361.67 903.328H1509.47C1515.05 903.328 1519.7 901.469 1523.42 897.751C1527.14 894.032 1529 889.385 1529 883.807V449.712C1529 448.782 1529 446.923 1529.93 445.994C1530.85 445.064 1530.85 444.135 1531.78 443.205C1532.71 442.276 1533.64 441.346 1535.5 441.346C1536.43 441.346 1538.29 440.417 1539.22 440.417C1541.08 440.417 1543.87 441.346 1544.8 442.276C1546.66 443.205 1547.59 445.064 1548.52 446.923L1696.32 890.314C1697.25 894.033 1700.04 897.751 1703.76 899.61C1707.47 902.398 1711.19 903.328 1714.91 903.328H1847.84C1851.56 903.328 1856.2 902.398 1858.99 899.61C1862.71 896.821 1864.57 894.033 1866.43 890.314L2014.23 446.923C2015.16 445.064 2016.09 443.205 2017.95 442.276C2019.81 441.346 2021.67 440.417 2023.53 440.417C2026.32 440.417 2028.18 441.346 2030.03 443.205C2031.89 445.064 2032.82 447.853 2032.82 449.712V883.807C2032.82 889.385 2034.68 894.032 2038.4 897.751C2042.12 901.469 2046.77 903.328 2052.34 903.328H2200.15C2205.72 903.328 2210.37 901.469 2214.09 897.751C2217.81 894.032 2219.67 889.385 2219.67 883.807V200.595C2219.67 195.018 2217.81 190.37 2214.09 186.652C2210.37 182.934 2205.72 181.075 2200.15 181.075H1959.39ZM3116.7 641.197C3116.7 722.067 3168.76 771.333 3227.32 771.333C3246.84 771.333 3265.43 767.615 3283.1 760.179C3300.76 752.742 3316.56 740.658 3328.65 726.715C3331.43 722.997 3336.08 721.138 3340.73 720.208C3345.38 719.279 3350.03 721.138 3354.67 723.927L3446.7 791.783C3448.56 793.642 3450.42 795.501 3452.28 797.36C3453.21 799.219 3454.14 802.008 3455.07 804.796C3455.07 807.585 3455.07 810.374 3454.14 813.162C3453.21 815.951 3452.28 817.81 3450.42 819.669C3396.5 882.878 3321.21 917.271 3223.6 917.271H3214.31C3059.07 917.271 2933.58 802.008 2933.58 648.634V625.395C2933.58 472.021 3059.07 356.758 3214.31 356.758H3223.6C3321.21 356.758 3396.5 391.151 3450.42 454.36C3452.28 456.219 3453.21 459.007 3454.14 460.866C3455.07 463.655 3455.07 466.444 3455.07 468.303C3455.07 471.091 3454.14 473.88 3452.28 475.739C3451.35 477.598 3449.49 480.387 3446.7 481.316L3354.67 549.173C3350.95 551.961 3346.31 553.82 3341.66 552.891C3337.01 551.961 3332.36 550.102 3329.57 546.384C3316.56 532.441 3301.69 520.357 3284.03 512.921C3266.36 505.484 3247.77 500.837 3228.25 501.766C3169.69 501.766 3117.63 551.032 3117.63 631.902V641.197H3116.7ZM3548.02 197.806C3548.02 192.229 3549.88 187.581 3553.6 183.863C3557.32 180.145 3561.97 178.286 3567.54 178.286H3883.6C4044.41 178.286 4154.1 272.169 4154.1 422.755V432.98C4154.1 584.495 4047.2 680.238 3883.6 680.238H3734.87V882.878C3734.87 888.455 3733.01 893.103 3729.29 896.821C3725.57 900.539 3720.92 902.398 3715.35 902.398H3567.54C3561.97 902.398 3557.32 900.539 3553.6 896.821C3549.88 893.103 3548.02 888.455 3548.02 882.878V197.806ZM3852.92 525.934C3917.06 525.934 3966.33 486.894 3966.33 429.262V425.544C3966.33 370.701 3919.85 331.66 3857.57 331.66H3734.87V525.005H3852.92V525.934ZM2318.2 757.39C2318.2 847.555 2392.57 918.201 2498.54 918.201C2580.34 918.201 2624.03 882.878 2662.14 854.062C2664 866.146 2666.79 877.301 2669.58 889.385C2670.51 893.103 2673.3 896.821 2677.02 899.61C2680.73 902.398 2684.45 903.328 2689.1 903.328H2817.38C2822.96 903.328 2827.61 901.469 2831.32 897.751C2835.04 894.032 2836.9 889.385 2836.9 883.807V580.777C2836.9 443.205 2745.8 354.899 2602.65 354.899H2587.78C2507.83 354.899 2428.82 373.49 2358.17 410.671C2355.38 411.601 2353.53 413.46 2351.67 415.319C2349.81 417.178 2348.88 419.966 2347.95 422.755C2347.02 425.544 2347.02 428.333 2347.95 431.121C2347.95 433.91 2348.88 436.698 2350.74 438.557L2408.37 530.582C2411.16 534.3 2414.88 537.089 2419.52 538.948C2424.17 539.877 2428.82 539.877 2433.47 538.018C2489.24 512.921 2533.86 503.625 2573.83 503.625C2626.82 503.625 2657.49 535.23 2657.49 589.143H2620.31C2412.09 588.214 2318.2 638.409 2318.2 757.39ZM2476.23 749.954C2476.23 704.406 2549.66 689.533 2639.83 689.533H2657.49V748.094C2642.62 763.897 2624.96 775.981 2605.44 784.347C2585.92 792.713 2564.54 797.36 2543.16 797.36C2508.76 796.431 2476.23 781.558 2476.23 749.954ZM4195.93 757.39C4195.93 847.555 4270.3 918.201 4376.27 918.201C4458.07 918.201 4501.76 882.878 4539.88 854.062C4541.74 866.146 4544.52 877.301 4547.31 889.385C4548.24 893.103 4551.03 896.821 4554.75 899.61C4558.47 902.398 4562.19 903.328 4566.83 903.328H4695.11C4700.69 903.328 4705.34 901.469 4709.06 897.751C4712.78 894.032 4714.64 889.385 4714.64 883.807V580.777C4714.64 443.205 4623.54 354.899 4480.38 354.899H4466.44C4386.5 354.899 4308.41 373.49 4237.77 410.671C4234.98 411.601 4233.12 413.46 4231.26 415.319C4229.4 417.178 4228.47 419.966 4227.54 422.755C4226.61 425.544 4226.61 428.333 4227.54 431.121C4227.54 433.91 4228.47 436.698 4230.33 438.557L4287.96 530.582C4290.75 534.3 4294.47 537.089 4299.12 538.948C4303.77 539.877 4308.41 539.877 4313.06 538.018C4368.84 512.921 4413.45 503.625 4453.43 503.625C4506.41 503.625 4537.09 535.23 4537.09 589.143H4499.9C4289.82 588.214 4195.93 638.409 4195.93 757.39ZM4353.96 749.954C4353.96 704.406 4427.4 689.533 4517.57 689.533H4535.23V748.094C4520.36 763.897 4502.69 775.981 4483.17 784.347C4463.65 792.713 4442.27 797.36 4420.89 797.36C4387.43 796.431 4353.96 781.558 4353.96 749.954ZM5012.1 698.829L5091.11 379.067C5092.04 374.419 5094.83 370.701 5097.62 368.842C5101.34 366.053 5105.06 365.124 5109.7 365.124H5242.63C5247.28 365.124 5251 366.983 5254.72 368.842C5258.43 371.63 5260.29 375.349 5261.22 379.067L5341.17 698.829C5342.1 700.688 5343.03 702.547 5344.88 704.406C5346.74 705.336 5348.6 706.265 5351.39 706.265C5354.18 706.265 5356.04 705.336 5357.9 703.477C5359.76 701.618 5360.69 699.758 5361.62 697.899L5403.45 381.855C5404.38 377.208 5406.24 372.56 5409.95 369.771C5413.67 366.983 5418.32 365.124 5422.97 365.124H5561.47C5564.26 365.124 5567.05 366.053 5569.84 366.983C5572.63 367.912 5574.49 369.771 5576.35 372.56C5578.21 374.419 5579.14 377.208 5580.07 379.996C5581 382.785 5581 385.574 5580.07 388.362L5473.17 887.526C5472.24 892.173 5469.45 895.892 5466.66 898.68C5462.94 901.469 5458.29 903.328 5453.64 903.328H5280.74C5276.1 903.328 5272.38 902.398 5268.66 899.61C5264.94 896.821 5263.08 893.103 5261.22 889.385L5177.56 597.509H5173.84L5090.18 889.385C5089.25 893.103 5086.46 896.821 5082.75 899.61C5079.03 902.398 5075.31 903.328 5070.66 903.328H4896.83C4892.18 903.328 4887.54 901.469 4884.75 898.68C4881.03 895.892 4879.17 892.173 4878.24 887.526L4773.2 388.362C4772.27 385.574 4772.27 382.785 4773.2 379.996C4774.13 377.208 4775.06 374.419 4776.92 372.56C4778.78 370.701 4781.56 368.842 4783.42 366.983C4786.21 366.053 4789 365.124 4791.79 365.124H4931.23C4935.87 365.124 4940.52 366.983 4944.24 369.771C4947.96 372.56 4949.82 377.208 4950.75 381.855L4992.58 697.899C4992.58 700.688 4994.44 702.547 4996.3 703.477C4998.15 705.336 5000.01 706.265 5002.8 706.265C5004.66 706.265 5007.45 705.336 5008.38 704.406C5010.24 702.547 5012.1 700.688 5012.1 698.829Z" fill="black"/>
</svg>
