<svg width="4216" height="1000" viewBox="0 0 4216 1000" fill="none" xmlns="http://www.w3.org/2000/svg">
<path d="M439.532 31.4546C292.069 95.6549 150.909 172.742 11.6173 252.861L0 259.567V272.919C0 350.824 0.992436 435.841 4.26165 513.395C7.82273 593.746 12.3763 673.924 21.892 753.927C38.7634 614.622 43.9007 473.451 46.2357 333.214L46.586 286.389C181.266 207.262 314.195 124.927 439.532 31.4546Z" fill="black"/>
<path d="M648.937 152.216C501.472 216.474 360.255 293.619 221.022 373.797L209.404 380.503V393.857C209.404 471.7 210.455 556.719 213.724 634.273C217.286 714.565 221.839 794.743 231.413 874.686C248.285 735.441 253.364 594.27 255.699 454.092L256.049 407.268C390.729 328.081 523.714 245.746 648.994 152.158L648.937 152.216Z" fill="black"/>
<path d="M863.01 615.846L456.052 825.357C457.395 804.189 458.563 782.965 459.557 761.741L864.82 501.441L461.717 708.911C462.476 687.395 463.06 665.935 463.644 644.476L863.01 387.792L464.752 592.522C464.868 586.692 464.984 580.8 465.103 574.97L465.452 528.205C600.131 449.076 733.119 366.624 858.399 273.095C710.934 337.354 569.717 414.497 430.483 494.676L418.868 501.381V514.735C418.808 592.638 419.859 677.597 423.186 755.151C425.989 819.235 429.491 883.259 435.68 947.111C436.964 961.397 438.483 975.624 440.175 989.911C440.35 991.776 440.583 993.7 440.818 995.568L857.172 730.019L446.772 941.395C448.815 920.87 450.566 900.227 452.201 879.643L863.01 615.905V615.846Z" fill="black"/>
<path d="M544.205 91.8065C396.742 156.065 255.523 233.21 116.29 313.386L104.673 320.095V333.446C104.673 411.292 105.724 496.308 108.993 573.862C112.554 654.157 117.108 734.335 126.682 814.278C143.553 675.032 148.632 533.862 150.967 393.681L151.317 346.859C285.996 267.672 418.984 185.337 544.264 91.7481L544.205 91.8065Z" fill="black"/>
<path d="M753.666 212.627C606.204 276.886 464.984 354.03 325.753 434.208L314.135 440.914V454.268C314.135 532.114 315.186 617.13 318.453 694.684C322.015 774.976 326.569 855.154 336.144 935.097C353.014 795.851 358.095 654.681 360.43 514.503L360.778 467.678C495.458 388.492 628.446 306.157 753.726 212.569L753.666 212.627Z" fill="black"/>
<path d="M4013.25 421.914C4021.77 421.914 4028.39 422.386 4035.5 423.335V467.819C4029.82 466.87 4025.55 466.397 4019.88 466.397C3977.77 466.397 3947.47 498.105 3947.47 544.008V668.941H3901.1V427.595H3947.47V473.497H3948.42C3961.2 443.211 3980.61 421.914 4013.25 421.914Z" fill="black"/>
<path d="M3866.67 543.059C3866.67 549.687 3866.67 556.784 3866.18 560.57H3680.7C3681.65 600.795 3705.3 638.178 3753.1 638.178C3795.7 638.178 3812.24 610.732 3816.51 594.641H3863.83C3851.05 641.019 3815.56 676.038 3752.16 676.038C3675.49 676.038 3632.89 621.616 3632.89 547.792C3632.89 472.076 3678.32 420.022 3752.16 420.022C3825.51 420.022 3866.67 468.289 3866.67 543.059ZM3680.7 524.13H3818.4C3818.4 486.273 3791.89 457.878 3750.73 457.878C3711.92 457.878 3683.54 484.381 3680.7 524.13Z" fill="black"/>
<path d="M3519.36 420.492C3563.84 420.492 3599.81 446.046 3599.81 501.414V668.938H3553.44V514.192C3553.44 482.014 3539.22 460.243 3504.23 460.243C3464.47 460.243 3438.9 484.378 3438.9 520.816V668.938H3392.53V330.578H3438.9V457.878H3439.85C3452.63 439.422 3477.71 420.492 3519.36 420.492Z" fill="black"/>
<path d="M3251.89 676.038C3179.94 676.038 3133.11 623.984 3133.11 548.268C3133.11 472.551 3179.94 420.495 3251.4 420.495C3313.4 420.495 3354.56 460.722 3360.23 515.141H3312.45C3310.07 490.059 3295.88 458.827 3251.89 458.827C3200.3 458.827 3181.38 502.838 3181.38 548.268C3181.38 593.697 3200.3 637.235 3251.89 637.235C3296.37 637.235 3310.07 606.949 3312.45 579.5H3360.23C3356.94 634.868 3313.88 676.038 3251.89 676.038Z" fill="black"/>
<path d="M3097.71 633.449C3105.76 633.449 3109.54 632.976 3117.6 631.557V668.941C3105.76 671.308 3098.19 671.781 3088.25 671.781C3048.49 671.781 3024.36 656.638 3024.36 600.797V465.927H2989.33V427.595H3024.36V349.986H3070.73V427.595H3117.11V465.927H3070.73V602.216C3070.73 627.77 3077.84 633.449 3097.71 633.449Z" fill="black"/>
<path d="M2833.42 675.565C2785.15 675.565 2754.4 647.643 2754.4 606.473C2754.4 552.524 2795.1 536.435 2855.21 525.078C2893.07 517.978 2916.26 513.246 2916.26 489.587C2916.26 472.076 2905.82 457.405 2870.34 457.405C2828.23 457.405 2815.45 470.657 2813.1 502.835H2765.78C2768.13 456.459 2798.42 420.022 2872.23 420.022C2921.93 420.022 2961.66 440.843 2961.66 503.308V614.043C2961.66 631.554 2964.04 640.546 2973.04 640.546C2974.44 640.546 2975.87 640.546 2978.71 640.073V668.465C2970.66 670.359 2962.61 671.305 2955.04 671.305C2931.85 671.305 2919.55 662.314 2916.72 634.865H2915.77C2900.15 659.946 2872.72 675.565 2833.42 675.565ZM2843.85 638.178C2885.47 638.178 2916.26 616.884 2916.26 574.768V540.222C2908.66 547.319 2887.85 552.524 2863.23 557.73C2820.67 566.249 2802.67 578.078 2802.67 603.159C2802.67 625.876 2814.99 638.178 2843.85 638.178Z" fill="black"/>
<path d="M2587.78 675.562C2491.72 675.562 2429.73 601.741 2429.73 499.995C2429.73 397.778 2492.19 323.954 2588.25 323.954C2672.96 323.954 2725.48 377.903 2733.54 445.573H2679.11C2672.96 412.449 2652.14 368.911 2587.31 368.911C2512.54 368.911 2484.15 432.324 2484.15 499.522C2484.15 567.195 2512.54 630.605 2587.31 630.605C2652.61 630.605 2675.8 587.07 2679.11 545.897H2733.54C2725.97 621.141 2672.96 675.562 2587.78 675.562Z" fill="black"/>
<path d="M2310.75 675.565C2237.4 675.565 2200.96 637.708 2199.54 588.492H2246.39C2248.28 616.411 2265.32 638.181 2310.27 638.181C2350.97 638.181 2361.85 620.197 2361.85 602.689C2361.85 572.403 2329.68 569.089 2298.44 562.465C2256.33 552.527 2208.06 540.222 2208.06 490.059C2208.06 448.416 2241.66 420.495 2299.86 420.495C2366.11 420.495 2397.82 455.989 2401.13 497.632H2354.28C2350.97 479.176 2341.03 457.881 2300.81 457.881C2269.58 457.881 2256.33 470.184 2256.33 488.168C2256.33 513.249 2283.3 515.614 2317.37 523.187C2361.85 533.597 2410.12 546.376 2410.12 600.322C2410.12 647.173 2374.16 675.565 2310.75 675.565Z" fill="black"/>
<path d="M1968.57 668.941H1920.77L1846.01 427.595H1896.17L1947.27 614.522H1948.22L1998.38 427.595H2045.23L2095.38 614.522H2096.33L2147.91 427.595H2196.18L2121.41 668.941H2073.62L2021.56 482.962H2020.62L1968.57 668.941Z" fill="black"/>
<path d="M1838.42 543.059C1838.42 549.687 1838.42 556.784 1837.94 560.57H1652.45C1653.39 600.795 1677.05 638.178 1724.85 638.178C1767.44 638.178 1784 610.732 1788.26 594.641H1835.58C1822.8 641.019 1787.31 676.038 1723.9 676.038C1647.24 676.038 1604.65 621.616 1604.65 547.792C1604.65 472.076 1650.08 420.022 1723.9 420.022C1797.25 420.022 1838.42 468.289 1838.42 543.059ZM1652.45 524.13H1790.15C1790.15 486.273 1763.65 457.878 1722.48 457.878C1683.68 457.878 1655.28 484.381 1652.45 524.13Z" fill="black"/>
<path d="M1349.51 668.938H1297.46V330.578H1357.09L1514.19 590.854H1515.14V330.578H1567.66V668.938H1508.04L1350.46 408.662H1349.51V668.938Z" fill="black"/>
</svg>
