<svg width="700" height="174" viewBox="0 0 700 174" fill="none" xmlns="http://www.w3.org/2000/svg">
<g clip-path="url(#clip0_5_52)">
<mask id="mask0_5_52" style="mask-type:luminance" maskUnits="userSpaceOnUse" x="0" y="0" width="700" height="174">
<path d="M700 0H0V174H700V0Z" fill="white"/>
</mask>
<g mask="url(#mask0_5_52)">
<path d="M50.8928 97.1695V170.604H24.012V97.1695H50.8928ZM52.1272 3.3843L141.326 124.775L142.23 126.003V3.3843H169.11V170.593H141.983L51.8069 47.7837L50.9036 46.5532V73.0718H24.0237V3.3843H52.1272Z" fill="black" stroke="black"/>
<path d="M269.003 0.488659C279.687 0.488659 289.038 2.12778 297.035 5.38026H297.036C305.067 8.63791 311.687 13.0843 316.908 18.7133V18.7142C322.041 24.2248 325.851 30.4645 328.394 37.4047L302.444 45.766C300.057 39.653 296.069 34.5743 290.5 30.514L289.943 30.1146L289.374 29.724C283.45 25.7469 276.17 23.767 267.572 23.767C258.705 23.767 251.065 25.9527 245.75 30.3773C240.422 34.8123 237.773 40.9582 237.773 48.7719C237.773 55.1475 239.849 60.1472 244.067 63.7113V63.7123C248.226 67.2162 253.853 69.8433 260.96 71.6156L260.963 71.6166L281.627 76.6576C296.604 80.3426 308.195 86.617 316.441 95.5101C324.697 104.412 328.802 114.231 328.802 124.979C328.802 134.501 326.498 142.912 321.901 150.182L321.9 150.183C317.329 157.459 310.545 163.179 301.588 167.3C292.615 171.43 281.695 173.489 268.764 173.489H267.624L267.626 173.491C259.317 173.404 251.691 172.38 244.775 170.408H244.776C237.534 168.33 231.184 165.467 225.705 161.809V161.808C220.227 158.154 215.695 154.067 212.135 149.549V149.548L211.475 148.697C208.354 144.573 206.136 140.3 204.796 135.87L231.246 127.743C233.409 133.595 237.509 138.744 243.492 143.153C249.672 147.699 257.301 150.05 266.36 150.21H266.369C276.85 150.21 285.212 148.052 291.407 143.646V143.645C297.613 139.22 300.742 133.396 300.742 126.16C300.742 119.611 298.105 114.199 292.871 110.019L292.87 110.018L292.377 109.632C287.224 105.676 280.44 102.633 272.021 100.444L272.019 100.443L251.355 95.1625H251.354C243.562 93.0852 236.52 90.0505 230.258 86.0951C223.988 82.1263 219.076 77.1293 215.521 71.1039L215.52 71.1019C211.954 65.1059 210.178 57.9986 210.178 49.7484C210.178 34.1631 215.25 22.0834 225.387 13.474L225.388 13.473C235.515 4.83327 250.02 0.48866 269.003 0.488659Z" fill="black" stroke="black"/>
<path d="M425.449 3.3843C436.98 3.3843 446.796 5.15762 455.188 8.60109V8.60207C463.48 12.1443 469.904 17.3424 474.567 24.2066C479.127 31.0554 481.426 39.6046 481.426 49.9527C481.426 57.085 479.667 63.5018 476.335 69.2124C472.895 74.8532 468.153 79.601 461.976 83.3999L461.206 83.8736L462.016 84.2739C470.06 88.2482 476.306 93.6309 480.529 100.232L480.878 100.777L480.885 100.769C484.961 107.339 486.964 115.087 486.964 124.025C486.964 133.839 484.745 142.302 480.267 149.247L480.264 149.251C475.874 156.201 469.621 161.486 461.511 165.106H461.51L461.505 165.109C453.487 168.818 443.849 170.593 432.677 170.593H370.46V97.1577H396.898V146.633H430.533C439.429 146.633 446.513 144.479 451.791 140.009C456.988 135.634 459.628 129.605 459.628 122.072C459.628 113.909 456.723 107.521 450.88 102.953C445.056 98.3979 437.01 96.1577 426.697 96.1577H397.886V74.0718H427.855C435.957 74.0718 442.332 71.9107 447.077 67.5239L447.08 67.52C451.735 63.1398 454.09 57.2872 454.09 49.5103C454.09 41.7153 451.359 35.6796 446.061 31.4722C440.779 27.2788 433.346 25.2086 424.02 25.2085H396.886V73.0718H370.448V3.3843H425.449Z" fill="black" stroke="black"/>
<path d="M562.31 97.1695V170.604H535.52V97.1695H562.31ZM564.508 3.3843L617.18 81.0747L617.596 81.688L618.009 81.0737L670.241 3.3843H699.49V170.593H672.608V45.1958L671.693 46.5503L617.413 126.969L563.223 47.0825L562.31 45.7359V73.0718H535.52V3.3843H564.508Z" fill="black" stroke="black"/>
<path d="M534.497 74.0836V96.1695H511.975V74.0836H534.497Z" fill="black" stroke="black"/>
<path d="M23.0234 74.0836V96.1695H0.5V74.0836H23.0234Z" fill="black" stroke="black"/>
</g>
</g>
<defs>
<clipPath id="clip0_5_52">
<rect width="700" height="174" fill="white"/>
</clipPath>
</defs>
</svg>
