<svg width="1136" height="1000" viewBox="0 0 1136 1000" fill="none" xmlns="http://www.w3.org/2000/svg">
<g clip-path="url(#clip0_24_470)">
<path d="M0 0H1136V1000H0V0Z" fill="black"/>
<path d="M411.531 243.026C447.719 240.048 489.553 247.99 521.135 266.268C525.106 267.979 534.425 272.141 537.105 275.383C547.429 281.854 556.891 288.242 565.971 296.495C594.395 316.388 632.137 380.191 632.365 414.88C672.62 599.223 550.192 797.201 364.553 837.392C318.939 847.261 281.807 847.739 236.934 833.636C207.374 828.433 160.109 792.536 141.866 767.871C86.7531 706.316 79.2404 609.569 94.804 531.687C113.849 436.376 162.645 357.799 243.406 303.074C267.726 282.883 327.839 258.278 358.775 251.328C370.02 248.589 378.155 247.046 389.592 245.275C397.044 244.318 404.007 243.325 411.531 243.038V243.026Z" fill="#FEFEFE"/>
<path d="M411.532 243.026C447.719 240.048 489.553 247.99 521.135 266.268C525.107 267.979 534.426 272.141 537.105 275.383C547.429 281.854 556.892 288.242 565.972 296.495C564.464 296.459 562.395 295.431 560.911 294.797L556.688 295.574L555.564 297.249L556.665 299.282L556.198 300.443L555.444 300.048C549.87 297.081 545.132 293.182 539.677 290.084C484.062 258.517 425.181 261.926 365.834 279.605C277.907 305.49 204.049 365.598 160.851 446.447C149.295 467.835 132.727 507.56 127.714 531.412C126.805 535.718 125.453 543.122 124.042 547.034C116.146 547.201 116.218 560.024 111.313 566.89C110.237 572.058 109.064 580.275 109.004 585.586C109.614 593.002 108.837 598.589 108.945 605.598C106.791 614.366 107.724 619.438 106.612 627.584L106.289 625.431C105.667 636.603 106.337 644.546 107.964 655.682C108.514 659.414 110.009 666.304 109.949 669.522C111.816 678.313 113.885 687.069 116.122 695.778C119.663 692.931 118.838 692.524 118.682 688.349L122.845 690.168L126.542 704.773C121.852 710.347 122.331 710.598 121.948 717.979C125.142 727.273 134.282 745.347 133.731 753.529C136.387 756.926 141.938 763.744 141.842 767.895C86.7296 706.34 79.217 609.593 94.7806 531.711C113.825 436.4 162.622 357.823 243.383 303.098C267.703 282.907 327.816 258.302 358.752 251.352C369.997 248.613 378.132 247.069 389.568 245.299C397.021 244.342 403.983 243.349 411.508 243.062L411.532 243.026Z" fill="url(#paint0_linear_24_470)"/>
<path d="M281.879 281.962L287.621 284.223C261.877 298.445 226.922 319.833 206.238 341.124C166.079 379.557 146.269 408.194 123.779 459.378L120.19 467.823L115.931 478.84C121.96 482.632 124.592 484.94 129.951 489.665L127.451 498.349C121.53 515.168 112.27 549.079 111.301 566.878C110.225 572.046 109.052 580.263 108.993 585.574C109.603 592.991 108.825 598.577 108.933 605.586C106.78 614.354 107.713 619.426 106.6 627.572L106.277 625.419C105.655 636.591 106.325 644.534 107.952 655.67C108.502 659.402 109.998 666.292 109.938 669.51C111.804 678.302 113.873 687.057 116.111 695.766C119.652 692.919 118.826 692.512 118.671 688.337L122.834 690.156L126.53 704.761C121.841 710.335 122.319 710.586 121.936 717.967C125.13 727.261 134.27 745.335 133.72 753.517C136.376 756.914 141.926 763.732 141.831 767.883C86.7179 706.328 79.2053 609.581 94.7689 531.699C113.814 436.388 162.61 357.811 243.371 303.086C249.568 301.124 274.953 285.969 281.843 281.986L281.879 281.962Z" fill="url(#paint1_linear_24_470)"/>
<path d="M111.624 492.081L115.93 478.84C121.959 482.632 124.591 484.94 129.951 489.665L127.45 498.349C121.529 515.167 112.27 549.079 111.301 566.878C110.224 572.045 109.052 580.263 108.992 585.574C108.453 585.478 107.233 584.88 106.671 584.617C107.066 582.392 110.415 566.77 108.92 565.873C94.0263 556.902 97.7348 575.909 94.8278 585.945C94.2297 558.768 103.668 517.943 111.624 492.081Z" fill="#534C8A"/>
<path d="M111.625 492.081L115.932 478.84C121.961 482.632 124.593 484.94 129.952 489.665L127.452 498.349C120.334 500.072 117.188 496.16 111.625 492.081Z" fill="#766CB5"/>
<path d="M94.8397 585.945C97.7467 575.909 94.0382 556.902 108.932 565.873C110.427 566.77 107.078 582.404 106.683 584.617C107.257 584.868 108.465 585.479 109.004 585.574C109.614 592.991 108.836 598.577 108.944 605.586C106.791 614.354 107.724 619.426 106.611 627.572L106.288 625.419C105.666 636.591 106.336 644.534 107.963 655.67C108.513 659.402 110.009 666.292 109.949 669.51C110.32 673.086 110.882 676.711 111.396 680.263C109.721 682.62 110.403 681.83 106.97 683.098C105.008 681.4 104.219 675.658 103.585 672.751L101.706 671.914C96.8734 653.995 90.8441 603.732 94.8397 585.957V585.945Z" fill="#8662ED"/>
<path d="M101.707 671.902L103.585 672.739C104.219 675.646 105.009 681.387 106.971 683.086C110.392 681.83 109.722 682.608 111.397 680.251C110.883 676.687 110.332 673.062 109.95 669.498C111.816 678.289 113.885 687.045 116.122 695.754C119.663 692.907 118.838 692.5 118.682 688.325L122.846 690.144L126.542 704.749C121.853 710.323 122.331 710.574 121.948 717.955C125.142 727.249 134.282 745.323 133.732 753.505C124.688 740.825 102.413 687.189 101.695 671.914L101.707 671.902Z" fill="#9795F6"/>
<path d="M118.695 688.313L122.858 690.132L126.554 704.737C121.865 710.311 122.343 710.562 121.961 717.943C119.604 711.507 116.996 702.524 116.135 695.754C119.676 692.907 118.85 692.5 118.695 688.325V688.313Z" fill="#8662ED"/>
<path d="M411.532 243.026C447.72 240.048 489.553 247.99 521.135 266.268C523.157 268.349 524.748 269.809 526.148 272.392C523.073 272.847 509.663 266.878 503.885 265.215C500.057 264.857 498.837 264.282 495.236 262.895C483.811 261.878 459.658 258.876 449.083 259.33C391.889 261.806 334.862 279.366 285.408 307.979C267.763 318.194 254.185 330.79 238.394 341.364C228.764 341.926 229.685 346.005 224.278 348.971C224.182 347.859 223.871 347.357 223.453 346.316C218.727 343.672 211.645 342.392 206.238 341.113C226.91 319.821 261.877 298.433 287.621 284.211L281.879 281.95C274.989 285.921 249.603 301.077 243.407 303.05C267.727 282.859 327.84 258.254 358.776 251.304C370.021 248.565 378.156 247.022 389.592 245.251C397.045 244.294 404.007 243.302 411.532 243.014V243.026Z" fill="#6749CF"/>
<path d="M411.531 243.026C447.719 240.048 489.553 247.99 521.135 266.268C523.156 268.349 524.747 269.809 526.147 272.392C523.073 272.847 509.662 266.878 503.884 265.215C500.056 264.857 498.836 264.282 495.235 262.895C466.644 249.653 436.019 265.096 411.483 248.266C403.277 248.935 395.094 249.868 386.948 251.089C385.895 249.904 386.254 250.287 385.775 248.612L389.58 245.251C397.032 244.294 403.995 243.302 411.519 243.014L411.531 243.026Z" fill="url(#paint2_linear_24_470)"/>
<path d="M411.484 248.278C420.074 248.002 436.989 248.971 443.868 248.302C459.814 249.641 490.606 255.933 503.885 265.215C500.057 264.857 498.837 264.282 495.236 262.895C466.645 249.653 436.02 265.096 411.484 248.266V248.278Z" fill="#BCB2F1"/>
<path d="M389.592 245.263C397.044 244.306 404.007 243.313 411.531 243.026C412.022 244.581 412.094 246.017 413.409 246.364C422.98 248.876 433.842 246.041 443.867 248.301C436.988 248.971 420.073 248.002 411.483 248.278C403.277 248.947 395.094 249.88 386.948 251.101C385.895 249.916 386.254 250.299 385.775 248.624L389.58 245.263H389.592Z" fill="#D7CCFE"/>
<path d="M243.406 303.05C267.727 282.859 327.84 258.254 358.776 251.304L361.192 256.818C351.969 259.139 324.466 269.677 319.25 270.06C314.405 272.081 289.858 283.553 287.633 284.211L281.891 281.95C275 285.921 249.615 301.077 243.418 303.05H243.406Z" fill="#9B57FA"/>
<path d="M281.879 281.962C290.612 278.146 310.817 266.34 319.239 270.072C314.394 272.093 289.846 283.565 287.621 284.223L281.879 281.962Z" fill="#BCB2F1"/>
<path d="M358.775 251.316C370.02 248.577 378.155 247.034 389.592 245.263L385.787 248.624C386.266 250.299 385.907 249.916 386.96 251.101C378.849 253.29 368.477 254.474 361.204 256.83L358.787 251.316H358.775Z" fill="#BCB2F1"/>
<path d="M206.239 341.124C211.646 342.404 218.716 343.684 223.453 346.328C223.872 347.38 224.183 347.871 224.279 348.983C190.532 379.019 159.632 424.043 140.168 464.605C135.538 462.799 128.72 460.897 123.791 459.378C146.293 408.194 166.091 379.557 206.251 341.124H206.239Z" fill="#534C8A"/>
<path d="M224.278 348.995C229.673 346.029 228.752 341.95 238.394 341.388C190.435 384.103 153.278 435.048 132.307 496.077C129.831 503.278 123.036 523.397 122.881 530.311C125.214 531.854 124.436 531.388 127.702 531.412C126.793 535.718 125.441 543.122 124.029 547.034C116.134 547.201 116.206 560.024 111.301 566.89C112.282 549.091 121.529 515.179 127.451 498.361L129.951 489.677C124.591 484.952 121.96 482.644 115.93 478.852L120.189 467.835L123.778 459.39C128.707 460.909 135.525 462.811 140.155 464.617C159.619 424.055 190.518 379.031 224.266 348.995H224.278Z" fill="#8662ED"/>
<path d="M123.779 459.378C128.708 460.897 135.527 462.799 140.156 464.605L137.632 470.766C135.395 475.981 131.459 484.534 129.952 489.665C124.593 484.94 121.961 482.632 115.932 478.84L120.19 467.823L123.779 459.378Z" fill="#534C8A"/>
<path d="M123.778 459.378C128.707 460.897 135.526 462.799 140.155 464.605L137.631 470.766C130.346 470.598 126.996 470.359 120.189 467.823L123.778 459.378Z" fill="#766CB5"/>
<path d="M537.094 275.383C547.418 281.854 556.88 288.242 565.96 296.495C564.453 296.459 562.383 295.431 560.9 294.797C555.66 291.304 538.469 280.347 537.094 275.383Z" fill="#FEFEFE"/>
<path d="M111.302 566.878C116.207 560.012 116.135 547.189 124.031 547.022C114.365 597.022 112.666 639.617 122.858 690.132L118.695 688.313C118.851 692.488 119.676 692.907 116.135 695.742C113.886 687.034 111.829 678.278 109.962 669.486C110.022 666.268 108.527 659.378 107.977 655.646C106.35 644.51 105.68 636.567 106.302 625.395L106.625 627.548C107.725 619.402 106.792 614.33 108.958 605.562C108.85 598.553 109.627 592.967 109.017 585.55C109.077 580.239 110.25 572.022 111.326 566.854L111.302 566.878Z" fill="#9B57FA"/>
<path d="M109.962 669.498C110.022 666.28 108.527 659.39 107.977 655.658C106.35 644.522 105.68 636.579 106.302 625.407L106.625 627.56C107.725 619.414 106.792 614.342 108.958 605.574C109.017 626.495 109.783 670.586 118.707 688.313C118.863 692.488 119.688 692.907 116.147 695.742C113.898 687.034 111.841 678.278 109.974 669.486L109.962 669.498Z" fill="#7E4FF6"/>
<path d="M126.555 704.737C127.679 709.665 131.794 721.137 131.388 724.306L130.897 724.976C129.462 726.938 128.732 727.739 128.313 730.204C132.034 742.333 137.07 740.419 142.956 748.457C147.884 755.204 153.016 763.864 157.861 770.957C179.825 803.062 203.966 816.029 236.924 833.613C207.363 828.409 160.098 792.512 141.855 767.847C141.963 763.696 136.4 756.878 133.744 753.481C134.295 745.299 125.155 727.225 121.961 717.931C122.344 710.55 121.865 710.299 126.555 704.725V704.737Z" fill="#6749CF"/>
<path d="M560.912 294.797C562.395 295.419 564.465 296.459 565.972 296.495C594.396 316.388 632.138 380.191 632.366 414.88C614.218 359.354 600.784 338.158 556.198 300.431L556.665 299.27L555.564 297.237L556.689 295.562L560.912 294.785V294.797Z" fill="#6749CF"/>
<path d="M434.308 276.34C435.014 276.244 435.6 276.16 436.33 276.112C554.666 269.713 625.737 352.464 633.082 465.168C638.645 559.402 606.704 651.998 544.222 722.751C490.007 784.581 409.282 829.928 326.535 835.407C325.411 835.55 324.286 835.67 323.162 835.766C211.501 844.498 136.542 764.139 128.336 656.651C120.105 559.701 150.778 463.469 213.582 389.163C269.533 324.067 348.798 283.553 434.32 276.352L434.308 276.34Z" fill="url(#paint3_linear_24_470)"/>
<path d="M398.936 376.28C399.092 376.244 399.247 376.208 399.403 376.184C422.371 373.397 445.735 380.49 464.193 393.553C495.117 415.419 508.695 453.624 514.64 489.414C524.57 549.246 510.812 618.134 474.936 667.356C447.577 704.892 414.117 726.794 368.287 734.27C199.169 755.443 201.717 401.148 398.936 376.28Z" fill="#FEFEFE"/>
<path d="M259.569 637.081C237.462 546.974 271.077 426.77 364.34 391.962C385.346 384.127 403.506 381.101 425.529 385.622C455.03 391.136 472.687 407.919 486.504 433.636C489.59 440.706 495.033 454.498 497.438 461.95L499.531 468.78C500.273 472.237 502.426 481.232 502.773 484.39C508.97 517.117 508.384 550.778 501.05 583.278C499.4 589.857 497.521 598.242 495.416 604.534C482.054 650.491 456.537 683.098 416.27 708.325C389.509 722.572 365.273 730.024 334.66 726.316C324.539 726.591 305.889 716.926 297.671 710.263C276.305 692.931 262.464 664.091 259.545 637.093L259.569 637.081Z" fill="black"/>
<path d="M494.267 588.05C495.619 582.979 496.624 583.457 501.062 583.266C499.411 589.845 497.533 598.23 495.427 604.522C482.065 650.479 456.548 683.086 416.281 708.314C389.521 722.56 365.284 730.012 334.671 726.304C324.551 726.579 305.901 716.914 297.682 710.251C276.317 692.919 262.476 664.079 259.557 637.081C265.347 654.868 279.044 685.837 296.079 695.084C309.178 708.648 313.294 705.132 330.807 708.624C335.317 708.577 340.772 707.979 345.342 707.608L356.372 705.227C364.447 704.187 378.479 700.347 384.735 695.108C406.95 685.574 425.469 668.601 440.662 650.191C449.705 637.452 455.256 627.979 463.128 614.45C465.257 609.282 467.446 604.139 469.671 599.007C470.688 596.77 472.375 591.435 473.26 588.888C478.261 591.723 483.453 594.569 488.393 597.476L491.647 585.526L494.255 588.062L494.267 588.05Z" fill="#7E4FF6"/>
<path d="M384.736 695.096C406.95 685.562 425.469 668.589 440.662 650.179C441.942 655.156 444.394 668.17 447.995 670.61C427.718 693.11 392.906 715.036 362.21 716.806C361.241 716.866 360.272 716.89 359.303 716.878C354.577 713.9 349.912 710.801 345.33 707.596L356.36 705.215C364.435 704.175 378.467 700.335 384.724 695.096H384.736Z" fill="#6749CF"/>
<path d="M473.272 588.876C478.273 591.711 483.465 594.557 488.405 597.464L485.283 607.608C475.449 631.22 465.927 651.591 448.019 670.61C444.418 668.17 441.966 655.144 440.686 650.179C449.729 637.44 455.28 627.967 463.152 614.438C465.281 609.27 467.47 604.127 469.695 598.995C470.712 596.758 472.399 591.423 473.284 588.876H473.272Z" fill="#534C8A"/>
<path d="M473.272 588.876C478.273 591.711 483.465 594.557 488.405 597.464L485.283 607.608C483.632 605.598 473.799 601.412 469.684 598.995C470.7 596.758 472.387 591.423 473.272 588.876Z" fill="#766CB5"/>
<path d="M463.127 614.45C468.702 614.581 473.714 620.156 477.47 624.091L477.889 624.534C473.57 623.505 464.874 618.565 463.127 614.45Z" fill="#474374"/>
<path d="M490.869 602.727L493.681 598.72C494.422 600.849 494.889 602.333 495.415 604.522C482.053 650.479 456.536 683.086 416.269 708.314L415.994 701.352C461.07 672.883 472.028 650.227 490.857 602.727H490.869Z" fill="url(#paint4_linear_24_470)"/>
<path d="M334.672 726.292C335.426 725.168 338.129 720.933 339.613 720.754C347.867 719.761 358.023 721.304 366.098 719.892C384.006 716.759 400.204 709.904 416.007 701.34L416.282 708.302C389.521 722.548 365.285 730 334.672 726.292Z" fill="#3A209A"/>
<path d="M330.807 708.624C335.317 708.577 340.772 707.978 345.341 707.608C349.923 710.813 354.577 713.912 359.314 716.89C350.856 717.644 345.21 716.818 336.86 715.61C334.336 713.313 332.888 711.304 330.807 708.624Z" fill="#8662ED"/>
<path d="M494.266 588.05C495.618 582.979 496.623 583.457 501.061 583.266C499.41 589.845 497.532 598.23 495.427 604.522C494.888 602.333 494.434 600.849 493.692 598.72L490.881 602.727C491.934 597.823 493.07 592.931 494.278 588.062L494.266 588.05Z" fill="#6749CF"/>
<path d="M481.083 462.739C485.761 461.328 484.756 463.409 491.036 459.904L497.448 461.95L499.542 468.78C500.283 472.237 502.437 481.232 502.784 484.39C508.98 517.117 508.394 550.777 501.061 583.277C496.623 583.469 495.618 583.002 494.266 588.062L491.658 585.526L488.404 597.476C483.464 594.569 478.272 591.722 473.271 588.888C478.344 574.892 481.406 557.452 483.368 542.739C484.146 538.194 484.744 528.612 485.21 523.648C484.493 508.218 485.617 495.837 483.739 480.012L481.083 462.739Z" fill="#9B57FA"/>
<path d="M483.356 542.727C490.893 546.962 495.116 549.797 496.515 558.66C494.816 567.596 493.202 576.555 491.658 585.514L488.404 597.464C483.464 594.557 478.272 591.711 473.271 588.876C478.344 574.88 481.406 557.44 483.368 542.727H483.356Z" fill="#534C8A"/>
<path d="M502.772 484.378C508.969 517.105 508.382 550.766 501.049 583.266C496.611 583.457 495.606 582.99 494.254 588.05L491.646 585.514C493.19 576.555 494.817 567.596 496.503 558.66C497.329 551.782 498.13 544.904 498.884 538.014C500.343 533.696 500.547 523.122 500.236 518.361C500.272 511.555 500.331 502.404 501.085 495.742C501.707 490.227 502.736 491.579 502.772 484.378Z" fill="url(#paint5_linear_24_470)"/>
<path d="M485.211 523.636C487.532 526.95 485.929 527.117 488.071 528.959C491.217 531.663 495.129 529.785 497.808 532.369L498.909 538.026C498.155 544.916 497.354 551.794 496.528 558.672C495.129 549.797 490.906 546.974 483.369 542.739C484.147 538.194 484.745 528.613 485.211 523.648V523.636Z" fill="#6749CF"/>
<path d="M481.084 462.739C485.761 461.328 484.757 463.409 491.037 459.904L497.449 461.95L499.543 468.78L495.894 467.703L494.076 468.78C493.31 472.033 493.992 474.976 494.482 478.289L483.752 480L481.096 462.727L481.084 462.739Z" fill="#8662ED"/>
<path d="M494.47 478.29C493.979 474.976 493.297 472.034 494.063 468.78L495.881 467.703L499.53 468.78C500.272 472.237 502.425 481.232 502.772 484.39C502.736 491.591 501.707 490.239 501.085 495.754C500.331 502.428 500.283 511.567 500.236 518.373C497.484 509.952 499.649 496.842 498.86 487.225C498.561 491.208 498.357 495.718 497.58 499.593C496.467 492.5 495.427 485.407 494.458 478.301L494.47 478.29Z" fill="#7E4FF6"/>
<path d="M460.363 416.854C464.718 417.309 478.93 432.596 480.138 437.404L481.466 437.56C484.026 434.33 482.841 434.976 486.502 433.624C489.588 440.694 495.031 454.486 497.436 461.938L491.024 459.892C484.755 463.397 485.748 461.316 481.071 462.727L483.727 480C485.605 495.825 484.48 508.206 485.198 523.636C484.72 528.601 484.121 538.182 483.356 542.727C481.394 557.44 478.331 574.88 473.259 588.876C472.374 591.423 470.687 596.758 469.67 598.995C467.445 604.127 465.268 609.27 463.127 614.438C455.255 627.967 449.704 637.44 440.66 650.179C425.468 668.589 406.949 685.562 384.734 695.096C385.297 689.522 387.629 688.553 391.637 685C423.661 662.943 441.964 642.656 458.82 607.01C482.722 556.447 486.466 484.474 466.692 431.687C464.933 428.959 461.727 420.287 460.363 416.854Z" fill="#FEFEFE"/>
<path d="M460.363 416.854C464.718 417.309 478.93 432.596 480.138 437.404L481.466 437.56C484.026 434.33 482.841 434.976 486.502 433.624C489.588 440.694 495.032 454.486 497.436 461.938L491.024 459.892C484.755 463.397 485.748 461.316 481.071 462.727C479.504 456.208 474.946 434.761 469.599 430.861L466.692 431.687C464.933 428.959 461.727 420.287 460.363 416.854Z" fill="#9795F6"/>
<path d="M425.529 385.61C455.03 391.124 472.687 407.907 486.504 433.624C482.843 434.976 484.027 434.33 481.467 437.56L480.139 437.404C478.919 432.596 464.707 417.309 460.365 416.854C449.168 397.261 444.921 395.861 425.529 385.61Z" fill="#6749CF"/>
<path d="M296.078 695.084C317.767 702.775 327.624 703.648 350.485 700.55C354.253 702.584 354.935 702.093 356.371 705.227L345.341 707.608C340.771 707.99 335.316 708.588 330.806 708.624C313.293 705.132 309.177 708.648 296.078 695.084Z" fill="#FEFEFE"/>
<path d="M350.486 700.538C367.916 696.196 375.548 692.476 391.638 685C387.631 688.553 385.31 689.533 384.736 695.096C378.479 700.335 364.447 704.175 356.372 705.215C354.936 702.081 354.255 702.572 350.486 700.538Z" fill="#7E4FF6"/>
<path d="M675.085 191.447C675.575 190.909 676.174 190.263 676.879 189.498C714.203 178.923 772.355 164.581 808.255 155.467C814.476 159.115 821.845 164.354 827.946 168.457C828.448 168.983 829.07 169.629 829.812 170.407C830.446 265.73 827.946 361.447 827.599 456.818C827.587 460.227 827.132 465.467 826.857 467.189C827.204 480.849 825.804 558.002 827.455 564.354C893.047 546.053 960.087 529.258 1025.99 511.806L1047.39 526.543C1049.33 529.641 1047.67 551.663 1047.42 557.081C1047.45 570.682 1048.3 608.038 1046.61 620.084C1046.81 629.175 1046.82 638.266 1046.65 647.357C999.11 659.151 949.895 673.325 902.39 686.16C834.86 704.115 767.474 722.62 700.243 741.687L692.993 743.708L689.967 741.507C686.222 737.811 676.724 731.758 671.975 728.553L675.085 191.471V191.447Z" fill="url(#paint6_linear_24_470)"/>
<path d="M675.085 191.447C675.575 190.909 676.174 190.263 676.879 189.498C714.203 178.923 772.355 164.581 808.255 155.467C814.476 159.115 821.845 164.354 827.946 168.457L827.85 169.569C826.63 174.318 825.888 175.239 823.065 179.318L824.883 179.402C823.089 184.773 822.311 186.615 819.536 191.531C785.262 199.833 750.235 209.234 716.058 218.158L711.093 731.364L924.198 673.732C958.257 664.593 1007.76 652.871 1040.32 642.093C1040.49 638.373 1041.12 615.55 1041.92 613.72L1042.31 626.268L1043.78 626.962C1045.68 623.337 1045.6 615.287 1045.84 610.813L1046.61 620.072C1046.81 629.163 1046.82 638.254 1046.65 647.345C999.11 659.139 949.895 673.313 902.39 686.148C834.86 704.103 767.474 722.608 700.243 741.675L692.993 743.696L689.967 741.495C686.222 737.799 676.724 731.746 671.975 728.541L675.085 191.459V191.447Z" fill="#FEFEFE"/>
<path d="M681.832 194.486L685.887 192.656C691.211 197.38 698.723 199.94 700.35 203.481L700.004 205.682L701.726 205.766C702.899 206.914 705.363 209.187 706.14 210.467C704.992 214.593 705.088 219.892 704.956 224.27C704.741 270.538 705.303 320.849 703.616 366.854L701.714 372.237L699.968 372.955L698.089 371.435C696.654 385.526 696.893 428.792 697.898 443.242C699.082 456.435 694.261 462.38 694.477 473.182C695.051 503.17 696.522 535.467 696.032 565.299C695.721 584.629 694.692 603.935 694.895 623.278C694.931 625.873 695.039 628.505 694.704 631.077L698.939 631.471C702.037 637.201 699.944 645 700.566 651.89L700.326 712.632C700.183 717.261 698.891 738.935 700.243 741.687L692.993 743.708L689.967 741.507C686.222 737.811 676.724 731.758 671.975 728.553L675.085 191.471C677.095 192.345 680.002 193.481 681.832 194.522V194.486Z" fill="#7E4FF6"/>
<path d="M679.678 487.249C680.037 490.873 680.037 499.701 680.862 502.213C681.448 494.091 681.125 463.062 683.793 458.768C687.346 460.395 690.121 461.184 691.88 464.617C693.615 475.203 690.863 491.423 691.09 502.739C691.33 514.665 692.442 526.4 692.598 538.242C692.753 590.359 692.562 642.476 692.012 694.581C691.94 699.964 692.071 732.512 691.007 736.029C690.361 732.069 681.293 727.297 677.848 725.036C679.223 706.974 678.434 677.273 678.434 658.481L679.367 552.907C679.499 532.069 678.553 507.763 679.678 487.249Z" fill="#9795F6"/>
<path d="M675.085 191.447C677.095 192.321 680.002 193.457 681.832 194.498L681.724 195.538C679.212 228.014 680.636 278.553 680.42 312.404L680.444 337.679L680.468 345.156V355.144C679.404 380.61 679.308 410.048 679.715 435.622C679.116 452.428 679.547 470.371 679.679 487.273C678.554 507.787 679.499 532.105 679.368 552.931L678.435 658.505C678.435 677.297 679.224 706.998 677.848 725.06C681.294 727.309 690.361 732.093 691.007 736.053L689.967 741.507C686.222 737.811 676.724 731.758 671.975 728.553L675.085 191.471V191.447Z" fill="#FEFEFE"/>
<path d="M681.725 195.526L696.008 206.244L695.207 298.66C687.347 303.349 686.378 305.072 680.421 312.392C680.636 278.553 679.213 228.002 681.725 195.526Z" fill="#534C8A"/>
<path d="M694.19 347.62C695.398 357.62 694.632 432.428 692.862 441.423C688.495 442.955 687.466 443.086 682.825 443.421C679.583 441.507 679.954 439.45 679.715 435.598C679.308 410.024 679.404 380.586 680.468 355.12C685.421 352.644 689.548 350.682 694.19 347.608V347.62Z" fill="#534C8A"/>
<path d="M698.09 371.423C699.31 350.945 695.984 221.555 702.361 214.151C705.04 216.806 704.729 220.395 704.956 224.258C704.741 270.526 705.303 320.837 703.617 366.842L701.715 372.225L699.968 372.943L698.09 371.423Z" fill="#3A209A"/>
<path d="M694.703 631.065L698.938 631.459C702.036 637.189 699.943 644.988 700.565 651.878L700.326 712.62L699.237 705.873L697.849 705.048L694.859 706.615C696.198 688.325 694.859 650.443 694.703 631.065Z" fill="url(#paint7_linear_24_470)"/>
<path d="M680.42 312.392C686.377 305.072 687.346 303.349 695.206 298.66L695.05 320.981C691.186 326.256 686.449 333.612 681.233 337.117L680.444 337.656L680.42 312.38V312.392Z" fill="#766CB5"/>
<path d="M694.858 706.615L697.849 705.048L699.237 705.873L700.325 712.62C700.182 717.249 698.89 738.923 700.242 741.675L692.992 743.696C694.727 735.203 694.595 716.543 694.858 706.627V706.615Z" fill="#8662ED"/>
<path d="M695.05 320.981C695.361 338.05 696.988 339.51 680.467 345.132L680.443 337.656L681.233 337.117C686.449 333.613 691.186 326.244 695.05 320.981Z" fill="#474374"/>
<path d="M675.084 191.447C675.574 190.909 676.173 190.263 676.878 189.498C714.202 178.923 772.354 164.581 808.254 155.467C814.475 159.115 821.844 164.354 827.945 168.457L827.849 169.569C826.629 174.318 825.887 175.239 823.064 179.318L820.193 180C787.319 190.538 752.4 197.931 719.083 207.213C715.028 208.337 710.207 209.641 706.139 210.467C705.362 209.187 702.898 206.926 701.725 205.766L700.003 205.682L700.349 203.481C698.722 199.94 691.21 197.392 685.886 192.656L681.831 194.486C680.001 193.457 677.094 192.309 675.084 191.435V191.447Z" fill="#6749CF"/>
<path d="M675.084 191.447C675.574 190.909 676.173 190.263 676.878 189.498C714.202 178.923 772.354 164.581 808.254 155.467C814.475 159.115 821.844 164.354 827.945 168.457L827.849 169.569L818.769 171.818C785.118 178.349 790.381 183.421 755.893 174.88C732.505 180.574 709.154 187.141 685.886 192.668L681.831 194.498C680.001 193.469 677.094 192.321 675.084 191.447Z" fill="url(#paint8_linear_24_470)"/>
<path d="M755.893 174.868C772.736 170.299 790.034 166.148 806.746 161.328L818.769 171.806C785.118 178.337 790.381 183.409 755.893 174.868Z" fill="url(#paint9_linear_24_470)"/>
<path d="M701.727 205.766L778.42 185.622C786.639 183.457 807.561 177.153 814.739 176.053C818.83 177.404 817.455 176.579 820.194 180C787.32 190.538 752.401 197.931 719.085 207.213C715.029 208.337 710.208 209.641 706.141 210.466C705.363 209.187 702.899 206.926 701.727 205.766Z" fill="#3A209A"/>
<path d="M697.897 443.218L702.778 443.672L702.395 510.479C700.792 524.366 703.125 544.235 699.632 557.703C699.273 559.079 696.916 560.311 696.031 565.275C696.521 535.443 695.05 503.146 694.476 473.158C694.26 462.357 699.081 456.412 697.897 443.218Z" fill="#9B57FA"/>
<path d="M696.031 565.287C696.916 560.323 699.273 559.091 699.632 557.715C703.125 544.246 700.792 524.39 702.395 510.49C704.046 539.641 701.235 573.9 700.816 603.337C700.649 615.407 701.929 641.818 700.565 651.878C699.943 644.988 702.036 637.201 698.938 631.459L694.703 631.065C695.038 628.493 694.93 625.861 694.895 623.266C694.691 603.923 695.72 584.617 696.031 565.287Z" fill="#D7CCFE"/>
<path d="M703.616 366.842C703.712 392.452 703.436 418.074 702.778 443.672L697.898 443.218C696.893 428.78 696.654 385.502 698.089 371.412L699.967 372.931L701.714 372.213L703.616 366.83V366.842Z" fill="#6749CF"/>
<path d="M827.455 564.33C893.047 546.029 960.086 529.235 1025.99 511.782L1047.39 526.519C1049.33 529.617 1047.67 551.639 1047.41 557.057L1043.07 558.612L1041.37 557.249C1040.9 553.983 1041.15 549.653 1041.22 546.268C1034.63 548.923 1021.4 551.938 1014.13 553.804L967.324 566.041L871.43 591.758C862.338 594.175 830.182 603.361 822.072 603.349C821.019 599.988 822.072 598.266 822.945 594.402L822.06 593.983C823.519 578.959 822.371 557.859 823.088 541.746C823.1 546.316 822.598 561.112 824.596 564.51L826.809 565.132L827.455 564.33Z" fill="#BCB2F1"/>
<path d="M1034.97 537.835C1040.11 536.842 1039.65 536.16 1044.04 537.584C1045.29 541.447 1043.5 543.11 1041.22 546.268C1034.63 548.924 1021.4 551.938 1014.13 553.804L967.324 566.041L871.43 591.758C862.338 594.175 830.182 603.361 822.072 603.349C821.019 599.988 822.072 598.266 822.945 594.402C841.714 590.933 879.995 579.45 900.5 573.9C944.87 561.878 990.927 550.443 1034.97 537.835Z" fill="#FEFEFE"/>
<path d="M827.455 564.33C893.047 546.029 960.086 529.235 1025.99 511.782L1047.39 526.519L1039.71 528.493C1035.57 527.022 1027.92 520.957 1024.05 518.098C1012.56 522.237 999.252 525.048 987.302 528.158L924.652 544.629L854.586 563.23C849.263 564.641 832.969 569.713 828.962 569.809C828.101 568.923 827.718 568.696 827.179 567.596L826.809 565.12L827.455 564.318V564.33Z" fill="#FEFEFE"/>
<path d="M822.945 594.402C823.352 592.596 824.393 589.689 826.008 588.684C834.346 583.493 1029.99 533.517 1032.19 534.055C1032.94 534.235 1034.47 537.057 1034.97 537.835C990.927 550.443 944.87 561.878 900.5 573.9C879.996 579.45 841.715 590.933 822.945 594.402Z" fill="#3A209A"/>
<path d="M1039.71 528.505L1047.39 526.531C1049.33 529.629 1047.67 551.651 1047.41 557.069L1043.07 558.624L1041.37 557.261C1040.89 553.995 1041.15 549.665 1041.22 546.28C1043.5 543.122 1045.28 541.459 1044.04 537.596C1039.65 536.172 1040.1 536.854 1034.97 537.847C1034.47 537.069 1032.94 534.246 1032.19 534.067C1029.98 533.529 834.344 583.505 826.006 588.696C824.391 589.701 823.351 592.608 822.944 594.414L822.059 593.995C823.518 578.971 822.37 557.871 823.087 541.758C823.099 546.328 822.597 561.124 824.595 564.522L826.808 565.144L827.179 567.62L827.035 583.433C872.123 571.89 917.139 560.036 962.083 547.883C987.504 541.148 1014.04 533.756 1039.71 528.505Z" fill="#6749CF"/>
<path d="M827.946 168.445C828.448 168.971 829.07 169.617 829.812 170.395C830.446 265.718 827.946 361.436 827.599 456.806C827.587 460.215 827.132 465.455 826.857 467.177C827.204 480.837 825.805 557.991 827.455 564.342L826.809 565.144L824.596 564.522C822.598 561.124 823.101 546.328 823.089 541.758C822.371 557.859 823.52 578.971 822.06 593.995L819.464 593.816C815.768 588.517 818.735 230.443 819.536 191.543C822.311 186.627 823.089 184.773 824.883 179.414L823.065 179.33C825.888 175.251 826.63 174.33 827.85 169.581L827.946 168.469V168.445Z" fill="#BCB2F1"/>
<path d="M827.946 168.445C828.448 168.971 829.07 169.617 829.812 170.395C830.446 265.718 827.946 361.436 827.599 456.806C827.587 460.215 827.132 465.455 826.857 467.177C827.204 480.837 825.804 557.991 827.455 564.342L826.809 565.144L824.596 564.522C822.598 561.124 823.101 546.328 823.089 541.758L823.376 467.871C823.448 453.278 823.125 435.06 824.369 420.79C823.603 415.646 824.249 375.419 824.285 367.751L825.541 226.914C825.613 218.636 826.367 185.598 824.883 179.414L823.065 179.33C825.888 175.251 826.63 174.33 827.85 169.581L827.946 168.469V168.445Z" fill="#3A209A"/>
</g>
<defs>
<linearGradient id="paint0_linear_24_470" x1="171.235" y1="418.445" x2="392.56" y2="553.738" gradientUnits="userSpaceOnUse">
<stop stop-color="#261A6C"/>
<stop offset="1" stop-color="#483198"/>
</linearGradient>
<linearGradient id="paint1_linear_24_470" x1="237.449" y1="529.857" x2="101.541" y2="503.584" gradientUnits="userSpaceOnUse">
<stop stop-color="#F8EEFE"/>
<stop offset="1" stop-color="white"/>
</linearGradient>
<linearGradient id="paint2_linear_24_470" x1="458.079" y1="246.136" x2="456.177" y2="259.091" gradientUnits="userSpaceOnUse">
<stop stop-color="#FDFEFD"/>
<stop offset="1" stop-color="#FAF1FE"/>
</linearGradient>
<linearGradient id="paint3_linear_24_470" x1="423.865" y1="818.11" x2="336.085" y2="292.318" gradientUnits="userSpaceOnUse">
<stop stop-color="#C89DFB"/>
<stop offset="1" stop-color="#ECF6F7"/>
</linearGradient>
<linearGradient id="paint4_linear_24_470" x1="436.726" y1="646.651" x2="472.35" y2="660.062" gradientUnits="userSpaceOnUse">
<stop stop-color="#2A137F"/>
<stop offset="1" stop-color="#543DAA"/>
</linearGradient>
<linearGradient id="paint5_linear_24_470" x1="485.115" y1="540.79" x2="514.208" y2="530.884" gradientUnits="userSpaceOnUse">
<stop stop-color="#8847F8"/>
<stop offset="1" stop-color="#AB5BFF"/>
</linearGradient>
<linearGradient id="paint6_linear_24_470" x1="869.552" y1="709.27" x2="808.421" y2="194.209" gradientUnits="userSpaceOnUse">
<stop stop-color="#CBA5FB"/>
<stop offset="1" stop-color="#EEFAF7"/>
</linearGradient>
<linearGradient id="paint7_linear_24_470" x1="693.327" y1="671.507" x2="699.572" y2="672.01" gradientUnits="userSpaceOnUse">
<stop stop-color="#8D7FFC"/>
<stop offset="1" stop-color="#A39DFF"/>
</linearGradient>
<linearGradient id="paint8_linear_24_470" x1="751.718" y1="189.868" x2="751.072" y2="158.349" gradientUnits="userSpaceOnUse">
<stop stop-color="#F5EDFC"/>
<stop offset="1" stop-color="white"/>
</linearGradient>
<linearGradient id="paint9_linear_24_470" x1="786.015" y1="175.072" x2="798.287" y2="158.91" gradientUnits="userSpaceOnUse">
<stop stop-color="#A0A0F4"/>
<stop offset="1" stop-color="#BCC2FB"/>
</linearGradient>
<clipPath id="clip0_24_470">
<rect width="1136" height="1000" fill="white"/>
</clipPath>
</defs>
</svg>
