<svg width="4891" height="1000" viewBox="0 0 4891 1000" fill="none" xmlns="http://www.w3.org/2000/svg">
<g clip-path="url(#clip0_24_708)">
<mask id="mask0_24_708" style="mask-type:luminance" maskUnits="userSpaceOnUse" x="0" y="0" width="4891" height="1000">
<path d="M4891 0H0V1000H4891V0Z" fill="white"/>
</mask>
<g mask="url(#mask0_24_708)">
<path d="M2509.01 312.571H1375.34C1311.19 312.571 1249.66 337.953 1204.26 383.14C1158.87 428.329 1133.32 489.629 1133.23 553.578C1133.2 603.567 1148.82 652.32 1177.93 693.029C1200.04 759.558 1122.96 811.933 1122.96 811.933C1187.35 807.955 1224.84 784.147 1246.76 757.862C1285.21 781.904 1329.69 794.633 1375.08 794.584H2509.01C2573.16 794.496 2634.65 769.033 2680 723.784C2725.32 678.535 2750.78 617.2 2750.78 553.251C2750.61 489.415 2725.07 428.249 2679.76 383.14C2634.45 338.031 2573.05 312.656 2509.01 312.571ZM1617.52 600.409C1599.76 616.542 1571.6 624.585 1533.04 624.542H1445.42V684.809H1359.05V431.673H1524.47C1566.52 431.673 1597.06 439.564 1616.08 455.349C1635.1 471.133 1644.54 495.244 1644.41 527.684C1644.19 560.122 1635.23 584.364 1617.52 600.409ZM1765.27 684.809H1687.53V491.94H1765.27V684.809ZM1726.4 473.611C1697.35 473.611 1682.82 461.262 1682.82 436.564C1682.82 423.062 1686.29 413.604 1693.36 408.191C1703.19 401.951 1714.78 399.067 1726.4 399.973C1741.97 399.973 1753.16 402.713 1760.1 408.191C1767.04 413.669 1770.44 423.062 1770.44 436.564C1770.44 461.262 1755.76 473.611 1726.4 473.611ZM1981.6 680.244C1981.6 680.244 1960.2 688.855 1910.53 688.855C1886.64 688.855 1869.65 683.831 1859.63 673.787C1849.49 663.742 1844.51 648.936 1844.51 629.435V551.947H1809.04V491.678H1832.02C1836.09 491.976 1840.16 490.996 1843.65 488.875C1846.67 486.273 1848.67 482.691 1849.29 478.764C1851.25 471.329 1854.13 455.544 1857.93 431.411H1922.71V491.678H1981.2V551.947H1922.71V611.367C1922.24 613.884 1922.4 616.478 1923.18 618.916C1923.98 621.353 1925.36 623.556 1927.22 625.325C1932.09 628.184 1937.75 629.46 1943.38 628.978C1956.24 628.402 1969.04 626.833 1981.66 624.282L1981.6 680.244ZM2251.59 564.927C2238.5 560.145 2225.15 556.116 2211.6 552.86C2193.24 549.009 2174.48 547.28 2155.71 547.707C2124.57 547.707 2109.02 560.056 2109.06 584.755V591.604C2108.64 596.813 2109.42 602.049 2111.37 606.904C2113.31 611.758 2116.35 616.098 2120.26 619.585C2127.79 625.651 2139.55 628.651 2155.71 628.651C2173.75 628.747 2191.75 627.022 2209.44 623.498C2223.81 620.669 2237.9 616.633 2251.59 611.433V667.395C2232.51 681.744 2200.57 688.918 2155.71 688.918H2149.64C2108.46 688.918 2078.44 680.093 2059.6 662.438C2040.75 644.784 2031.33 621.173 2031.33 591.604V584.755C2030.8 571.662 2033.11 558.609 2038.06 546.471C2043.02 534.333 2050.51 523.391 2060.06 514.376C2079.17 496.462 2109.02 487.482 2149.64 487.44H2155.71C2176.57 486.853 2197.42 489.047 2217.68 493.962C2229.81 496.82 2241.28 501.86 2251.59 508.833V564.927ZM2536.16 684.615H2458.43V576.145C2459.21 568.247 2456.85 560.358 2451.88 554.164C2445.97 549.296 2438.37 546.953 2430.74 547.642H2424.66C2408.83 547.642 2397.63 550.838 2390.95 557.1C2384.28 563.362 2381.08 573.796 2381.08 588.082V684.549H2303.15V411.582H2380.88V502.898C2395.54 492.549 2415.97 487.375 2442.19 487.375H2448.21C2506.66 487.375 2535.9 516.942 2535.9 576.08L2536.16 684.615Z" fill="#17173B"/>
<path d="M1524.52 500.562H1458.43C1454.85 500.211 1451.27 501.291 1448.48 503.562C1446.21 506.344 1445.13 509.905 1445.47 513.476V542.762C1445.13 546.333 1446.21 549.896 1448.48 552.676C1451.28 554.924 1454.85 556 1458.43 555.676H1524.52C1537.61 555.676 1546.7 553.525 1551.35 549.155C1553.9 546.22 1555.83 542.798 1557.01 539.098C1558.19 535.398 1558.6 531.495 1558.22 527.631C1558.63 523.824 1558.23 519.975 1557.05 516.333C1555.86 512.691 1553.92 509.34 1551.35 506.498C1546.64 502.584 1537.61 500.562 1524.52 500.562Z" fill="#17173B"/>
<path d="M3190.53 684.636V550.338C3190.61 549.098 3190.22 547.873 3189.48 546.882C3189.13 546.465 3188.71 546.131 3188.22 545.905C3187.73 545.678 3187.21 545.567 3186.66 545.576C3184.64 545.576 3182.93 547.142 3181.5 550.338L3136.55 684.636H3058.02L3009.66 550.338C3008.49 547.469 3006.78 546.033 3004.49 546.033C3002.2 546.033 3001.49 547.469 3001.49 550.338V684.636H2915.11V431.498H3032.57L3092.57 586.473C3092.8 587.573 3093.39 588.562 3094.26 589.275C3095.13 589.987 3096.22 590.38 3097.35 590.387C3099.35 590.387 3100.79 589.082 3101.66 586.473L3161.28 431.498H3276.77V684.636H3190.53Z" fill="#17173B"/>
<path d="M3336.14 661.931C3317.23 644.255 3307.81 620.709 3307.81 591.096V584.247C3307.3 571.156 3309.61 558.107 3314.55 545.973C3319.5 533.838 3326.99 522.895 3336.52 513.869C3355.72 495.955 3385.61 486.975 3426.17 486.931H3432.52C3472.83 486.931 3502.48 495.911 3521.5 513.869C3530.98 522.927 3538.41 533.884 3543.32 546.015C3548.23 558.147 3550.48 571.178 3549.98 584.247V591.096C3549.98 620.709 3540.56 644.255 3521.7 661.931C3502.87 679.605 3473.16 688.411 3432.52 688.411H3425.97C3384.88 688.411 3354.94 679.585 3336.14 661.931ZM3461.37 618.685C3465.03 615.116 3467.85 610.802 3469.67 606.04C3471.48 601.278 3472.25 596.18 3471.9 591.096V584.247C3472.17 579.216 3471.34 574.189 3469.48 569.505C3467.63 564.824 3464.76 560.596 3461.12 557.115C3453.12 550.224 3442.76 546.673 3432.19 547.2H3425.97C3415.28 546.72 3404.79 550.258 3396.59 557.115C3392.81 560.522 3389.85 564.724 3387.9 569.416C3385.95 574.111 3385.08 579.176 3385.34 584.247V591.096C3384.94 596.262 3385.74 601.449 3387.65 606.264C3389.55 611.078 3392.55 615.395 3396.39 618.882C3404.81 625.425 3415.32 628.715 3425.97 628.144H3432.52C3442.97 628.676 3453.26 625.305 3461.37 618.685Z" fill="#17173B"/>
<path d="M3813.78 575.704V684.173H3736.03V575.704C3736.81 567.805 3734.47 559.916 3729.51 553.722C3723.58 548.844 3715.96 546.5 3708.3 547.2H3702.27C3686.45 547.2 3675.2 550.396 3668.58 556.658C3661.98 562.918 3658.63 573.355 3658.63 587.704V684.107H3580.96V491.236H3658.7V502.455C3673.41 492.085 3693.83 486.931 3720.07 486.931H3726.09C3784.54 486.975 3813.78 516.565 3813.78 575.704Z" fill="#17173B"/>
<path d="M4038.66 575.638C4052.13 577.676 4064.69 583.673 4074.71 592.856C4082.15 601.253 4086.02 612.196 4085.51 623.382C4085.91 635.293 4083 647.08 4077.08 657.429C4071.44 666.605 4060.15 674.062 4043.18 679.802C4026.2 685.542 4001.84 688.411 3970.09 688.411H3961C3936.25 688.411 3912.84 687.367 3890.85 685.411C3876.53 684.584 3862.29 682.555 3848.31 679.345V619.535C3864.44 622.316 3880.73 624.102 3897.05 624.882C3924.75 627.035 3945.87 628.144 3960.6 628.144H3970.09C3992.76 628.144 4004.13 623.991 4004.18 615.685C4004.18 608.207 3992.66 604.467 3969.64 604.467H3943.45C3907.98 604.467 3882.58 600.315 3867.22 592.009C3851.78 583.66 3844.13 569.573 3844.13 549.809C3843.85 540.133 3846.34 530.578 3851.31 522.262C3856.29 513.947 3863.53 507.213 3872.2 502.847C3890.91 492.28 3920.42 486.975 3960.73 486.931H3970.09C3990.84 486.931 4011.06 487.975 4030.75 489.933C4050.44 491.889 4064.38 493.845 4072.42 495.542V555.809C4063.18 554.375 4047.18 552.591 4024.46 550.46C4001.73 548.331 3983.62 547.244 3970.09 547.2H3960.27C3950.05 546.796 3939.82 547.584 3929.78 549.547C3924.22 551.178 3921.4 553.787 3921.4 557.571C3921.4 561.353 3924.09 565.005 3929.58 567.027C3939.6 569.56 3949.95 570.573 3960.27 570.029H3970.09C3993.07 569.538 4016.06 571.418 4038.66 575.638Z" fill="#17173B"/>
<path d="M4166.93 673.875C4156.86 663.829 4151.81 649.045 4151.81 629.522V552.035H4116.4V491.767H4138.86C4142.93 492.064 4147 491.084 4150.5 488.962C4153.53 486.378 4155.53 482.787 4156.13 478.853C4158.13 471.416 4161.02 455.631 4164.77 431.498H4229.55V491.767H4307.68V552.035H4229.42V611.455C4228.95 613.971 4229.13 616.564 4229.92 618.998C4230.7 621.433 4232.08 623.636 4233.93 625.413C4238.82 628.295 4244.5 629.593 4250.15 629.131C4262.04 629.169 4273.93 628.58 4285.75 627.369C4293.23 626.749 4300.64 625.747 4308.01 624.369V676.027C4297.08 679.627 4285.86 682.355 4274.5 684.18C4255.79 687.553 4236.79 689.147 4217.77 688.942C4193.82 688.942 4176.88 683.92 4166.93 673.875Z" fill="#17173B"/>
<path d="M4416.46 603.807C4417.3 608.22 4419.28 612.34 4422.19 615.767C4425.1 619.195 4428.85 621.816 4433.08 623.375C4445.5 627.631 4458.63 629.535 4471.76 628.985C4499.57 629.08 4527.32 626.195 4554.52 620.375V676.338C4543.59 680.056 4524.96 689.384 4471.76 689.384H4465.66C4421.05 689.384 4388.74 680.687 4368.75 663.293C4348.77 645.9 4338.77 622.136 4338.72 592.002V585.153C4338.55 567.853 4343.44 550.876 4352.79 536.3C4362.77 520.924 4376.9 508.669 4393.55 500.949C4413.43 491.798 4435.16 487.335 4457.03 487.904H4463.12C4504.03 487.904 4533.1 497.6 4550.34 516.993C4567.65 536.145 4577.01 561.142 4576.5 586.915V604.135L4416.46 603.807ZM4441.92 543.344C4436.65 545.707 4431.94 549.153 4428.1 553.455C4425.54 556.145 4424.01 559.658 4423.79 563.369C4423.68 564.187 4423.75 565.022 4424.03 565.804C4424.3 566.587 4424.74 567.296 4425.34 567.878C4425.92 568.46 4426.65 568.896 4427.43 569.156C4428.21 569.415 4429.05 569.487 4429.86 569.369H4482.94C4489.88 569.369 4493.34 567.195 4493.34 562.847C4493.14 559.751 4492.28 556.735 4490.83 553.991C4489.37 551.249 4487.36 548.844 4484.9 546.931C4478.77 541.582 4470.79 538.8 4462.65 539.169C4455.63 539.051 4448.65 540.476 4442.25 543.344H4441.92Z" fill="#17173B"/>
<path d="M4685.4 491.627V508.847C4692.91 501.658 4701.81 496.085 4711.58 492.476C4721.43 489.14 4731.72 487.271 4742.12 486.931C4757.45 487.527 4772.33 492.285 4785.13 500.695V560.505C4776.87 551.7 4754.83 544.46 4742.12 544.46C4710.4 544.46 4702.01 554.765 4695.41 561.353C4688.8 567.942 4685.47 579.16 4685.47 594.944V684.498H4607.39V491.627H4685.4Z" fill="#17173B"/>
<path d="M861.618 717.582C861.398 717.449 861.156 717.362 860.903 717.325C860.649 717.289 860.391 717.304 860.143 717.369C859.896 717.433 859.665 717.547 859.463 717.704C859.261 717.862 859.092 718.056 858.969 718.28C857.271 721.169 855.821 724.156 853.972 726.896C852.123 729.635 850.225 732.375 848.127 735.015L841.781 742.735L834.985 750.056C825.786 759.593 815.753 768.293 805.006 776.055C794.529 783.922 783.435 790.935 771.827 797.024C766.082 800.011 760.185 802.7 754.389 805.44C748.343 807.631 742.498 810.42 736.401 812.015C717.823 817.631 697.911 817.055 679.689 810.371C650.11 799.564 610.037 781.782 594.347 762.905C585.953 752.945 582.505 738.949 578.858 724.256C574.76 707.871 570.163 689.393 557.472 674.053C549.894 664.484 540.401 656.593 529.597 650.882C518.792 645.171 506.911 641.765 494.715 640.882C485.487 640.431 476.269 641.924 467.66 645.262C459.05 648.6 451.245 653.709 444.748 660.256C434.355 670.895 426.481 683.715 421.701 697.778C416.919 711.844 415.353 726.795 417.117 741.538C419.093 760.469 425.188 778.744 434.974 795.085C444.759 811.429 458.001 825.449 473.778 836.171C513.751 863.215 561.32 871.035 603.191 871.035C676.793 871.035 726.059 852.307 747.245 841.151L766.731 831.189C772.876 827.305 779.024 823.471 784.918 819.336C796.469 810.805 807.299 801.344 817.297 791.045C827.108 780.785 836.017 769.704 843.928 757.925C852.134 746.371 858.332 733.525 862.267 719.924C862.432 719.516 862.458 719.065 862.342 718.642C862.223 718.22 861.969 717.847 861.618 717.582ZM495.964 803.996C484.878 796.542 475.556 786.765 468.652 775.351C461.749 763.935 457.427 751.155 455.99 737.904C454.807 728.862 455.663 719.671 458.498 711.002C461.334 702.335 466.076 694.405 472.38 687.798C474.84 685.242 477.796 683.213 481.069 681.833C484.342 680.455 487.864 679.756 491.416 679.78H492.817C499.497 680.564 505.948 682.684 511.786 686.013C517.626 689.342 522.73 693.811 526.794 699.155C533.737 707.522 536.786 719.724 540.283 734.018C544.681 751.151 549.678 771.075 563.769 787.958C577.858 804.842 600.144 818.291 623.128 829.396C623.357 829.471 623.552 829.625 623.675 829.833C623.799 830.038 623.844 830.284 623.803 830.52C623.759 830.756 623.632 830.971 623.444 831.12C623.255 831.271 623.019 831.349 622.779 831.34C582.905 833.829 533.837 829.795 495.964 803.996Z" fill="#17173B"/>
<path d="M288.37 632.525C291.168 597.662 301.31 505.322 332.789 420.949C376.41 304.005 447.162 192.987 472.695 188.405C490.683 185.167 384.404 395.051 417.232 411.287C442.814 423.938 476.193 312.522 560.586 195.578C636.684 90.0882 770.444 -11.815 775.79 -8.62742C781.137 -5.43982 677.457 114.892 624.443 216.895C590.115 282.838 591.615 321.487 608.854 335.831C626.091 350.176 682.703 289.462 742.113 243.691C805.97 194.433 872.875 179.739 877.022 183.924C879.97 187.16 819.061 212.711 763.25 269.589C746.311 286.873 691.697 335.882 705.738 351.571C722.276 369.998 823.558 388.227 793.679 394.504C787.034 395.947 715.881 391.564 709.036 391.265C651.124 388.775 530.756 416.965 446.213 475.438C361.669 533.909 281.924 711.867 288.37 632.525Z" fill="#17173B"/>
<path d="M608.941 973.113C494.817 973.113 384.091 914.94 325.732 826.185C315.901 829.836 305.491 831.693 295.002 831.664C267.671 831.664 241.637 816.722 221.752 789.578C205.04 767.056 195.644 739.98 194.818 711.98C194.818 658.04 227.697 627.309 284.758 627.309C287.291 627.309 289.838 627.409 292.404 627.609C310.091 563.409 375.198 415.933 603.744 370.062C690.386 352.68 777.926 369.265 844.032 415.535C910.137 461.804 952.458 535.318 966.2 627.907C977.091 701.273 952.958 776.529 898.195 839.782C827.194 921.962 716.268 973.113 608.941 973.113ZM334.725 768.411C336.557 768.413 338.383 768.613 340.172 769.009C343.841 769.789 347.298 771.356 350.301 773.6C353.303 775.845 355.78 778.715 357.56 782.007C402.529 865.233 505.859 923.307 609.09 923.307C700.879 923.307 799.662 877.685 860.771 807.109C892.699 770.204 928.376 710.436 917.183 635.08C905.49 556.336 870.364 494.427 815.701 456.127C761.038 417.825 687.288 404.029 614.037 418.773C409.824 459.713 354.661 589.058 340.421 642.9C338.972 648.327 337.723 654.056 336.723 659.933C336.096 663.629 334.666 667.144 332.535 670.233C330.403 673.322 327.621 675.907 324.383 677.813C321.159 679.738 317.552 680.938 313.813 681.325C310.075 681.713 306.299 681.278 302.746 680.055C297.086 678.111 291.146 677.1 285.158 677.065C251.63 677.065 245.185 689.916 245.185 711.931C245.185 741.815 270.169 781.658 295.151 781.658C303.768 781.68 312.141 778.822 318.935 773.54C323.488 770.145 329.039 768.342 334.725 768.411Z" fill="#17173B"/>
<path d="M496.316 471.52C523.531 483.978 551.641 494.4 580.409 502.698C608.115 510.556 636.597 515.384 665.352 517.093L676.045 517.691C679.642 517.94 683.191 517.691 686.787 517.691C693.933 518.038 701.078 517.442 708.273 517.342C722.613 516.595 736.954 515.249 751.394 513.207C781.009 508.545 810.273 501.889 838.985 493.285C815.604 514.449 787.904 530.318 757.79 539.804C742.596 544.673 726.993 548.173 711.171 550.264C695.242 552.189 679.171 552.673 663.154 551.707C631.124 549.78 599.762 541.749 570.765 528.049C542.083 514.889 516.664 495.587 496.316 471.52Z" fill="#17173B"/>
<path d="M510.129 541.024C509.969 540.942 509.789 540.906 509.607 540.916C509.427 540.929 509.255 540.989 509.105 541.091C508.956 541.193 508.84 541.333 508.764 541.496C508.689 541.66 508.66 541.842 508.68 542.02C511.327 581.367 568.639 656.076 653.583 664.942C759.81 676.049 835.71 590.233 843.004 538.833C843.043 538.644 843.024 538.447 842.952 538.267C842.879 538.087 842.757 537.933 842.597 537.822C842.439 537.711 842.252 537.649 842.057 537.642C841.863 537.636 841.672 537.687 841.506 537.787C829.564 544.162 759.161 579.773 677.816 576.785C584.58 573.349 520.722 545.856 510.129 541.024Z" fill="#17173B"/>
</g>
</g>
<defs>
<clipPath id="clip0_24_708">
<rect width="4891" height="1000" fill="white"/>
</clipPath>
</defs>
</svg>
