<svg width="8569" height="1000" viewBox="0 0 8569 1000" fill="none" xmlns="http://www.w3.org/2000/svg">
<g clip-path="url(#clip0_24_604)">
<path d="M1295.63 472.436C1364.18 442.731 1381.32 362.468 1378.47 276.492C1378.47 242.216 1379.61 204.799 1377.32 169.094C1379.04 199.086 1378.47 231.648 1377.32 257.926C1374.18 328.478 1349.33 391.031 1277.64 413.882C1271.07 415.881 1263.64 417.024 1257.36 419.023" fill="url(#paint0_linear_24_604)"/>
<path d="M1251.07 251.928C1253.93 195.373 1259.07 124.536 1182.52 123.679C1137.96 123.679 208.798 122.822 191.946 123.679C172.808 124.821 158.812 130.248 151.386 148.815C144.245 166.238 145.673 206.512 148.529 225.364C148.529 227.364 149.386 229.077 149.957 231.077C145.387 213.082 162.24 194.516 175.379 191.66C243.36 182.234 915.74 189.66 1182.81 189.089C1199.95 189.089 1217.65 192.516 1231.65 206.227C1245.93 219.652 1252.22 243.073 1250.22 265.067C1250.79 261.068 1251.07 256.784 1251.36 252.214L1251.07 251.928Z" fill="url(#paint1_linear_24_604)"/>
<path d="M501.572 499.286C510.427 491.574 514.711 479.292 515.568 465.01C516.711 446.73 517.568 405.027 509.57 389.317C500.144 371.037 476.722 369.609 465.011 369.609H153.671C77.6922 369.609 33.9903 323.622 23.1363 249.643C21.9937 242.788 21.4225 235.076 20.8512 227.078C21.7081 257.641 23.1363 287.632 23.1363 314.767C23.1363 445.873 123.965 434.733 153.671 434.733H472.152C505 434.733 513.283 459.297 513.854 467.009C514.711 478.72 509.855 491.003 501.286 499L501.572 499.286Z" fill="url(#paint2_linear_24_604)"/>
<path d="M1398.75 622.108C1398.75 626.678 1397.89 631.248 1395.6 632.391C1394.18 633.248 1389.32 634.39 1387.04 634.39H1273.92C1263.36 634.39 1261.36 630.677 1257.36 624.107L1127.11 434.162H861.756L860.613 619.823C860.613 619.823 858.614 626.107 857.757 627.535C854.901 632.105 850.616 634.105 845.189 634.39C838.334 634.961 756.643 634.39 750.93 634.39C741.504 634.39 735.791 626.964 735.506 617.538V324.479C735.22 363.896 735.506 636.961 735.506 682.948C735.506 698.372 744.075 697.801 748.359 699.229C800.63 699.229 814.055 700.086 842.904 700.086C849.473 700.086 861.47 702.371 861.47 675.236V499.572H1126.82L1257.07 689.517C1259.36 693.231 1262.5 696.373 1265.93 697.801C1286.21 701.8 1370.18 701.8 1391.03 698.943C1395.89 698.943 1398.75 694.659 1398.46 688.375V622.108H1398.75Z" fill="url(#paint3_linear_24_604)"/>
<path d="M641.247 499.286C639.247 542.131 620.967 588.975 583.549 612.682C558.984 628.392 529.564 632.962 501.001 634.676H41.7025C30.8484 633.819 23.7076 626.392 22.2794 618.966C22.2794 643.53 22.2794 667.238 22.2794 685.518C22.2794 700.086 37.9893 699.229 37.9893 699.229C37.9893 699.229 436.162 699.8 501.001 699.8C538.133 699.8 571.552 692.088 599.83 664.953C649.816 619.252 642.675 535.561 642.389 464.153C642.389 476.435 641.818 488.146 641.247 499V499.286Z" fill="url(#paint4_linear_24_604)"/>
<path d="M1217.94 0C1303.92 4.57012 1356.76 41.7024 1372.47 128.249C1379.32 166.238 1378.75 219.08 1377.32 257.926C1374.18 328.478 1349.33 391.031 1277.64 413.882C1271.07 415.881 1263.64 417.024 1257.36 419.023L1396.75 612.968C1399.32 616.681 1399.6 629.82 1395.32 632.105C1393.89 632.962 1389.03 634.105 1386.75 634.105H1273.64C1263.07 634.105 1261.07 630.391 1257.07 623.822L1126.82 433.876H861.47L860.328 619.537C860.328 619.537 858.328 625.821 857.471 627.249C854.615 631.819 850.33 633.819 844.903 634.105C838.048 634.676 756.357 634.105 750.644 634.105C741.219 634.105 735.506 626.678 735.22 617.252V323.907C762.927 323.051 1139.11 323.622 1173.95 323.051C1225.94 322.479 1247.93 304.77 1250.79 251.642C1253.64 195.087 1258.79 124.25 1182.24 123.393C1137.68 123.393 208.512 122.536 191.66 123.393C172.523 124.536 158.527 129.963 151.1 148.529C143.959 165.953 145.387 206.227 148.244 225.079C150.243 239.646 162.24 254.213 177.093 256.784C214.796 257.641 484.149 257.926 517.282 258.498C598.402 265.638 637.248 320.48 641.247 398.458C642.675 429.02 642.675 468.152 641.247 498.715C639.247 541.56 620.967 588.403 583.549 612.111C558.984 627.821 529.564 632.391 501.001 634.105H41.7025C29.4203 633.248 21.9938 623.822 21.9938 615.824V523.85C21.9938 514.71 29.1346 507.855 38.8462 507.855H478.15C503.572 505.57 514.426 488.146 515.854 464.153C516.996 445.873 517.853 404.17 509.856 388.46C500.43 370.18 477.008 368.752 465.297 368.752H153.956C77.9779 368.752 34.276 322.765 23.422 248.786C18.8518 216.795 19.7087 169.666 21.1369 136.818C24.5645 56.5553 69.6946 5.14139 151.957 0H1218.23H1217.94Z" fill="#0095D6"/>
<path d="M1217.94 3.14196C1261.64 5.42702 1295.06 16.2811 1319.63 35.9897C1345.62 56.5553 1361.9 87.118 1369.61 129.106C1375.04 158.812 1376.75 202.228 1374.18 258.212C1372.47 296.201 1364.76 327.906 1350.47 352.756C1334.19 381.32 1309.34 401.028 1276.5 411.311C1273.35 412.454 1269.93 413.025 1266.5 413.882C1263.07 414.739 1259.36 415.31 1256.22 416.452C1255.36 416.738 1254.5 417.595 1254.22 418.452C1253.93 419.309 1254.22 420.451 1254.79 421.308L1394.18 615.253C1394.18 615.253 1395.89 622.394 1395.03 626.964C1394.46 628.963 1393.89 629.82 1393.89 630.106C1393.03 630.677 1388.75 631.534 1386.75 631.534H1273.64C1265.07 631.534 1263.64 629.249 1259.93 623.251V622.679L1129.68 432.734C1129.68 432.734 1128.25 431.305 1127.11 431.305H861.756C860.042 431.305 858.614 432.734 858.614 434.447L857.471 620.109C857.471 620.109 855.757 624.964 855.186 626.107C853.187 629.534 850.045 631.248 845.189 631.534H817.483C790.347 631.534 754.643 631.534 751.216 631.248C744.075 631.248 739.219 625.821 738.933 617.538V327.335C765.497 326.764 904.03 326.764 1016.57 326.764H1174.81C1202.8 326.478 1221.37 321.051 1233.65 309.911C1246.5 298.201 1253.07 280.206 1254.5 252.499V249.357C1256.79 210.226 1259.07 165.667 1235.36 140.531C1223.37 127.963 1205.66 121.394 1182.81 121.108H422.452C272.209 121.108 196.801 121.108 191.946 121.394C175.664 122.251 157.67 126.25 148.529 148.529C140.532 167.952 143.102 210.226 145.387 226.792C147.958 243.93 161.383 258.498 177.093 261.068H177.378C197.944 261.64 289.632 261.925 370.752 262.211C438.447 262.211 502.429 262.496 517.568 263.068C555.842 266.495 585.548 280.777 606.4 305.341C625.823 328.478 636.677 360.468 638.676 400.171C640.104 430.448 640.104 469.58 638.676 500.143C637.534 522.422 632.392 543.845 623.252 562.696C613.255 583.548 599.259 600.114 582.406 610.968C557.271 626.964 527.565 630.963 501.286 632.676H41.7025C30.8484 631.819 24.8501 623.251 24.8501 617.538V525.564C24.8501 518.138 30.5628 512.711 38.5605 512.711H477.865C502.715 510.426 516.996 494.43 518.424 466.153C519.281 452.442 521.281 406.455 512.141 389.032C505 374.75 489.004 367.609 464.725 367.609H153.671C117.395 367.609 87.9751 357.041 66.2669 336.19C45.1301 316.195 31.9909 287.346 26.5639 250.214C21.9938 218.509 22.8507 172.237 24.2788 138.817C25.9926 98.5433 37.9892 66.5524 59.4117 43.4162C81.1199 18.8518 112.54 5.71265 151.957 3.14196H1217.94ZM1217.94 0H151.957C69.6945 5.14139 24.5645 56.5553 20.8512 137.675C19.4231 170.523 18.5662 217.652 23.1363 249.643C33.9904 323.907 77.4066 369.609 153.671 369.609H465.011C476.722 369.609 500.43 371.037 509.57 389.317C517.568 405.027 516.425 446.444 515.568 465.01C514.14 489.003 503 506.427 477.865 508.712H38.5605C29.1346 508.712 21.7081 515.567 21.7081 524.707V616.681C21.7081 624.679 29.4202 634.105 41.4168 634.961H500.715C529.279 632.962 558.699 628.678 583.263 612.968C620.681 589.26 638.962 542.416 640.961 499.572C642.389 469.009 642.389 429.877 640.961 399.314C637.248 321.337 598.402 266.495 516.996 259.354C483.863 258.783 214.511 258.498 176.807 257.641C161.954 255.356 149.957 240.503 147.958 225.935C145.387 207.084 143.674 166.809 150.814 149.386C158.527 130.82 172.237 125.107 191.374 124.25C196.801 124.25 292.203 123.965 421.88 123.965C683.806 123.965 1085.41 124.25 1168.53 124.25H1182.24C1258.79 124.821 1253.64 195.944 1250.79 252.499C1247.93 305.341 1225.94 323.336 1173.95 323.907C1138.82 324.193 762.927 323.907 734.649 324.764V618.109C735.506 627.535 740.933 634.676 750.359 634.961C754.072 634.961 790.062 635.247 816.626 635.247H844.618C850.045 634.676 854.329 632.962 857.186 628.392C858.043 626.964 860.042 622.108 860.042 620.68L861.184 435.019H1126.54L1256.79 624.964C1260.79 631.534 1262.79 635.247 1273.35 635.247H1386.46C1388.75 635.247 1393.61 634.105 1395.03 633.248C1399.32 630.963 1399.03 617.824 1396.46 614.11L1257.07 420.166C1263.36 418.166 1270.78 417.309 1277.35 415.024C1349.33 392.174 1374.18 329.906 1377.04 259.069C1378.75 219.937 1379.32 167.381 1372.18 129.392C1356.19 42.8449 1303.63 5.71265 1217.65 1.14253V0L1217.94 0Z" fill="#69C3E3"/>
<g opacity="0.1">
<path d="M1257.36 419.023C1263.64 417.024 1271.07 416.167 1277.64 413.882C1349.62 391.031 1374.47 328.763 1377.32 257.926C1379.04 218.795 1379.61 166.238 1372.47 128.249C1356.76 41.7024 1304.2 4.57012 1217.94 0H151.957C82.2624 4.28449 39.4174 41.7024 25.707 102.257C63.9819 140.817 104.827 178.806 147.387 215.938C145.387 195.373 145.387 163.953 151.386 149.1C159.098 130.534 172.808 124.821 191.946 123.965C208.798 123.108 1137.96 123.965 1182.52 123.965C1259.07 124.536 1253.93 195.658 1251.07 252.214C1248.22 305.056 1226.22 323.051 1174.24 323.622C1139.11 323.907 763.212 323.622 734.935 324.479V602.399C759.213 613.825 783.207 624.393 806.914 634.676H844.903C850.33 634.105 854.615 632.391 857.471 627.821C858.328 626.393 860.328 621.537 860.328 620.109L861.47 434.447H1126.82L1257.07 624.393C1261.07 630.963 1263.07 634.676 1273.64 634.676H1386.75C1389.03 634.676 1393.89 633.533 1395.32 632.676C1399.6 630.391 1399.32 617.252 1396.75 613.539L1257.36 419.594V419.023Z" fill="white"/>
<path d="M512.426 482.148C551.844 506.141 591.547 528.42 631.25 549.557C637.248 533.276 640.39 515.853 641.247 499.286C642.675 468.723 642.675 429.591 641.247 399.029C637.534 321.051 598.688 266.21 517.282 259.069C487.862 258.498 268.495 258.212 195.945 257.641C242.217 295.915 290.775 333.333 341.618 369.609H465.011C476.722 369.609 500.43 371.037 509.57 389.317C517.568 405.027 516.425 446.444 515.568 465.01C515.283 471.294 514.14 477.006 512.426 482.148Z" fill="white"/>
</g>
<g opacity="0.2">
<path d="M1217.94 0H151.957C69.6945 5.14139 24.5645 56.5553 20.8512 137.675C19.4231 170.523 18.5662 217.652 23.1363 249.643C33.9904 323.907 77.4066 369.609 153.671 369.609H465.011C476.722 369.609 500.43 371.037 509.57 389.317C517.568 405.027 516.425 446.444 515.568 465.01C514.14 489.003 503 506.427 477.865 508.712H38.5605C29.1346 508.712 21.7081 515.567 21.7081 524.707V616.681C21.7081 618.395 21.7081 620.394 22.8507 622.108C197.373 620.109 410.741 588.118 637.819 526.421C639.533 517.566 640.676 508.426 641.247 499.572C642.675 469.009 642.675 429.877 641.247 399.315C637.534 321.337 598.687 266.495 517.282 259.354C484.149 258.783 214.796 258.498 177.093 257.641C162.24 255.356 150.243 240.503 148.244 225.935C145.673 207.084 143.959 166.81 151.1 149.386C158.812 130.82 172.523 125.107 191.66 124.25C208.512 123.393 1137.68 124.25 1182.24 124.25C1258.79 124.821 1253.64 195.944 1250.79 252.499C1249.93 270.494 1246.79 284.49 1240.79 295.059C1289.63 269.637 1335.62 243.645 1377.9 217.366C1377.9 187.089 1376.75 154.527 1372.18 129.106C1356.76 41.7024 1304.2 4.57012 1217.94 0Z" fill="white"/>
<path d="M1174.24 323.336C1139.11 323.622 763.212 323.336 734.935 324.193V498.143C741.79 496.144 748.359 494.145 754.929 492.145C790.919 481.005 826.623 469.295 861.185 457.012V434.162H924.595C1017.14 399.6 1104.26 362.182 1184.52 323.336C1181.09 323.336 1177.67 323.622 1173.95 323.622L1174.24 323.336Z" fill="white"/>
</g>
<path opacity="0.2" d="M1174.24 323.336H943.733C1059.7 380.748 1175.1 426.164 1286.21 459.297L1257.07 419.023C1263.36 417.024 1270.78 416.167 1277.35 413.882C1349.33 391.031 1374.18 328.763 1377.04 257.926C1378.75 218.795 1379.32 166.238 1372.18 128.249C1356.76 41.7024 1304.2 4.57012 1217.94 0H446.159C497.573 42.5593 551.558 83.6904 608.399 123.679C868.325 123.679 1157.96 123.965 1182.52 123.965C1259.07 124.536 1253.93 195.658 1251.07 252.214C1248.22 305.056 1226.22 323.051 1174.24 323.622V323.336Z" fill="white"/>
<path d="M0 867.466L20.28 860.611V879.463H87.9751V843.473H22.2794C18.2805 843.473 11.4253 838.903 9.14027 835.476C2.85633 825.478 3.4276 785.49 5.42703 773.208C7.42647 760.068 11.9966 753.499 25.9926 752.356C41.9881 751.214 69.6945 751.214 85.4044 752.356C107.398 754.07 105.97 772.065 106.827 789.489L87.4038 797.486V779.492H23.9932V813.196H89.6889C89.6889 813.196 95.4015 815.196 96.2584 815.481C101.114 817.766 103.399 820.623 105.113 825.478C109.683 838.332 109.683 884.033 105.113 896.601C101.4 906.027 93.6877 908.026 83.9762 908.597C66.8382 909.74 41.7025 909.74 24.5645 908.597C14.2817 908.026 7.14083 906.027 3.71323 895.744C1.99943 890.888 0.285633 867.466 0.285633 867.466H0Z" fill="url(#paint5_linear_24_604)"/>
<path d="M1417.88 754.07L1369.04 837.189V908.312H1346.48V837.761L1297.63 753.213H1326.77L1359.9 812.625L1391.89 754.07L1417.88 753.213V754.07Z" fill="#B4B4B4"/>
<path d="M381.035 752.642C390.175 753.785 395.888 761.211 397.887 769.78C400.172 780.348 399.887 816.624 398.744 828.049C396.459 850.043 383.606 849.757 365.039 850.043L408.741 909.169H377.607L338.761 849.757H317.053V909.169H295.345V752.642H381.606H381.035ZM316.767 779.492V823.193H369.895C371.609 823.193 375.037 820.908 375.893 819.48C378.75 814.624 378.464 791.202 376.75 785.49C376.179 783.49 373.608 779.777 371.323 779.777H316.767V779.492Z" fill="url(#paint6_linear_24_604)"/>
<path d="M659.242 753.213C668.382 754.642 673.523 766.638 674.38 774.921C675.808 787.489 675.808 815.481 674.38 827.763C673.523 834.047 670.667 842.616 664.954 846.33C659.813 849.472 640.676 849.472 640.676 849.472L684.377 908.026H653.243L614.112 849.472H592.689V908.026H570.981V753.213H659.242ZM592.689 779.492V823.193H646.388C651.53 823.193 653.243 816.338 653.529 812.339C654.1 806.627 654.386 786.347 651.244 782.062C650.673 781.205 647.816 779.492 646.959 779.492H592.404H592.689Z" fill="#B4B4B4"/>
<path d="M252.786 752.642V778.92H176.807V814.339H221.08V840.617H176.807V879.749H253.357V908.883H154.242V752.642H252.786Z" fill="url(#paint7_linear_24_604)"/>
<path d="M818.339 753.213V778.92H742.361V814.339H786.92V840.617H742.361V879.749H819.768V908.312H720.653V753.213H818.339Z" fill="#B4B4B4"/>
<path d="M973.438 908.312H948.588L937.449 874.893H875.752L865.183 908.312H843.475L898.031 753.213L919.168 754.07L973.724 908.312H973.438ZM927.451 846.615L906.315 783.49L886.035 846.615H927.451Z" fill="#B4B4B4"/>
<path d="M446.731 752.642L485.577 864.61L523.28 752.642H544.703L491.861 908.883H476.151L421.309 752.642H446.731Z" fill="url(#paint8_linear_24_604)"/>
<path d="M1292.21 753.213V780.348H1247.93V908.312H1226.22V780.348H1181.67V753.213H1292.21Z" fill="#B4B4B4"/>
<path d="M1026.85 753.213V879.749H1098.83V908.312H1004.86V753.213H1026.85Z" fill="#B4B4B4"/>
<path d="M1153.67 753.213H1131.96V908.026H1153.67V753.213Z" fill="#B4B4B4"/>
<path d="M8.85458 937.732C8.85458 937.732 9.99711 938.303 9.99711 939.732V998.001C9.99711 998.001 9.99711 1000 8.85458 1000H2.85628C2.85628 1000 1.71375 999.429 1.71375 998.001V939.732C1.71375 939.732 2.28501 937.732 2.85628 937.732H8.85458Z" fill="#818181"/>
<path d="M26.8495 937.732C30.2771 937.732 31.134 938.303 33.1334 942.873L53.4134 986.29C53.4134 986.29 53.4134 986.861 53.9847 986.861H54.5559C54.5559 986.861 55.1272 986.861 55.1272 986.004V939.732C55.1272 939.732 55.1272 937.732 56.2697 937.732H61.9824C61.9824 937.732 63.1249 938.303 63.1249 939.732V990.574C63.1249 997.715 61.4111 999.714 58.2692 999.714H53.699C50.2714 999.714 49.4145 999.143 47.4151 994.573L27.1351 951.157C27.1351 951.157 27.1351 950.586 26.5639 950.586H25.9926C25.9926 950.586 25.4213 950.586 25.4213 951.443V997.715C25.4213 997.715 25.4213 999.714 24.2788 999.714H18.5661C18.5661 999.714 17.4236 999.143 17.4236 997.715V946.872C17.4236 939.732 19.1374 937.732 22.2793 937.732H27.1351H26.8495Z" fill="#818181"/>
<path d="M80.2629 937.732C83.6905 937.732 84.5474 938.303 86.5469 942.873L106.827 986.29C106.827 986.29 106.827 986.861 107.398 986.861H107.969C107.969 986.861 108.541 986.861 108.541 986.004V939.732C108.541 939.732 108.541 937.732 109.683 937.732H115.396C115.396 937.732 116.538 938.303 116.538 939.732V990.574C116.538 997.715 114.825 999.714 111.683 999.714H107.112C103.685 999.714 102.828 999.143 100.829 994.573L80.5486 951.157C80.5486 951.157 80.5486 950.586 79.9773 950.586H79.406C79.406 950.586 78.8348 950.586 78.8348 951.443V997.715C78.8348 997.715 78.8348 999.714 77.6922 999.714H71.9796C71.9796 999.714 70.837 999.143 70.837 997.715V946.872C70.837 939.732 72.5508 937.732 75.6928 937.732H80.5486H80.2629Z" fill="#818181"/>
<path d="M155.67 937.732C166.81 937.732 171.094 944.016 171.094 961.154V976.293C171.094 993.431 166.81 999.714 155.67 999.714H138.818C127.678 999.714 123.394 993.431 123.394 976.293V961.154C123.394 944.016 127.678 937.732 138.818 937.732H155.67ZM131.963 975.436C131.963 984.862 133.676 987.432 139.103 987.432H155.384C161.097 987.432 162.525 984.576 162.525 975.436V962.011C162.525 952.585 160.812 950.014 155.384 950.014H139.103C133.391 950.014 131.963 952.871 131.963 962.011V975.436Z" fill="#818181"/>
<path d="M180.52 937.732C180.52 937.732 181.377 937.732 181.663 938.875L197.658 986.575C197.658 986.575 197.944 987.147 198.229 987.147C198.229 987.147 198.801 987.147 198.801 986.575L214.511 938.875C214.511 938.875 215.082 937.732 215.653 937.732H222.794C222.794 937.732 223.936 938.589 223.365 939.732L205.37 993.145C203.656 998.572 201.943 1000 199.658 1000H196.516C193.659 1000 192.231 998.572 190.232 993.145L172.237 939.732C172.237 939.732 172.237 937.732 172.808 937.732H180.52Z" fill="#818181"/>
<path d="M242.788 937.732C245.645 937.732 247.358 939.16 249.072 944.587L267.067 998.001C267.067 998.001 267.067 1000 266.496 1000H259.641C259.641 1000 258.784 1000 258.498 998.858L254.499 987.432H228.792L225.079 998.858C225.079 998.858 224.508 1000 223.937 1000H216.796C216.796 1000 215.653 999.143 216.224 998.001L234.219 944.587C235.933 939.16 237.647 937.732 239.932 937.732H243.074H242.788ZM232.22 976.864H251.072L242.503 950.871C242.503 950.871 242.217 950.3 241.931 950.3H241.646C241.646 950.3 241.074 950.3 241.074 950.871L232.506 976.864H232.22Z" fill="#818181"/>
<path d="M306.199 937.732C306.199 937.732 307.341 938.303 307.341 939.732V948.301C307.341 948.301 306.77 950.3 306.199 950.3H289.061V997.715C289.061 997.715 288.775 999.714 287.918 999.714H281.92C281.92 999.714 280.777 999.143 280.777 997.715V950.3H263.639C263.639 950.3 262.497 949.729 262.497 948.301V939.732C262.497 939.732 263.068 937.732 263.639 937.732H306.199Z" fill="#818181"/>
<path d="M319.338 937.732C319.338 937.732 320.481 938.303 320.481 939.732V998.001C320.481 998.001 320.195 1000 319.338 1000H313.34C313.34 1000 312.197 999.429 312.197 998.001V939.732C312.197 939.732 312.768 937.732 313.34 937.732H319.338Z" fill="#818181"/>
<path d="M332.763 937.732C332.763 937.732 333.62 937.732 333.905 938.875L349.901 986.575C349.901 986.575 350.186 987.147 350.472 987.147C350.472 987.147 351.043 987.147 351.043 986.575L366.753 938.875C366.753 938.875 367.324 937.732 367.896 937.732H375.036C375.036 937.732 376.179 938.589 375.608 939.732L357.613 993.145C355.899 998.572 354.185 1000 351.9 1000H348.758C345.902 1000 344.474 998.572 342.474 993.145L324.479 939.732C324.479 939.732 324.479 937.732 325.051 937.732H332.763Z" fill="#818181"/>
<path d="M417.882 937.732C417.882 937.732 419.024 938.303 419.024 939.732V948.015C419.024 948.015 418.453 950.014 417.882 950.014H393.888C388.176 950.014 386.747 952.871 386.747 962.011V962.868H417.596C417.596 962.868 418.738 963.439 418.738 964.867V972.008C418.738 972.008 418.453 974.007 417.596 974.007H386.747V975.436C386.747 984.862 388.461 987.432 393.888 987.432H417.882C417.882 987.432 419.024 988.003 419.024 989.432V997.715C419.024 997.715 418.453 999.714 417.882 999.714H393.888C382.749 999.714 378.464 993.431 378.464 976.293V961.154C378.464 944.016 382.749 937.732 393.888 937.732H417.882Z" fill="#818181"/>
<path d="M481.578 937.732C481.578 937.732 482.72 938.303 482.72 939.732V948.015C482.72 948.015 482.435 950.014 481.578 950.014H454.157C452.157 950.014 451.301 952.014 451.301 954.87V958.012C451.301 961.154 452.157 962.868 454.157 962.868H474.723C481.006 962.868 484.148 968.295 484.148 978.006V985.147C484.148 993.716 481.006 999.714 474.437 999.714H444.16C444.16 999.714 443.017 999.143 443.017 997.715V989.432C443.017 989.432 443.588 987.432 444.16 987.432H472.723C474.722 987.432 475.579 985.433 475.579 982.577V978.863C475.579 975.721 474.722 974.007 472.723 974.007H452.157C445.874 974.007 442.732 968.58 442.732 958.869V952.299C442.732 943.73 445.874 937.732 452.443 937.732H481.578Z" fill="#818181"/>
<path d="M522.138 937.732C533.277 937.732 537.562 944.016 537.562 961.154V976.293C537.562 993.431 533.277 999.714 522.138 999.714H505.285C494.146 999.714 489.861 993.431 489.861 976.293V961.154C489.861 944.016 494.146 937.732 505.285 937.732H522.138ZM498.144 975.436C498.144 984.862 499.858 987.432 505.285 987.432H521.566C527.279 987.432 528.707 984.576 528.707 975.436V962.011C528.707 952.585 526.993 950.014 521.566 950.014H505.285C499.573 950.014 498.144 952.871 498.144 962.011V975.436Z" fill="#818181"/>
<path d="M582.978 937.732C582.978 937.732 584.12 938.303 584.12 939.732V948.015C584.12 948.015 583.549 950.014 582.978 950.014H559.27C553.557 950.014 552.129 952.871 552.129 962.011V963.725H582.692C582.692 963.725 583.834 964.296 583.834 965.724V972.865C583.834 972.865 583.549 974.864 582.692 974.864H552.129V998.001C552.129 998.001 551.844 1000 550.987 1000H544.988C544.988 1000 543.846 999.429 543.846 998.001V961.154C543.846 944.016 548.13 937.732 559.27 937.732H583.263H582.978Z" fill="#818181"/>
<path d="M631.25 937.732C631.25 937.732 632.392 938.303 632.392 939.732V948.301C632.392 948.301 631.821 950.3 631.25 950.3H614.112V997.715C614.112 997.715 613.826 999.714 612.969 999.714H606.971C606.971 999.714 605.828 999.143 605.828 997.715V950.3H588.69C588.69 950.3 587.548 949.729 587.548 948.301V939.732C587.548 939.732 588.119 937.732 588.69 937.732H631.25Z" fill="#818181"/>
<path d="M642.675 937.732C642.675 937.732 643.246 937.732 643.532 938.875L652.386 986.575C652.386 986.575 652.386 987.147 652.958 987.147C652.958 987.147 653.243 987.147 653.529 986.575L662.384 942.873C663.241 938.875 664.383 937.732 666.383 937.732H671.81C674.095 937.732 675.237 939.16 676.094 942.873L685.234 986.575C685.234 986.575 685.234 987.147 685.806 987.147H686.091C686.091 987.147 686.377 987.147 686.663 986.575L695.231 938.875C695.231 938.875 695.803 937.732 696.088 937.732H703.515C703.515 937.732 704.086 938.589 704.086 939.732L693.518 993.145C692.375 998.572 691.518 1000 689.233 1000H682.949C680.95 1000 679.807 998.572 678.665 993.145L670.096 951.157C670.096 951.157 670.096 950.586 669.524 950.586C669.524 950.586 669.239 950.586 668.953 951.157L660.384 993.145C659.242 998.286 658.385 1000 656.1 1000H649.816C647.245 1000 646.388 998.858 645.246 993.145L635.248 939.732C635.248 939.732 635.248 937.732 635.82 937.732H643.246H642.675Z" fill="#818181"/>
<path d="M726.651 937.732C729.508 937.732 731.221 939.16 732.935 944.587L750.93 998.001C750.93 998.001 750.93 1000 750.359 1000H743.504C743.504 1000 742.647 1000 742.361 998.858L738.362 987.432H712.655L708.942 998.858C708.942 998.858 708.371 1000 707.799 1000H700.659C700.659 1000 699.516 999.143 700.087 998.001L718.082 944.587C719.796 939.16 721.51 937.732 723.795 937.732H726.937H726.651ZM716.083 976.864H734.935L726.366 950.871C726.366 950.871 726.08 950.3 725.794 950.3H725.509C725.509 950.3 724.937 950.3 724.937 950.871L716.368 976.864H716.083Z" fill="#818181"/>
<path d="M786.634 937.732C794.918 937.732 798.345 944.016 798.345 956.013V961.154C798.345 971.151 796.06 977.149 790.347 978.863L799.773 997.715C799.773 997.715 799.773 1000 799.202 1000H792.061C792.061 1000 790.919 1000 790.633 998.858L782.064 980.291H764.355V998.001C764.355 998.001 764.069 1000 763.212 1000H757.214C757.214 1000 756.071 999.429 756.071 998.001V940.588C756.071 938.875 756.643 938.018 757.785 938.018H787.205H786.634V937.732ZM764.069 969.152H784.92C788.634 969.152 790.062 966.581 790.062 961.154V957.441C790.062 952.014 788.634 949.443 784.92 949.443H764.64C764.64 949.443 764.069 949.443 764.069 950.586V969.152Z" fill="#818181"/>
<path d="M842.904 937.732C842.904 937.732 844.046 938.303 844.046 939.732V948.015C844.046 948.015 843.475 950.014 842.904 950.014H818.911C813.198 950.014 811.77 952.871 811.77 962.011V962.868H842.618C842.618 962.868 843.761 963.439 843.761 964.867V972.008C843.761 972.008 843.475 974.007 842.618 974.007H811.77V975.436C811.77 984.862 813.484 987.432 818.911 987.432H842.904C842.904 987.432 844.046 988.003 844.046 989.432V997.715C844.046 997.715 843.475 999.714 842.904 999.714H818.911C807.771 999.714 803.487 993.431 803.487 976.293V961.154C803.487 944.016 807.771 937.732 818.911 937.732H842.904Z" fill="#818181"/>
<path d="M896.032 937.732C907.743 937.732 912.598 945.444 912.598 962.868V974.864C912.598 992.288 907.743 1000 896.032 1000H870.61C870.61 1000 868.897 999.143 868.897 997.429V940.588C868.897 938.875 869.468 938.018 870.61 938.018H896.032V937.732ZM877.18 986.29C877.18 986.29 877.18 987.432 877.751 987.432H895.746C902.316 987.432 904.315 984.005 904.315 973.722V964.01C904.315 953.442 902.316 950.3 895.746 950.3H877.751C877.751 950.3 877.18 950.3 877.18 951.443V986.575V986.29Z" fill="#818181"/>
<path d="M958.3 937.732C958.3 937.732 959.442 938.303 959.442 939.732V948.015C959.442 948.015 958.871 950.014 958.3 950.014H934.306C928.594 950.014 927.166 952.871 927.166 962.011V962.868H958.014C958.014 962.868 959.157 963.439 959.157 964.867V972.008C959.157 972.008 959.157 974.007 958.014 974.007H927.166V975.436C927.166 984.862 928.879 987.432 934.306 987.432H958.3C958.3 987.432 959.442 988.003 959.442 989.432V997.715C959.442 997.715 958.871 999.714 958.3 999.714H934.306C923.167 999.714 918.882 993.431 918.882 976.293V961.154C918.882 944.016 923.167 937.732 934.306 937.732H958.3Z" fill="#818181"/>
<path d="M970.868 937.732C970.868 937.732 971.724 937.732 972.01 938.875L988.006 986.575C988.006 986.575 988.006 987.147 988.577 987.147C988.577 987.147 989.148 987.147 989.148 986.575L1004.86 938.875C1004.86 938.875 1005.43 937.732 1006 937.732H1013.14C1013.14 937.732 1014.28 938.589 1013.71 939.732L995.718 993.145C994.004 998.572 992.29 1000 990.005 1000H986.863C984.007 1000 982.579 998.572 980.579 993.145L962.584 939.732C962.584 939.732 962.584 937.732 963.156 937.732H970.868Z" fill="#818181"/>
<path d="M1055.7 937.732C1055.7 937.732 1056.84 938.303 1056.84 939.732V948.015C1056.84 948.015 1056.27 950.014 1055.7 950.014H1031.71C1025.99 950.014 1024.57 952.871 1024.57 962.011V962.868H1055.42C1055.42 962.868 1056.56 963.439 1056.56 964.867V972.008C1056.56 972.008 1056.56 974.007 1055.42 974.007H1024.57V975.436C1024.57 984.862 1026.28 987.432 1031.71 987.432H1055.7C1055.7 987.432 1056.84 988.003 1056.84 989.432V997.715C1056.84 997.715 1056.27 999.714 1055.7 999.714H1031.71C1020.57 999.714 1016.28 993.431 1016.28 976.293V961.154C1016.28 944.016 1020.57 937.732 1031.71 937.732H1055.7Z" fill="#818181"/>
<path d="M1070.27 937.732C1070.27 937.732 1071.41 938.303 1071.41 939.732V975.15C1071.41 984.576 1073.12 987.432 1078.55 987.432H1100.55C1100.55 987.432 1101.69 988.003 1101.69 989.432V998.001C1101.69 998.001 1101.69 1000 1100.55 1000H1077.98C1066.84 1000 1062.56 993.716 1062.56 976.578V939.732C1062.56 939.732 1063.13 937.732 1063.7 937.732H1070.27Z" fill="#818181"/>
<path d="M1138.82 937.732C1149.96 937.732 1154.24 944.016 1154.24 961.154V976.293C1154.24 993.431 1149.96 999.714 1138.82 999.714H1121.97C1110.83 999.714 1106.54 993.431 1106.54 976.293V961.154C1106.54 944.016 1110.83 937.732 1121.97 937.732H1138.82ZM1114.83 975.436C1114.83 984.862 1116.54 987.432 1121.97 987.432H1138.25C1143.96 987.432 1145.39 984.576 1145.39 975.436V962.011C1145.39 952.585 1143.68 950.014 1138.25 950.014H1121.97C1116.25 950.014 1114.83 952.871 1114.83 962.011V975.436Z" fill="#818181"/>
<path d="M1191.66 937.732C1199.95 937.732 1203.37 944.016 1203.37 956.013V962.582C1203.37 974.579 1199.95 980.863 1191.66 980.863H1169.1V998.001C1169.1 998.001 1169.1 1000 1167.95 1000H1161.96C1161.96 1000 1160.81 999.429 1160.81 998.001V940.588C1160.81 938.875 1161.39 938.018 1162.53 938.018H1191.95L1191.66 937.732ZM1169.1 969.152H1189.95C1193.66 969.152 1195.09 966.581 1195.09 961.154V957.726C1195.09 952.299 1193.66 949.729 1189.95 949.729H1169.67C1169.67 949.729 1169.1 949.729 1169.1 950.871V968.866V969.152Z" fill="#818181"/>
<path d="M1219.65 937.732C1222.8 937.732 1223.94 938.875 1225.37 944.587L1236.79 987.147C1236.79 987.147 1236.79 988.003 1237.65 988.003H1238.22C1238.22 988.003 1238.79 988.004 1239.08 987.147L1250.5 944.587C1251.93 938.875 1253.07 937.732 1256.22 937.732H1261.93C1265.64 937.732 1266.78 940.303 1266.78 946.872V997.715C1266.78 997.715 1266.21 999.714 1265.64 999.714H1260.21C1260.21 999.714 1259.07 999.143 1259.07 997.715V951.443C1259.07 951.443 1259.07 950.586 1258.5 950.586H1257.93C1257.93 950.586 1257.36 950.586 1257.36 951.157L1246.22 990.86C1244.5 997.144 1242.79 999.429 1239.36 999.429H1236.79C1233.08 999.429 1231.65 997.144 1229.94 990.86L1218.8 951.157C1218.8 951.157 1218.8 950.586 1218.23 950.586H1217.65C1217.65 950.586 1217.08 950.586 1217.08 951.443V997.715C1217.08 997.715 1217.08 999.714 1215.94 999.714H1210.51C1210.51 999.714 1209.37 999.143 1209.37 997.715V946.872C1209.37 940.017 1210.23 937.732 1214.23 937.732H1220.23H1219.65Z" fill="#818181"/>
<path d="M1312.77 937.732C1312.77 937.732 1313.91 938.303 1313.91 939.732V948.015C1313.91 948.015 1313.34 950.014 1312.77 950.014H1288.78C1283.06 950.014 1281.64 952.871 1281.64 962.011V962.868H1312.49C1312.49 962.868 1313.63 963.439 1313.63 964.867V972.008C1313.63 972.008 1313.63 974.007 1312.49 974.007H1281.64V975.436C1281.64 984.862 1283.35 987.432 1288.78 987.432H1312.77C1312.77 987.432 1313.91 988.003 1313.91 989.432V997.715C1313.91 997.715 1313.34 999.714 1312.77 999.714H1288.78C1277.64 999.714 1273.35 993.431 1273.35 976.293V961.154C1273.35 944.016 1277.64 937.732 1288.78 937.732H1312.77Z" fill="#818181"/>
<path d="M1330.19 937.732C1333.62 937.732 1334.48 938.303 1336.48 942.873L1356.76 986.29C1356.76 986.29 1356.76 986.861 1357.33 986.861H1357.9C1357.9 986.861 1358.47 986.861 1358.47 986.004V939.732C1358.47 939.732 1358.47 937.732 1359.61 937.732H1365.33C1365.33 937.732 1366.47 938.303 1366.47 939.732V990.574C1366.47 997.715 1364.76 999.714 1361.61 999.714H1357.04C1353.62 999.714 1352.76 999.143 1350.76 994.573L1330.48 951.157C1330.48 951.157 1330.48 950.586 1329.91 950.586H1329.34C1329.34 950.586 1328.77 950.586 1328.77 951.443V997.715C1328.77 997.715 1328.77 999.714 1327.62 999.714H1321.91C1321.91 999.714 1320.77 999.143 1320.77 997.715V946.872C1320.77 939.732 1322.48 937.732 1325.62 937.732H1330.48H1330.19Z" fill="#818181"/>
<path d="M1415.31 937.732C1415.31 937.732 1416.46 938.303 1416.46 939.732V948.301C1416.46 948.301 1415.88 950.3 1415.31 950.3H1398.18V997.715C1398.18 997.715 1398.18 999.714 1397.03 999.714H1391.03C1391.03 999.714 1389.89 999.143 1389.89 997.715V950.3H1372.75C1372.75 950.3 1371.61 949.729 1371.61 948.301V939.732C1371.61 939.732 1372.18 937.732 1372.75 937.732H1415.31Z" fill="#818181"/>
<path d="M1719.8 381.891H1888.61V390.745C1888.61 409.597 1893.75 422.165 1904.03 428.735C1914.31 435.304 1935.74 438.732 1968.58 438.732H2183.1C2204.23 438.732 2219.09 435.59 2228.23 429.306C2237.37 423.022 2241.65 412.454 2241.65 397.601C2241.65 382.748 2236.51 371.894 2225.94 365.324C2215.66 358.755 2193.09 354.47 2158.82 352.185L1890.32 346.758C1823.2 345.044 1777.78 333.619 1754.07 312.482C1730.37 291.631 1718.66 253.356 1718.66 197.943C1718.66 169.38 1721.8 145.673 1728.08 127.392C1734.37 108.826 1744.36 93.4018 1758.07 81.1196C1774.35 67.4093 1795.78 57.4121 1822.06 51.6995C1848.33 45.9868 1891.18 42.8448 1950.59 42.8448H2211.37C2275.93 42.8448 2322.48 53.4133 2351.05 74.2644C2379.61 95.1156 2393.61 129.392 2393.61 176.521C2393.61 179.663 2393.61 183.091 2393.61 186.518C2393.61 190.231 2393.04 195.944 2392.18 203.942H2227.65V201.942C2227.65 185.376 2222.8 173.093 2213.66 164.81C2204.23 156.527 2190.24 152.528 2171.38 152.528H1974.58C1941.74 152.528 1920.03 155.384 1909.46 161.382C1898.89 167.095 1893.75 177.378 1893.75 191.945C1893.75 206.512 1898.6 216.51 1908.03 223.079C1917.46 229.363 1935.17 233.647 1960.59 235.361L2241.65 239.36C2305.92 241.074 2351.05 253.642 2377.04 277.921C2403.32 301.914 2416.17 343.33 2416.17 401.6C2416.17 436.161 2411.32 463.011 2401.61 481.862C2391.89 500.714 2375.9 516.995 2353.05 530.42C2337.91 538.989 2317.63 544.987 2291.92 548.7C2266.21 552.414 2228.8 554.127 2179.95 554.127H1952.3C1858.9 554.127 1796.35 544.701 1764.64 526.135C1733.22 507.569 1717.23 472.722 1717.23 421.879C1717.23 419.023 1717.23 414.167 1717.8 407.312C1718.08 400.457 1718.66 392.174 1719.51 382.462L1719.8 381.891Z" fill="#B4B4B4"/>
<path d="M2955.73 430.448H3089.98V435.875C3089.98 477.292 3075.7 506.998 3047.42 525.278C3019.14 543.559 2972.3 552.699 2907.18 552.699H2774.93C2715.23 552.699 2669.81 541.56 2638.4 519.28C2606.98 497.001 2591.27 465.01 2591.27 423.022V327.335C2591.27 283.062 2606.98 249.357 2638.4 225.935C2669.81 202.514 2715.23 190.803 2774.36 190.803H2907.46C2967.16 190.803 3012.57 202.514 3043.99 225.65C3075.41 249.072 3090.84 282.776 3090.84 327.335V402.742H2733.51C2733.51 402.742 2733.51 405.598 2733.23 407.883C2733.23 410.169 2732.94 411.597 2732.94 412.168C2732.94 432.448 2739.51 447.015 2752.65 455.87C2765.79 464.724 2787.5 469.009 2817.77 469.009H2877.47C2908.32 469.009 2928.31 466.438 2937.74 461.011C2946.88 455.584 2953.16 445.587 2956.3 430.734L2955.73 430.448ZM2733.23 324.479H2952.88V323.051C2952.88 306.198 2946.88 294.487 2934.88 287.632C2922.89 280.777 2902.32 277.349 2872.61 277.349H2814.06C2784.35 277.349 2763.5 280.777 2751.51 287.918C2739.22 295.059 2733.23 306.769 2733.23 323.336V324.764V324.479Z" fill="#B4B4B4"/>
<path d="M3427.03 261.068C3441.02 235.933 3459.31 217.652 3481.87 206.512C3504.44 195.373 3534.43 189.66 3571.84 189.66C3626.69 189.66 3665.53 199.943 3688.67 220.794C3711.81 241.645 3723.23 276.492 3723.23 325.336C3723.23 332.476 3722.66 343.616 3721.8 358.469V360.468H3596.41V355.041C3596.41 334.19 3589.84 319.052 3576.99 309.055C3564.13 299.343 3544.14 294.202 3517 294.202C3489.87 294.202 3467.02 299.914 3451.02 311.34C3435.03 322.765 3427.03 338.76 3427.03 359.326V547.272H3284.5V195.087H3427.03V261.068Z" fill="#B4B4B4"/>
<path d="M4195.38 547.558H4016L3825.77 194.802H3986.01L4104.84 442.159L4227.66 194.802H4385.61L4195.38 547.558Z" fill="#B4B4B4"/>
<path d="M4986.87 48.8431C5075.7 48.8431 5135.97 60.5541 5167.96 83.976C5199.95 107.398 5215.95 150.243 5215.95 212.225C5215.95 255.356 5208.81 287.346 5194.53 308.483C5180.25 329.334 5156.25 343.616 5122.83 350.757C5152.25 357.041 5174.53 368.18 5189.39 383.89C5204.24 399.886 5211.67 420.166 5211.67 445.587V547.843H5040.57V471.865C5040.57 452.157 5035.43 438.732 5025.15 431.305C5014.86 423.879 4994.3 420.166 4963.74 420.166H4708.95V547.843H4537.57V48.8431H4987.16H4986.87ZM4980.59 173.093H4708.95V295.059H4980.59C5003.44 295.059 5019.43 290.203 5028.57 280.777C5037.72 271.351 5042.29 254.213 5042.29 229.363C5042.29 209.654 5037.43 195.373 5027.72 186.518C5018.01 177.663 5002.3 173.093 4980.59 173.093Z" fill="#B4B4B4"/>
<path d="M5765.51 430.448H5899.76V435.875C5899.76 477.292 5885.47 506.998 5857.2 525.278C5828.92 543.559 5782.08 552.699 5716.95 552.699H5584.7C5525.01 552.699 5479.59 541.56 5448.17 519.28C5416.75 497.001 5401.04 465.01 5401.04 423.022V327.335C5401.04 283.062 5416.75 249.357 5448.17 225.935C5479.59 202.514 5525.01 190.803 5584.13 190.803H5717.24C5776.93 190.803 5822.35 202.514 5853.77 225.65C5885.19 249.072 5900.61 282.776 5900.61 327.335V402.742H5543.29C5543.29 402.742 5543.29 405.598 5543 407.883C5542.71 410.169 5542.71 411.597 5542.71 412.168C5542.71 432.448 5549.28 447.015 5562.42 455.87C5575.56 464.724 5597.27 469.009 5627.55 469.009H5687.25C5718.09 469.009 5738.09 466.438 5747.51 461.011C5756.65 455.584 5762.94 445.587 5766.08 430.734L5765.51 430.448ZM5543 324.479H5762.65V323.051C5762.65 306.198 5756.65 294.487 5744.94 287.632C5732.95 280.777 5712.38 277.349 5682.68 277.349H5624.12C5594.7 277.349 5573.56 280.777 5561.57 287.918C5549.28 295.059 5543.29 306.769 5543.29 323.336V324.764L5543 324.479Z" fill="#B4B4B4"/>
<path d="M6576.99 547.558H6434.46V504.999C6419.89 521.28 6397.62 533.276 6367.62 540.703C6337.63 548.415 6298.21 552.128 6249.37 552.128C6177.11 552.128 6127.12 543.559 6100.27 526.421C6073.14 509.283 6059.71 478.435 6059.71 434.162C6059.71 389.889 6073.71 360.183 6101.7 343.33C6129.69 326.478 6182.25 318.195 6259.65 318.195C6303.64 318.195 6339.63 320.765 6367.62 325.621C6395.62 330.477 6417.9 338.189 6434.46 348.472V310.483C6434.46 298.2 6429.61 288.775 6420.18 282.205C6410.75 275.635 6397.04 272.208 6379.33 272.208H6262.8C6248.51 272.208 6237.95 274.207 6231.38 278.492C6224.81 282.776 6221.38 289.631 6221.38 298.772H6078.28V294.487C6078.28 257.355 6093.7 230.791 6124.55 214.224C6155.4 197.658 6206.81 189.66 6278.79 189.66H6418.18C6472.17 189.66 6511.87 199.086 6537.86 218.223C6563.85 237.361 6576.71 266.495 6576.71 306.198V546.987L6576.99 547.558ZM6361.91 395.316H6275.08C6249.09 395.316 6230.81 398.172 6220.24 403.599C6209.67 409.026 6204.53 418.452 6204.53 431.591C6204.53 444.73 6209.38 452.728 6219.09 457.584C6228.81 462.439 6247.37 465.01 6275.36 465.01H6362.2C6388.19 465.01 6406.76 462.154 6417.32 456.727C6427.89 451.3 6433.32 441.874 6433.32 428.735C6433.32 415.596 6428.46 407.312 6418.75 402.171C6409.04 397.029 6390.19 394.744 6362.2 394.744L6361.91 395.316Z" fill="#B4B4B4"/>
<path d="M6910.9 547.558H6768.37V48.8431H6910.9V547.558Z" fill="#B4B4B4"/>
<path d="M7265.08 152.528H7122.55V48.8431H7265.08V152.242V152.528ZM7265.08 547.558H7122.55V195.087H7265.08V547.843V547.558Z" fill="#B4B4B4"/>
<path d="M7512.44 287.061H7432.46V194.801H7512.44V110.254H7654.97V194.801H7877.48V287.061H7654.97V407.027C7654.97 425.593 7659.26 438.446 7667.54 446.158C7675.82 453.585 7690.11 457.298 7710.1 457.298C7732.95 457.298 7748.95 453.585 7758.09 445.873C7767.23 438.16 7771.8 425.021 7771.8 406.455C7771.8 402.742 7771.51 396.458 7770.65 387.889C7770.65 387.032 7770.37 386.175 7770.37 385.89H7896.62C7897.19 389.603 7897.48 393.887 7897.76 398.172C7897.76 402.456 7898.05 408.74 7898.05 416.738C7898.05 464.724 7882.34 499.286 7851.2 520.708C7819.78 541.845 7768.66 552.414 7697.53 552.414C7626.41 552.414 7581.57 543.273 7553.86 524.993C7526.44 506.712 7512.44 475.293 7512.44 430.448V287.061Z" fill="#B4B4B4"/>
<path d="M8249.38 530.705H8195.96L8023.16 195.087H8179.97L8289.94 424.164L8403.9 195.087H8559.57L8361.92 575.264C8351.63 594.973 8341.35 610.968 8330.78 623.25C8320.5 635.533 8308.79 644.958 8296.22 651.242C8285.37 656.669 8272.51 660.954 8257.66 663.239C8242.81 665.81 8224.81 666.952 8203.67 666.952C8192.54 666.952 8181.68 666.952 8171.11 666.381C8160.26 665.81 8149.69 665.238 8139.12 664.382V580.977C8144.84 581.548 8150.26 581.834 8155.4 582.119C8160.54 582.405 8165.4 582.691 8169.97 582.691C8192.82 582.691 8210.53 578.406 8223.1 570.408C8235.67 562.125 8244.52 548.986 8249.09 530.991L8249.38 530.705Z" fill="#B4B4B4"/>
<path d="M1764.64 751.5H1718.37C1715.8 751.5 1713.8 753.213 1713.8 755.498V949.157C1713.8 951.442 1715.8 953.156 1718.37 953.156H1764.64C1767.21 953.156 1769.21 951.442 1769.21 949.157V755.498C1769.21 753.213 1767.21 751.5 1764.64 751.5Z" fill="#B4B4B4"/>
<path d="M1971.44 751.5C1968.87 751.5 1966.87 753.213 1966.87 755.498V864.896L1874.33 752.928C1874.33 752.928 1872.04 751.214 1870.61 751.214H1822.91C1820.34 751.214 1818.34 752.928 1818.34 755.213V948.872C1818.34 951.157 1820.34 952.871 1822.91 952.871H1869.18C1871.76 952.871 1873.75 951.157 1873.75 948.872V834.904L1969.16 951.442C1969.16 951.442 1971.44 953.156 1972.87 953.156H2017.43C2020 953.156 2022 951.442 2022 949.157V755.498C2022 753.213 2020 751.5 2017.43 751.5H1971.16H1971.44Z" fill="#B4B4B4"/>
<path d="M2224.23 751.5C2221.66 751.5 2219.66 753.213 2219.66 755.498V864.896L2127.11 752.928C2127.11 752.928 2124.83 751.214 2123.4 751.214H2075.7C2073.13 751.214 2071.13 752.928 2071.13 755.213V948.872C2071.13 951.157 2073.13 952.871 2075.7 952.871H2121.97C2124.54 952.871 2126.54 951.157 2126.54 948.872V834.904L2221.94 951.442C2221.94 951.442 2224.23 953.156 2225.65 953.156H2270.21C2272.78 953.156 2274.78 951.442 2274.78 949.157V755.498C2274.78 753.213 2272.78 751.5 2270.21 751.5H2223.94H2224.23Z" fill="#B4B4B4"/>
<path d="M2431.88 748.358C2397.89 748.358 2369.61 758.355 2347.33 777.778C2325.06 797.486 2313.92 822.622 2313.92 852.614C2313.92 882.605 2325.34 907.741 2347.33 927.449C2369.61 947.158 2397.89 956.87 2431.88 956.87C2465.87 956.87 2494.44 946.872 2516.72 927.449C2538.99 908.026 2550.13 882.605 2550.13 852.614C2550.13 822.622 2538.99 797.201 2516.72 777.778C2494.44 758.355 2465.87 748.358 2431.88 748.358ZM2387.61 809.769C2398.75 798.629 2413.32 793.202 2431.88 793.202C2450.45 793.202 2465.02 798.629 2476.44 809.769C2487.87 820.908 2493.58 835.476 2493.58 852.614C2493.58 869.752 2487.87 884.319 2476.44 895.458C2465.02 906.598 2450.45 912.025 2431.88 912.025C2413.32 912.025 2398.75 906.598 2387.61 895.458C2376.47 884.319 2370.76 869.752 2370.76 852.614C2370.76 835.476 2376.47 820.908 2387.61 809.769Z" fill="#B4B4B4"/>
<path d="M2796.35 751.5H2743.51C2741.51 751.5 2739.79 752.642 2739.22 754.07L2683.53 892.602L2627.54 754.07C2626.97 752.356 2625.26 751.5 2623.26 751.5H2570.41C2568.99 751.5 2567.56 752.071 2566.7 753.213C2565.84 754.356 2565.56 755.784 2566.13 756.927L2650.39 950.585C2650.96 952.299 2652.68 953.156 2654.68 953.156H2712.66C2714.66 953.156 2716.09 952.014 2716.94 950.585L2800.63 756.927C2800.63 756.927 2800.92 754.356 2800.06 753.213C2799.21 752.071 2797.78 751.5 2796.35 751.5Z" fill="#B4B4B4"/>
<path d="M2955.16 754.07C2954.59 752.356 2952.88 751.5 2950.88 751.5H2892.89C2891.18 751.5 2889.47 752.642 2888.61 754.07L2804.35 947.729C2804.35 947.729 2804.06 950.3 2804.92 951.442C2805.78 952.585 2807.2 953.156 2808.63 953.156H2861.47C2863.47 953.156 2865.19 952.014 2865.76 950.585L2878.33 920.308H2965.16L2977.44 950.585C2978.01 952.299 2979.73 953.156 2981.73 953.156H3034.57C3036 953.156 3037.42 952.585 3038.28 951.442C3039.14 950.3 3039.42 948.872 3038.85 947.729L2955.16 754.07ZM2949.45 876.321H2894.61L2922.03 808.912L2949.45 876.321Z" fill="#B4B4B4"/>
<path d="M3056.85 751.5C3054.28 751.5 3052.28 753.213 3052.28 755.498V791.774C3052.28 794.059 3054.28 795.773 3056.85 795.773H3115.97V949.157C3115.97 951.442 3117.97 953.156 3120.54 953.156H3167.1C3169.67 953.156 3171.67 951.442 3171.67 949.157V795.773H3230.51C3233.08 795.773 3235.08 794.059 3235.08 791.774V755.498C3235.08 753.213 3233.08 751.5 3230.51 751.5H3057.13H3056.85Z" fill="#B4B4B4"/>
<path d="M3321.63 751.5H3275.36C3272.79 751.5 3270.79 753.213 3270.79 755.498V949.157C3270.79 951.442 3272.79 953.156 3275.36 953.156H3321.63C3324.2 953.156 3326.2 951.442 3326.2 949.157V755.498C3326.2 753.213 3324.2 751.5 3321.63 751.5Z" fill="#B4B4B4"/>
<path d="M3582.7 751.5H3529.86C3527.86 751.5 3526.14 752.642 3525.57 754.07L3469.87 892.602L3413.89 754.07C3413.32 752.356 3411.6 751.5 3409.61 751.5H3356.76C3355.33 751.5 3353.91 752.071 3353.05 753.213C3352.19 754.356 3351.91 755.784 3352.48 756.927L3436.74 950.585C3437.31 952.299 3439.03 953.156 3441.02 953.156H3499.01C3501.01 953.156 3502.44 952.014 3503.29 950.585L3586.98 756.927C3586.98 756.927 3587.27 754.356 3586.41 753.213C3585.56 752.071 3584.13 751.5 3582.7 751.5Z" fill="#B4B4B4"/>
<path d="M3772.07 751.5H3618.12C3615.55 751.5 3613.55 753.213 3613.55 755.498V949.157C3613.55 951.442 3615.55 953.156 3618.12 953.156H3772.07C3774.64 953.156 3776.64 951.442 3776.64 949.157V912.882C3776.64 910.597 3774.64 908.883 3772.07 908.883H3668.96V873.179H3769.79C3772.36 873.179 3774.36 871.465 3774.36 869.18V832.905C3774.36 830.62 3772.36 828.906 3769.79 828.906H3668.96V796.058H3772.07C3774.64 796.058 3776.64 794.344 3776.64 792.059V755.784C3776.64 753.499 3774.64 751.785 3772.07 751.785V751.5Z" fill="#B4B4B4"/>
<path d="M4155.11 840.331C4145.68 836.618 4135.4 832.905 4124.55 830.048C4113.69 826.906 4103.41 824.621 4093.98 823.193C4085.41 821.765 4077.99 819.48 4072.27 816.624C4065.13 812.91 4065.13 809.483 4065.13 808.34C4065.13 803.485 4067.13 800.057 4071.42 797.486C4075.99 794.63 4082.84 792.916 4091.7 792.916C4115.41 792.916 4135.69 799.771 4151.97 813.196C4152.82 814.053 4154.25 814.339 4155.39 814.339C4156.54 814.339 4157.96 813.767 4158.54 812.625L4184.24 782.348C4185.67 780.634 4185.39 778.349 4183.67 776.921C4160.82 758.355 4131.4 748.929 4095.7 748.929C4069.7 748.929 4048.57 754.927 4032.86 766.924C4016.86 778.92 4008.86 794.059 4008.86 812.054C4008.86 824.336 4012.29 834.904 4018.86 843.473C4025.43 852.042 4034 858.326 4044 862.325C4053.42 866.038 4063.71 869.466 4074.56 872.322C4085.41 875.178 4095.98 877.463 4105.12 879.177C4113.69 880.605 4121.12 882.89 4126.54 886.318C4131.4 888.889 4133.69 892.316 4133.69 896.03C4133.69 900.6 4131.12 904.599 4125.69 908.026C4119.98 911.739 4111.41 913.453 4100.55 913.453C4074.56 913.453 4052.57 905.17 4034.86 888.603C4034 887.746 4032.57 887.175 4031.14 887.461C4029.72 887.461 4028.57 888.032 4027.72 889.174L4002.58 920.594C4001.44 922.308 4001.44 924.307 4003.15 925.735C4026.57 946.872 4058.56 957.726 4098.27 957.726C4127.4 957.726 4150.25 951.728 4165.96 939.731C4181.67 927.449 4189.96 911.454 4189.96 891.745C4189.96 879.748 4186.53 869.18 4179.96 860.611C4173.39 852.042 4164.82 845.473 4155.11 841.474V840.331Z" fill="#B4B4B4"/>
<path d="M4335.06 748.358C4301.07 748.358 4272.79 758.355 4250.51 777.778C4228.23 797.486 4217.09 822.622 4217.09 852.614C4217.09 882.605 4228.23 907.741 4250.51 927.449C4272.79 947.158 4301.07 956.87 4335.06 956.87C4369.05 956.87 4397.61 946.872 4419.89 927.449C4442.17 908.026 4453.31 882.605 4453.31 852.614C4453.31 822.622 4442.17 797.201 4419.89 777.778C4397.61 758.355 4369.05 748.358 4335.06 748.358ZM4290.78 809.769C4301.92 798.629 4316.49 793.202 4335.06 793.202C4353.62 793.202 4368.19 798.629 4379.62 809.769C4391.04 820.908 4396.75 835.476 4396.75 852.614C4396.75 869.752 4391.04 884.319 4379.62 895.458C4368.19 906.598 4353.62 912.025 4335.06 912.025C4316.49 912.025 4301.92 906.598 4290.78 895.458C4279.64 884.319 4273.93 869.752 4273.93 852.614C4273.93 835.476 4279.64 820.908 4290.78 809.769Z" fill="#B4B4B4"/>
<path d="M4650.68 751.5H4496.73C4494.15 751.5 4492.16 753.213 4492.16 755.498V949.157C4492.16 951.442 4494.15 953.156 4496.73 953.156H4543C4545.57 953.156 4547.57 951.442 4547.57 949.157V872.893H4648.4C4650.97 872.893 4652.97 871.18 4652.97 868.895V832.619C4652.97 830.334 4650.97 828.62 4648.4 828.62H4547.57V795.773H4650.68C4653.25 795.773 4655.25 794.059 4655.25 791.774V755.498C4655.25 753.213 4653.25 751.5 4650.68 751.5Z" fill="#B4B4B4"/>
<path d="M4684.96 751.5C4682.39 751.5 4680.39 753.213 4680.39 755.498V791.774C4680.39 794.059 4682.39 795.773 4684.96 795.773H4744.08V949.157C4744.08 951.442 4746.08 953.156 4748.65 953.156H4795.21C4797.78 953.156 4799.78 951.442 4799.78 949.157V795.773H4858.62C4861.19 795.773 4863.19 794.059 4863.19 791.774V755.498C4863.19 753.213 4861.19 751.5 4858.62 751.5H4685.24H4684.96Z" fill="#B4B4B4"/>
<path d="M5180.82 751.5H5128.55C5126.55 751.5 5124.55 752.928 5124.26 754.641L5090.56 879.177L5054 754.641C5053.42 752.928 5051.71 751.5 5049.71 751.5H5013.44C5011.44 751.5 5009.44 752.642 5009.15 754.641L4972.3 879.177L4938.31 754.641C4937.74 752.928 4936.03 751.5 4934.03 751.5H4882.33C4882.33 751.5 4879.47 752.071 4878.62 753.213C4877.76 754.356 4877.47 755.498 4877.76 756.641L4940.03 950.3C4940.6 952.014 4942.31 953.156 4944.31 953.156H4993.44C4995.44 953.156 4997.44 952.014 4997.73 950.014L5031.15 832.334L5064.85 950.014C5065.42 951.728 5067.14 953.156 5069.13 953.156H5118.26C5120.26 953.156 5121.98 952.014 5122.55 950.3L5184.53 756.641C5184.53 756.641 5184.53 754.07 5183.67 753.213C5182.82 752.071 5181.39 751.5 5179.96 751.5H5180.82Z" fill="#B4B4B4"/>
<path d="M5341.34 754.07C5340.77 752.356 5339.06 751.5 5337.06 751.5H5279.08C5277.08 751.5 5275.65 752.642 5274.79 754.07L5190.53 947.729C5190.53 947.729 5190.24 950.3 5191.1 951.442C5191.96 952.585 5193.39 953.156 5194.81 953.156H5247.66C5249.66 953.156 5251.37 952.014 5251.94 950.585L5264.51 920.308H5351.34L5363.62 950.585C5364.19 952.299 5365.91 953.156 5367.91 953.156H5420.75C5422.18 953.156 5423.61 952.585 5424.46 951.442C5425.32 950.3 5425.61 948.872 5425.03 947.729L5341.34 754.07ZM5335.34 876.321H5280.5L5307.92 808.912L5335.34 876.321Z" fill="#B4B4B4"/>
<path d="M5590.42 878.035C5602.13 874.607 5612.41 868.323 5620.69 859.183C5630.69 848.615 5635.55 834.619 5635.55 818.052C5635.55 798.629 5628.4 782.633 5614.41 770.066C5600.41 757.783 5581.56 751.5 5557.85 751.5H5456.17C5453.6 751.5 5451.6 753.213 5451.6 755.498V949.157C5451.6 951.442 5453.6 953.156 5456.17 953.156H5502.44C5505.01 953.156 5507.01 951.442 5507.01 949.157V884.319H5533.86L5575.28 951.157C5575.28 951.157 5577.56 953.156 5579.28 953.156H5632.4C5634.12 953.156 5635.55 952.299 5636.4 951.157C5637.26 950.014 5637.26 948.3 5636.4 947.158L5590.42 877.749V878.035ZM5507.01 796.058H5551C5559.57 796.058 5566.14 798.058 5571.56 802.057C5576.7 806.055 5579.28 811.197 5579.28 818.052C5579.28 824.907 5576.71 830.049 5571.85 834.047C5566.71 838.046 5559.85 840.046 5551.28 840.046H5507.3V795.773L5507.01 796.058Z" fill="#B4B4B4"/>
<path d="M5835.2 751.5H5681.25C5678.68 751.5 5676.68 753.213 5676.68 755.498V949.157C5676.68 951.442 5678.68 953.156 5681.25 953.156H5835.2C5837.77 953.156 5839.77 951.442 5839.77 949.157V912.882C5839.77 910.597 5837.77 908.883 5835.2 908.883H5732.09V873.179H5832.92C5835.49 873.179 5837.49 871.465 5837.49 869.18V832.905C5837.49 830.62 5835.49 828.906 5832.92 828.906H5732.09V796.058H5835.2C5837.77 796.058 5839.77 794.344 5839.77 792.059V755.784C5839.77 753.499 5837.77 751.785 5835.2 751.785V751.5Z" fill="#B4B4B4"/>
<path d="M6256.23 779.206C6233.95 760.64 6205.1 751.5 6169.97 751.5H6084.28C6081.71 751.5 6079.71 753.213 6079.71 755.498V949.157C6079.71 951.442 6081.71 953.156 6084.28 953.156H6169.97C6205.38 953.156 6234.52 943.73 6256.51 925.45C6278.79 906.884 6289.93 882.319 6289.93 852.328C6289.93 822.336 6278.79 797.486 6256.51 779.206H6256.23ZM6135.12 796.058H6169.97C6189.96 796.058 6205.96 801.485 6216.81 811.768C6227.95 822.336 6233.66 836.047 6233.66 852.614C6233.66 869.18 6227.95 882.034 6216.52 892.888C6205.1 903.742 6189.96 909.169 6170.25 909.169H6135.4V796.058H6135.12Z" fill="#B4B4B4"/>
<path d="M6487.3 751.5H6333.35C6330.78 751.5 6328.78 753.213 6328.78 755.498V949.157C6328.78 951.442 6330.78 953.156 6333.35 953.156H6487.3C6489.88 953.156 6491.87 951.442 6491.87 949.157V912.882C6491.87 910.597 6489.88 908.883 6487.3 908.883H6384.19V873.179H6485.02C6487.59 873.179 6489.59 871.465 6489.59 869.18V832.905C6489.59 830.62 6487.59 828.906 6485.02 828.906H6384.19V796.058H6487.3C6489.88 796.058 6491.87 794.344 6491.87 792.059V755.784C6491.87 753.499 6489.88 751.785 6487.3 751.785V751.5Z" fill="#B4B4B4"/>
<path d="M6741.8 751.5H6688.96C6686.96 751.5 6685.25 752.642 6684.68 754.07L6628.98 892.602L6572.99 754.07C6572.42 752.356 6570.71 751.5 6568.71 751.5H6515.87C6514.44 751.5 6513.01 752.071 6512.15 753.213C6511.3 754.356 6511.01 755.784 6511.58 756.927L6595.85 950.585C6596.42 952.299 6598.13 953.156 6600.13 953.156H6658.11C6660.11 953.156 6661.54 952.014 6662.4 950.585L6746.09 756.927C6746.09 756.927 6746.37 754.356 6745.52 753.213C6744.66 752.071 6743.23 751.5 6741.8 751.5Z" fill="#B4B4B4"/>
<path d="M6931.18 751.5H6777.22C6774.65 751.5 6772.65 753.213 6772.65 755.498V949.157C6772.65 951.442 6774.65 953.156 6777.22 953.156H6931.18C6933.75 953.156 6935.75 951.442 6935.75 949.157V912.882C6935.75 910.597 6933.75 908.883 6931.18 908.883H6828.07V873.179H6928.89C6931.46 873.179 6933.46 871.465 6933.46 869.18V832.905C6933.46 830.62 6931.46 828.906 6928.89 828.906H6828.07V796.058H6931.18C6933.75 796.058 6935.75 794.344 6935.75 792.059V755.784C6935.75 753.499 6933.75 751.785 6931.18 751.785V751.5Z" fill="#B4B4B4"/>
<path d="M7033.44 908.883V755.498C7033.44 753.213 7031.44 751.5 7028.87 751.5H6982.59C6980.02 751.5 6978.02 753.213 6978.02 755.498V949.157C6978.02 951.442 6980.02 953.156 6982.59 953.156H7120.84C7123.41 953.156 7125.41 951.442 7125.41 949.157V912.882C7125.41 910.597 7123.41 908.883 7120.84 908.883H7033.44Z" fill="#B4B4B4"/>
<path d="M7271.37 748.358C7237.38 748.358 7209.1 758.355 7186.82 777.778C7164.54 797.486 7153.4 822.622 7153.4 852.614C7153.4 882.605 7164.54 907.741 7186.82 927.449C7209.1 947.158 7237.38 956.87 7271.37 956.87C7305.36 956.87 7333.92 946.872 7356.2 927.449C7378.48 908.026 7389.62 882.605 7389.62 852.614C7389.62 822.622 7378.48 797.201 7356.2 777.778C7333.92 758.355 7305.36 748.358 7271.37 748.358ZM7227.09 809.769C7238.23 798.629 7252.8 793.202 7271.37 793.202C7289.93 793.202 7304.5 798.629 7315.93 809.769C7327.35 820.908 7333.06 835.476 7333.06 852.614C7333.06 869.752 7327.35 884.319 7315.93 895.458C7304.5 906.598 7289.93 912.025 7271.37 912.025C7252.8 912.025 7238.23 906.598 7227.09 895.458C7215.96 884.319 7210.24 869.752 7210.24 852.614C7210.24 835.476 7215.96 820.908 7227.09 809.769Z" fill="#B4B4B4"/>
<path d="M7535.01 751.5H7433.32C7430.75 751.5 7428.75 753.213 7428.75 755.498V949.157C7428.75 951.442 7430.75 953.156 7433.32 953.156H7479.59C7482.16 953.156 7484.16 951.442 7484.16 949.157V884.319H7535.01C7558.71 884.319 7577.85 877.749 7591.85 865.181C7605.56 852.328 7612.7 836.618 7612.7 818.052C7612.7 799.486 7605.84 783.205 7592.13 770.637C7578.42 758.069 7559.29 751.5 7535.29 751.5H7535.01ZM7484.16 796.058H7528.72C7537.01 796.058 7543.58 798.058 7548.72 802.057C7553.86 806.055 7556.14 811.197 7556.14 818.052C7556.14 824.907 7553.57 830.049 7548.72 834.047C7543.58 838.046 7537.01 840.046 7528.72 840.046H7484.16V795.773V796.058Z" fill="#B4B4B4"/>
<path d="M7887.76 751.5H7822.64C7820.64 751.5 7819.21 752.642 7818.36 754.07L7769.8 861.754L7721.24 754.07C7720.67 752.642 7718.96 751.5 7716.96 751.5H7652.12C7649.55 751.5 7647.55 753.213 7647.55 755.498V949.157C7647.55 951.442 7649.55 953.156 7652.12 953.156H7698.39C7700.96 953.156 7702.96 951.442 7702.96 949.157V834.333L7755.52 950.585C7756.09 952.014 7757.8 953.156 7759.8 953.156H7780.08C7782.08 953.156 7783.51 952.014 7784.37 950.585L7836.92 834.333V949.157C7836.92 951.442 7838.92 953.156 7841.49 953.156H7888.05C7890.62 953.156 7892.62 951.442 7892.62 949.157V755.498C7892.62 753.213 7890.62 751.5 7888.05 751.5H7887.76Z" fill="#B4B4B4"/>
<path d="M8099.99 751.5H7946.03C7943.46 751.5 7941.46 753.213 7941.46 755.498V949.157C7941.46 951.442 7943.46 953.156 7946.03 953.156H8099.99C8102.56 953.156 8104.56 951.442 8104.56 949.157V912.882C8104.56 910.597 8102.56 908.883 8099.99 908.883H7996.88V873.179H8097.71C8100.28 873.179 8102.28 871.465 8102.28 869.18V832.905C8102.28 830.62 8100.28 828.906 8097.71 828.906H7996.88V796.058H8099.99C8102.56 796.058 8104.56 794.344 8104.56 792.059V755.784C8104.56 753.499 8102.56 751.785 8099.99 751.785V751.5Z" fill="#B4B4B4"/>
<path d="M8299.65 751.5C8297.08 751.5 8295.08 753.213 8295.08 755.498V864.896L8202.53 752.928C8202.53 752.928 8200.25 751.214 8198.82 751.214H8151.12C8148.55 751.214 8146.55 752.928 8146.55 755.213V948.872C8146.55 951.157 8148.55 952.871 8151.12 952.871H8197.39C8199.96 952.871 8201.96 951.157 8201.96 948.872V834.904L8297.36 951.442C8297.36 951.442 8299.65 953.156 8301.08 953.156H8345.63C8348.21 953.156 8350.2 951.442 8350.2 949.157V755.498C8350.2 753.213 8348.21 751.5 8345.63 751.5H8299.36H8299.65Z" fill="#B4B4B4"/>
<path d="M8391.05 751.5C8388.48 751.5 8386.48 753.213 8386.48 755.498V791.774C8386.48 794.059 8388.48 795.773 8391.05 795.773H8450.18V949.157C8450.18 951.442 8452.18 953.156 8454.75 953.156H8501.3C8503.88 953.156 8505.87 951.442 8505.87 949.157V795.773H8564.72C8567.29 795.773 8569.29 794.059 8569.29 791.774V755.498C8569.29 753.213 8567.29 751.5 8564.72 751.5H8391.34H8391.05Z" fill="#B4B4B4"/>
</g>
<defs>
<linearGradient id="paint0_linear_24_604" x1="1257.36" y1="320.765" x2="1378.75" y2="320.765" gradientUnits="userSpaceOnUse">
<stop stop-color="#00328F"/>
<stop offset="0.5" stop-color="#0086D7"/>
<stop offset="1" stop-color="#0054B9"/>
</linearGradient>
<linearGradient id="paint1_linear_24_604" x1="146.244" y1="194.23" x2="1252.5" y2="194.23" gradientUnits="userSpaceOnUse">
<stop stop-color="#00328F"/>
<stop offset="0.5" stop-color="#0086D7"/>
<stop offset="1" stop-color="#0054B9"/>
</linearGradient>
<linearGradient id="paint2_linear_24_604" x1="20.8512" y1="363.039" x2="516.425" y2="363.039" gradientUnits="userSpaceOnUse">
<stop stop-color="#00328F"/>
<stop offset="0.5" stop-color="#0086D7"/>
<stop offset="1" stop-color="#0054B9"/>
</linearGradient>
<linearGradient id="paint3_linear_24_604" x1="735.506" y1="512.711" x2="1398.75" y2="512.711" gradientUnits="userSpaceOnUse">
<stop stop-color="#00328F"/>
<stop offset="0.5" stop-color="#0086D7"/>
<stop offset="1" stop-color="#0054B9"/>
</linearGradient>
<linearGradient id="paint4_linear_24_604" x1="22.2794" y1="582.119" x2="643.246" y2="582.119" gradientUnits="userSpaceOnUse">
<stop stop-color="#00328F"/>
<stop offset="0.5" stop-color="#0086D7"/>
<stop offset="1" stop-color="#0054B9"/>
</linearGradient>
<linearGradient id="paint5_linear_24_604" x1="54.2703" y1="751.5" x2="54.2703" y2="909.74" gradientUnits="userSpaceOnUse">
<stop stop-color="#0092D4"/>
<stop offset="0.5" stop-color="#00ABE4"/>
<stop offset="1" stop-color="#0076C2"/>
</linearGradient>
<linearGradient id="paint6_linear_24_604" x1="351.9" y1="752.642" x2="351.9" y2="908.883" gradientUnits="userSpaceOnUse">
<stop stop-color="#0092D4"/>
<stop offset="0.5" stop-color="#00ABE4"/>
<stop offset="1" stop-color="#0076C2"/>
</linearGradient>
<linearGradient id="paint7_linear_24_604" x1="203.657" y1="752.642" x2="203.657" y2="908.883" gradientUnits="userSpaceOnUse">
<stop stop-color="#0092D4"/>
<stop offset="0.5" stop-color="#00ABE4"/>
<stop offset="1" stop-color="#0076C2"/>
</linearGradient>
<linearGradient id="paint8_linear_24_604" x1="483.006" y1="752.642" x2="483.006" y2="908.883" gradientUnits="userSpaceOnUse">
<stop stop-color="#0092D4"/>
<stop offset="0.5" stop-color="#00ABE4"/>
<stop offset="1" stop-color="#0076C2"/>
</linearGradient>
<clipPath id="clip0_24_604">
<rect width="8569" height="1000" fill="white"/>
</clipPath>
</defs>
</svg>
