<svg width="6040" height="1000" viewBox="0 0 6040 1000" fill="none" xmlns="http://www.w3.org/2000/svg">
<g clip-path="url(#clip0_24_555)">
<path d="M4654.89 493.389C4696.48 527.542 4714.49 581.661 4696.68 634.618C4680.77 681.894 4636.25 720.399 4581.1 720.465L4201.59 720.964L4274.71 303.09L4620.9 303.688C4667.01 303.754 4702.76 340 4711.53 380.033C4721.63 426.213 4700.7 471.163 4654.95 493.389H4654.89ZM4388.24 548.106L4402.12 468.538L4567.74 468.14C4585.95 468.106 4598.04 453.156 4597.51 436.944C4597.01 422.16 4584.92 409.103 4568.01 408.572L4362.65 408.704L4327.24 613.821H4554.02C4572.53 611.827 4585.38 596.678 4584.59 579.834C4583.79 562.99 4570.23 548.405 4551.33 548.372L4388.17 548.073L4388.24 548.106Z" fill="#000302"/>
<path d="M1887.55 673.821C1860.67 700.831 1824.59 718.771 1785.99 718.937L1449.77 720.233L1468.57 614.086L1796.02 613.655C1811.73 612.292 1822.13 605.116 1824.33 592.459C1826.52 579.801 1822.73 562.06 1806.52 561.894L1592.39 559.768C1543.29 559.269 1506.31 523.754 1496.01 477.176C1481.66 412.226 1512.33 348.405 1572.59 320.266C1599.44 307.741 1627.41 302.824 1657.91 303.09L1958.35 303.156L1940.71 409.369L1628.24 409.435C1613.32 408.97 1602.83 417.309 1602.33 430.698C1601.9 442.425 1610.1 455.05 1624.62 455.05L1817.05 455.216C1878.58 455.282 1929.31 483.92 1932.27 545.714C1934.49 592.691 1922.6 638.605 1887.58 673.821H1887.55Z" fill="#02D4BD"/>
<path d="M4062.38 548.206L3898.86 548.106L3912.81 467.741H4183.18L4138.93 720.299L3859.05 719.568C3791.44 712.824 3737.82 674.02 3714.47 610.665C3681.24 509.768 3720.91 399.535 3811.18 342.891C3850.62 318.14 3893.07 305.947 3940.25 303.023L4211.89 303.19L4193.31 409.336L3936.8 409.236C3869.98 408.206 3814.17 458.206 3810.65 524.419C3808.12 571.994 3840.15 612.459 3888.19 612.824L4051.02 613.987L4062.38 548.239V548.206Z" fill="#02D4BD"/>
<path d="M2645.21 608.439L2661.32 520.432L2811.62 519.901C2849.16 519.768 2877.67 493.223 2877.8 454.984C2879.17 430.997 2861.76 409.668 2836.64 409.668H2630.46L2575.44 720.233L2469.49 719.535L2542.71 302.99L2866.14 304.02C2899.5 304.12 2929.07 318.538 2952.49 339.602C2979 369.469 2987.91 407.176 2984.38 446.645C2980.86 514.12 2940.99 571.163 2875.21 595.05L2977.04 720.133L2825.94 719.967L2748.36 609.269L2645.21 608.472V608.439Z" fill="#02D4BD"/>
<path d="M3630.15 674.784C3625.73 699.767 3604.76 713.92 3586.82 718.771C3563.2 725.116 3540.97 718.505 3525.23 700.299L3322.73 466.345L3277.41 720.1L3175.85 720.166L3239.74 356.578C3244.39 330.066 3261.07 311.595 3284.16 305.249C3309.97 298.139 3332.63 307.608 3350.21 327.874L3550.21 558.505L3594.83 303.156L3696.16 303.222L3630.18 674.817L3630.15 674.784Z" fill="#02D4BD"/>
<path d="M2162.11 508.605L2317.69 507.641C2354.87 503.455 2379.82 472.459 2370.68 436.279C2364.27 420.798 2349.39 409.668 2331.65 409.635L2129.85 409.269L2074.96 720.067L1968.71 720L2041.97 303.19L2341.78 303.057C2366.76 303.057 2389.52 306.346 2411.75 315.714C2491.42 347.841 2495.14 454.053 2455.74 522.359C2425.1 575.482 2370.95 604.917 2309.98 609.901L2145 610.366L2162.11 508.638V508.605Z" fill="#02D4BD"/>
<path d="M4388.24 548.107L4551.4 548.406C4570.3 548.406 4583.86 563.024 4584.65 579.867C4585.45 596.711 4572.56 611.861 4554.09 613.854H4327.3L4362.72 408.738L4568.07 408.605C4584.98 409.103 4597.08 422.193 4597.58 436.977C4598.11 453.156 4586.01 468.107 4567.81 468.173L4402.19 468.572L4388.3 548.14L4388.24 548.107Z" fill="#FDFEFE"/>
<path d="M6039.83 302.226L6039.27 318.771L6021.69 409.136L5873.65 409.502L5818.93 720L5711.95 720.299L5766.27 409.601L5618.36 409.302L5637.1 303.123L6039.83 302.226Z" fill="#000302"/>
<path d="M5627.96 613.754L5609.99 718.439L5290.58 719.369L5364.2 302.625L5471.42 302.292L5416.56 612.658L5627.96 613.754Z" fill="#000302"/>
<path d="M3113.69 720L3006.74 720.1L3080.13 303.189H3186.95L3113.69 720Z" fill="#02D4BD"/>
<path d="M5268.39 429.036C5299.68 581.86 5171.41 720.399 5030.18 719.668L4897.52 718.97C4825.85 718.605 4766.28 667.043 4748.01 597.84C4726.48 516.345 4750.1 430.498 4810.8 372.492C4855.89 329.402 4913.93 303.787 4976.52 303.621L5099.68 303.289C5181.04 303.056 5252.04 349.103 5268.42 429.036H5268.39ZM5049.25 612.824C5115.66 609.302 5165.99 556.644 5164.07 491.927C5162.74 447.409 5130.31 410.166 5085.46 410.266L4961.04 410.465C4896.22 414.385 4846.52 469.801 4848.38 532.89C4849.74 578.97 4883.53 613.156 4929.08 613.056L5049.28 612.824H5049.25Z" fill="#000302"/>
<path d="M5049.25 612.824L4929.05 613.056C4883.5 613.156 4849.71 578.97 4848.35 532.89C4846.49 469.801 4896.15 414.352 4961.01 410.465L5085.43 410.266C5130.28 410.199 5162.7 447.409 5164.03 491.927C5165.96 556.644 5115.66 609.302 5049.21 612.824H5049.25Z" fill="#FDFEFE"/>
<path d="M1192.52 0.0664452V1000H0V0H1192.52V0.0664452ZM479.213 664.751H393.397H309.874H222.829L207.978 751.993L192.496 837.841L277.681 837.508L360.971 837.575H447.219L532.204 837.342L733.97 837.11C764.07 837.076 791.978 829.468 819.885 820C898.957 793.156 954.938 727.209 970.686 645.449C986.234 564.618 974.307 482.691 895.435 449.801C866.531 437.741 836.131 430.133 803.406 430.033L475.293 429.037C453.1 428.97 440.408 412.226 439.677 392.359C438.481 359.468 459.744 335.88 493.4 332.757L989.756 332.625L1019.36 160.299L516.39 160.698C471.206 163.987 431.604 170.731 391.736 189.236C308.346 227.973 258.577 309.867 262.198 402.159C264.557 462.359 295.787 514.153 351.47 538.937C375.125 549.468 401.072 557.708 428.514 557.841L764.867 559.336C780.648 559.402 793.838 568.007 801.28 576.279C811.945 588.173 813.672 602.027 810.151 618.671C805.001 643.056 780.715 664.02 753.372 664.086L479.246 664.85L479.213 664.751Z" fill="#02D4BD"/>
<path d="M532.205 837.276L546.856 752.691L462.502 752.193L479.247 664.751L753.372 663.987C780.748 663.92 805.001 642.957 810.151 618.571C813.673 601.927 811.945 588.073 801.28 576.179C793.838 567.907 780.649 559.302 764.868 559.236L428.515 557.741C401.105 557.608 375.125 549.369 351.47 538.837C295.787 514.053 264.558 462.259 262.199 402.06C258.577 309.767 308.346 227.874 391.736 189.136C431.604 170.598 471.24 163.887 516.39 160.598L1019.36 160.199L989.756 332.525L493.4 332.658C459.745 335.781 438.515 359.369 439.678 392.259C440.375 412.093 453.067 428.87 475.293 428.937L803.407 429.933C836.132 430.033 866.498 437.608 895.435 449.701C974.307 482.624 986.268 564.551 970.686 645.349C954.938 727.11 898.924 793.023 819.885 819.9C791.978 829.369 764.07 836.977 733.97 837.01L532.205 837.242V837.276Z" fill="#000302"/>
<path d="M479.213 664.75L462.469 752.192L546.823 752.691L532.205 837.275L447.186 837.508L462.768 753.222L377.284 752.624L393.398 664.75H479.213Z" fill="#FDFEFE"/>
<path d="M309.874 664.75L293.761 752.491L376.919 753.023L360.939 837.508L277.681 837.442L293.263 752.857L207.979 751.96L222.829 664.717L309.874 664.75Z" fill="#FDFEFE"/>
<path d="M393.398 664.75L377.284 752.624L462.768 753.222L447.186 837.508H360.938L376.919 753.023L293.761 752.491L309.874 664.75H393.398Z" fill="#000302"/>
<path d="M277.681 837.442L192.496 837.807L207.978 751.96L293.262 752.857L277.681 837.442Z" fill="#000302"/>
</g>
<defs>
<clipPath id="clip0_24_555">
<rect width="6040" height="1000" fill="white"/>
</clipPath>
</defs>
</svg>
