<svg width="5488" height="1000" viewBox="0 0 5488 1000" fill="none" xmlns="http://www.w3.org/2000/svg">
<path d="M5367.87 687.21L5291.07 544.781H5279.55V687.21H5172.03V301.008H5341.54C5372.62 301.008 5398.95 306.487 5420.52 317.443C5442.11 328.033 5458.38 342.824 5469.35 361.814C5480.32 380.44 5485.81 401.439 5485.81 424.812C5485.81 451.106 5478.49 474.296 5463.86 494.383C5449.6 514.104 5428.57 528.164 5400.78 536.564L5488 687.21H5367.87ZM5279.55 471.375H5332.76C5347.38 471.375 5358.36 467.906 5365.67 460.967C5372.99 454.029 5376.64 443.984 5376.64 430.838C5376.64 418.421 5372.8 408.743 5365.12 401.805C5357.81 394.5 5347.03 390.849 5332.76 390.849H5279.55V471.375Z" fill="black"/>
<path d="M4999.87 387.013V450.011H5123.29V531.633H4999.87V601.205H5139.76V687.21H4892.36V301.008H5139.76V387.013H4999.87Z" fill="black"/>
<path d="M4873.43 301.008V386.465H4770.3V687.21H4662.78V386.465H4560.75V301.008H4873.43Z" fill="black"/>
<path d="M4408.73 691.044C4363.76 691.044 4326.82 680.454 4297.93 659.271C4269.03 637.725 4253.5 607.048 4251.31 567.241H4365.95C4367.04 580.754 4371.07 590.613 4378.02 596.821C4384.96 603.031 4393.92 606.135 4404.9 606.135C4414.77 606.135 4422.82 603.761 4429.03 599.013C4435.61 593.9 4438.91 586.962 4438.91 578.197C4438.91 566.875 4433.6 558.111 4422.99 551.902C4412.39 545.694 4395.21 538.755 4371.44 531.086C4346.2 522.686 4325.72 514.651 4310 506.982C4294.64 498.948 4281.1 487.444 4269.4 472.471C4258.07 457.132 4252.4 437.229 4252.4 412.761C4252.4 387.926 4258.62 366.745 4271.04 349.216C4283.48 331.32 4300.67 317.808 4322.61 308.677C4344.55 299.548 4369.42 294.983 4397.22 294.983C4442.2 294.983 4478.04 305.574 4504.73 326.756C4531.79 347.571 4546.24 376.97 4548.06 414.951H4431.22C4430.86 403.266 4427.21 394.5 4420.26 388.657C4413.67 382.814 4405.08 379.892 4394.47 379.892C4386.42 379.892 4379.84 382.266 4374.72 387.013C4369.6 391.762 4367.04 398.518 4367.04 407.282C4367.04 414.587 4369.79 420.977 4375.27 426.456C4381.13 431.568 4388.26 436.133 4396.67 440.15C4405.08 443.802 4417.52 448.55 4433.97 454.393C4458.47 462.793 4478.59 471.193 4494.31 479.593C4510.4 487.626 4524.11 499.131 4535.46 514.104C4547.16 528.712 4553 547.337 4553 569.98C4553 592.987 4547.16 613.621 4535.46 631.881C4524.11 650.142 4507.47 664.567 4485.53 675.158C4463.96 685.749 4438.36 691.044 4408.73 691.044Z" fill="black"/>
<path d="M4037.31 691.044C4001.11 691.044 3967.82 682.644 3937.47 665.845C3907.12 648.681 3882.98 625.125 3865.06 595.179C3847.5 564.867 3838.73 530.72 3838.73 492.739C3838.73 454.758 3847.5 420.795 3865.06 390.849C3882.98 360.537 3907.12 336.981 3937.47 320.182C3967.82 303.382 4001.11 294.983 4037.31 294.983C4073.88 294.983 4107.15 303.382 4137.14 320.182C4167.5 336.981 4191.45 360.537 4209 390.849C4226.56 420.795 4235.33 454.758 4235.33 492.739C4235.33 530.72 4226.56 564.867 4209 595.179C4191.45 625.125 4167.5 648.681 4137.14 665.845C4106.79 682.644 4073.51 691.044 4037.31 691.044ZM4037.31 591.344C4064.74 591.344 4086.31 582.396 4102.04 564.501C4118.13 546.607 4126.18 522.686 4126.18 492.739C4126.18 462.063 4118.13 437.96 4102.04 420.43C4086.31 402.535 4064.74 393.587 4037.31 393.587C4009.51 393.587 3987.75 402.535 3972.03 420.43C3956.3 437.96 3948.44 462.063 3948.44 492.739C3948.44 523.051 3956.3 547.155 3972.03 565.05C3987.75 582.579 4009.51 591.344 4037.31 591.344Z" fill="black"/>
<path d="M3626.39 691.044C3590.17 691.044 3556.9 682.644 3526.54 665.845C3496.19 648.681 3472.06 625.125 3454.14 595.179C3436.58 564.867 3427.81 530.72 3427.81 492.739C3427.81 454.758 3436.58 420.795 3454.14 390.849C3472.06 360.537 3496.19 336.981 3526.54 320.182C3556.9 303.382 3590.17 294.983 3626.39 294.983C3662.95 294.983 3696.23 303.382 3726.22 320.182C3756.58 336.981 3780.53 360.537 3798.08 390.849C3815.64 420.795 3824.41 454.758 3824.41 492.739C3824.41 530.72 3815.64 564.867 3798.08 595.179C3780.53 625.125 3756.58 648.681 3726.22 665.845C3695.86 682.644 3662.59 691.044 3626.39 691.044ZM3626.39 591.344C3653.82 591.344 3675.39 582.396 3691.11 564.501C3707.21 546.607 3715.24 522.686 3715.24 492.739C3715.24 462.063 3707.21 437.96 3691.11 420.43C3675.39 402.535 3653.82 393.587 3626.39 393.587C3598.59 393.587 3576.83 402.535 3561.1 420.43C3545.38 437.96 3537.52 462.063 3537.52 492.739C3537.52 523.051 3545.38 547.155 3561.1 565.05C3576.83 582.579 3598.59 591.344 3626.39 591.344Z" fill="black"/>
<path d="M3340.64 488.905C3363.32 494.018 3381.24 505.339 3394.41 522.869C3407.93 540.033 3414.7 559.754 3414.7 582.031C3414.7 614.9 3403.36 640.646 3380.69 659.271C3358.01 677.896 3326.2 687.21 3285.24 687.21H3093.79V301.008H3279.2C3318.7 301.008 3349.61 309.774 3371.92 327.304C3394.58 344.833 3405.92 369.485 3405.92 401.256C3405.92 423.899 3399.89 442.889 3387.82 458.227C3376.12 473.201 3360.39 483.427 3340.64 488.905ZM3201.31 454.393H3255.62C3282.68 454.393 3296.22 443.255 3296.22 420.977C3296.22 397.97 3282.68 386.465 3255.62 386.465H3201.31V454.393ZM3263.85 600.656C3290.91 600.656 3304.44 589.336 3304.44 566.693C3304.44 555.006 3300.79 546.06 3293.47 539.85C3286.53 533.642 3276.47 530.538 3263.3 530.538H3201.31V600.656H3263.85Z" fill="black"/>
<path d="M2945.37 687.21L2824.14 517.938V687.21H2716.62V301.008H2824.14V467.54L2944.27 301.008H3068.24L2926.16 488.357L3075.37 687.21H2945.37Z" fill="black"/>
<path d="M2308.6 493.288C2308.6 455.307 2316.47 421.525 2332.19 391.944C2348.28 361.998 2370.96 338.807 2400.21 322.374C2429.47 305.574 2463.11 297.174 2501.15 297.174C2549.42 297.174 2590.02 310.139 2622.92 336.068C2655.84 361.632 2677.05 396.51 2686.55 440.699H2570.81C2563.86 426.09 2554.17 414.952 2541.74 407.282C2529.67 399.613 2515.59 395.779 2499.51 395.779C2474.64 395.779 2454.7 404.726 2439.71 422.621C2425.08 440.151 2417.77 463.706 2417.77 493.288C2417.77 523.235 2425.08 547.155 2439.71 565.05C2454.7 582.58 2474.64 591.344 2499.51 591.344C2515.59 591.344 2529.67 587.51 2541.74 579.84C2554.17 572.171 2563.86 561.032 2570.81 546.425H2686.55C2677.05 590.614 2655.84 625.673 2622.92 651.602C2590.02 677.167 2549.42 689.949 2501.15 689.949C2463.11 689.949 2429.47 681.732 2400.21 665.298C2370.96 648.499 2348.28 625.308 2332.19 595.726C2316.47 565.78 2308.6 531.633 2308.6 493.288Z" fill="black"/>
<path d="M2173.18 624.212H2036.04L2015.19 687.21H1902.19L2043.17 301.008H2167.14L2307.57 687.21H2194.02L2173.18 624.212ZM2146.3 542.042L2104.61 417.143L2063.46 542.042H2146.3Z" fill="black"/>
<path d="M1909.59 301.008V386.465H1806.46V687.21H1698.95V386.465H1596.91V301.008H1909.59Z" fill="black"/>
<path d="M1444.9 691.044C1399.92 691.044 1362.99 680.454 1334.09 659.271C1305.2 637.725 1289.67 607.048 1287.46 567.241H1402.12C1403.21 580.754 1407.24 590.613 1414.19 596.821C1421.13 603.031 1430.09 606.135 1441.06 606.135C1450.94 606.135 1458.99 603.761 1465.2 599.013C1471.78 593.9 1475.07 586.962 1475.07 578.197C1475.07 566.875 1469.77 558.111 1459.16 551.902C1448.56 545.694 1431.37 538.755 1407.61 531.086C1382.37 522.686 1361.89 514.651 1346.17 506.982C1330.81 498.948 1317.27 487.444 1305.57 472.471C1294.24 457.132 1288.56 437.229 1288.56 412.761C1288.56 387.926 1294.79 366.745 1307.21 349.216C1319.65 331.32 1336.83 317.808 1358.79 308.677C1380.73 299.548 1405.59 294.983 1433.38 294.983C1478.37 294.983 1514.2 305.574 1540.9 326.756C1567.96 347.571 1582.4 376.97 1584.23 414.951H1467.39C1467.02 403.266 1463.37 394.5 1456.43 388.657C1449.84 382.814 1441.25 379.892 1430.64 379.892C1422.59 379.892 1416.01 382.266 1410.89 387.013C1405.77 391.762 1403.21 398.518 1403.21 407.282C1403.21 414.587 1405.95 420.977 1411.44 426.456C1417.3 431.568 1424.43 436.133 1432.83 440.15C1441.25 443.802 1453.68 448.55 1470.14 454.393C1494.64 462.793 1514.75 471.193 1530.47 479.593C1546.57 487.626 1560.28 499.131 1571.61 514.104C1583.32 528.712 1589.17 547.337 1589.17 569.98C1589.17 592.987 1583.32 613.621 1571.61 631.881C1560.28 650.142 1543.64 664.567 1521.7 675.158C1500.13 685.749 1474.52 691.044 1444.9 691.044Z" fill="black"/>
<path d="M520.678 0C527.018 4.10211 533.216 4.3835 539.372 10.7654C552.97 24.8679 550.337 41.5875 550.335 59.8493L550.183 111.305C551.072 111.376 551.961 111.459 552.845 111.549C632.186 118.905 707.71 149.001 770.325 198.207C781.644 206.969 803.877 225.845 812.979 236.944C827.123 226.246 840.863 214.387 854.947 203.52C862.52 197.919 869.895 190.605 878.407 186.5C893.711 179.338 911.677 183.952 922.41 196.765C932.661 208.27 933.335 229.514 923.91 241.676C918.29 248.929 905.801 257.89 898.206 263.963L859.9 294.445C917.224 380.649 939.283 476.931 927.375 579.613L969.609 589.215C979.745 591.524 996.753 594.638 1005.38 599.039C1010.69 601.729 1015.19 605.775 1018.44 610.758C1023.82 618.962 1026.19 628.734 1024.11 638.405C1022.01 648.475 1015.91 657.264 1007.22 662.783C991.169 672.883 974.853 666.321 957.833 662.481L911.447 651.925C911.009 653.629 910.52 655.326 909.994 657.006C885.324 736.28 828.15 814.081 760.977 862.619C751.692 869.329 738.417 879.014 728.322 884.336L734.39 896.309C741.559 910.726 748.101 925.539 755.491 940.139C764.089 957.127 764.018 973.963 749.609 988.025C734.941 1002.34 710.029 1001.21 696.689 985.712C690.416 978.424 685.222 965.144 680.831 956.113L661.882 917.003C586.682 945.468 504.882 951.779 426.198 935.187C405.223 930.968 384.646 924.962 364.699 917.237C361.315 922.895 357.743 930.786 354.875 936.756L342.4 962.646C335.355 977.512 331.169 990.101 314.302 996.001C305.026 999.321 294.795 998.77 285.934 994.467C276.877 990.049 269.974 982.186 266.765 972.644C264.721 966.461 264.388 959.84 265.811 953.486C267.4 946.23 273.35 935.268 276.739 928.142C283.589 913.694 290.569 899.308 297.677 884.987C276.508 871.498 256.215 857.276 237.189 840.786C182.687 793.544 134.334 721.757 113.982 652.205L59.6439 664.632C44.2881 668.124 32.8259 671.463 18.5127 662.376C10.6444 657.382 4.5361 649.105 2.5741 639.951C0.333937 629.945 2.20579 619.459 7.78234 610.851C11.2053 605.586 15.999 601.344 21.64 598.575C27.9354 595.436 35.5236 593.863 42.4264 592.436C61.0356 588.596 79.5529 583.708 98.1593 579.938C89.1306 499.007 99.5647 424.382 134.163 349.935C144.031 328.705 153.655 313.279 166.041 293.631C160.202 289.973 150.425 281.605 144.65 277.088C133.824 268.621 123.011 259.718 112.191 251.21C102.885 243.888 96.8363 235.874 95.6947 223.761C94.7864 213.96 97.8058 204.2 104.088 196.614C110.51 188.845 119.817 184.011 129.874 183.221C135.445 182.773 142.773 183.886 147.824 186.383C155.172 190.238 161.878 195.817 168.284 201.067C182.876 213.03 198.057 224.435 212.45 236.607C223.502 225.585 233.435 215.931 245.513 205.892C310.834 151.445 391.374 118.406 476.163 111.282C475.974 98.0038 475.979 83.2126 476.082 69.8824C476.166 59.2954 474.953 35.1355 477.675 26.3439C482.937 9.36336 492.873 6.65974 505.751 0H520.678ZM501.612 183.745C311.807 189.905 162.943 348.561 169.133 538.086C175.327 727.608 334.222 876.227 524.026 870.024C713.799 863.819 862.614 705.188 856.423 515.695C850.233 326.204 691.383 177.589 501.612 183.745Z" fill="#4B86FA"/>
<path d="M391.198 525.856C394.387 536.475 397.743 553.531 400.544 564.918C406.014 587.387 412.036 609.726 418.588 631.906C421.362 640.419 424.194 649.933 429.666 657.121C419.089 660.907 405.506 664.11 394.476 667.283C388.006 669.146 371.053 674.377 365.784 674.932C362.314 675.324 358.788 674.757 355.623 673.282C343.815 667.73 345.25 651.13 346.009 640.252C346.632 596.885 356.729 555.015 391.198 525.856ZM633.823 525.519C640.064 530.861 646.126 536.233 651.215 542.818C669.557 566.556 676.236 595.802 678.663 625.081C679.052 629.793 679.781 640.342 679.464 644.868C680.423 654.412 680.474 667.564 670.769 672.724C667.394 674.513 663.562 675.275 659.76 674.91C654.353 674.401 641.107 670.157 635.439 668.55C622.425 664.861 609.183 661.124 596.261 657.145C599.483 652.731 602.452 644.863 604.666 639.613C616.101 602.043 625.831 563.968 633.823 525.519ZM512.812 304.432C535.852 313.211 565.128 338.696 580.09 358.096C596.343 378.79 606.2 403.774 608.456 429.979C608.877 435.261 609.154 442.432 608.468 447.695C608.627 461.611 604.129 485.66 601.492 499.337C596.656 524.41 590.491 550.567 583.833 575.242C578.854 593.698 573.447 615.343 567.627 633.499H457.882C445.561 589.782 433.08 545.979 424.447 501.349C422.528 491.432 417.771 466.476 417.564 456.577C417.066 454.381 416.772 448.508 416.681 446.196C416.02 426.383 419.697 406.663 427.458 388.417C439.928 359.164 464.414 333.551 490.875 316.523C497.588 312.202 505.429 307.414 512.812 304.432ZM511.556 387.707C495.758 388.544 483.619 401.994 484.434 417.771C485.25 433.549 498.707 445.685 514.51 444.894C530.344 444.1 542.531 430.627 541.713 414.818C540.895 399.01 527.387 386.871 511.556 387.707Z" fill="white"/>
<path d="M391.198 525.856C394.387 536.475 397.743 553.531 400.544 564.918C406.014 587.387 412.036 609.726 418.588 631.906C421.362 640.419 424.194 649.933 429.666 657.121C419.089 660.907 405.506 664.11 394.476 667.283C388.006 669.146 371.053 674.377 365.784 674.932C362.314 675.324 358.788 674.757 355.623 673.282C343.815 667.73 345.25 651.13 346.009 640.252C346.632 596.885 356.729 555.015 391.198 525.856ZM633.823 525.519C640.064 530.861 646.126 536.233 651.215 542.818C669.557 566.556 676.236 595.802 678.663 625.081C679.052 629.793 679.781 640.342 679.464 644.868C680.423 654.412 680.474 667.564 670.769 672.724C667.394 674.513 663.562 675.275 659.76 674.91C654.353 674.401 641.107 670.157 635.439 668.55C622.425 664.861 609.183 661.124 596.261 657.145C599.483 652.731 602.452 644.863 604.666 639.613C616.101 602.043 625.831 563.968 633.823 525.519ZM512.812 304.432C535.852 313.211 565.128 338.696 580.09 358.096C596.343 378.79 606.2 403.774 608.456 429.979C608.877 435.261 609.154 442.432 608.468 447.695C608.627 461.611 604.129 485.66 601.492 499.337C596.656 524.41 590.491 550.567 583.833 575.242C578.854 593.698 573.447 615.343 567.627 633.499H457.882C445.561 589.782 433.08 545.979 424.447 501.349C422.528 491.432 417.771 466.476 417.564 456.577C417.066 454.381 416.772 448.508 416.681 446.196C416.02 426.383 419.697 406.663 427.458 388.417C439.928 359.164 464.414 333.551 490.875 316.523C497.588 312.202 505.429 307.414 512.812 304.432ZM511.556 387.707C495.758 388.544 483.619 401.994 484.434 417.771C485.25 433.549 498.707 445.685 514.51 444.894C530.344 444.1 542.531 430.627 541.713 414.818C540.895 399.01 527.387 386.871 511.556 387.707Z" fill="url(#paint0_linear_24_588)"/>
<defs>
<linearGradient id="paint0_linear_24_588" x1="512.76" y1="675.321" x2="512.76" y2="304.265" gradientUnits="userSpaceOnUse">
<stop stop-color="#95DA99"/>
<stop offset="0.4" stop-color="#3ED7E8"/>
<stop offset="1" stop-color="#126EFA"/>
</linearGradient>
</defs>
</svg>
