<svg width="3375" height="1000" viewBox="0 0 3375 1000" fill="none" xmlns="http://www.w3.org/2000/svg">
<g clip-path="url(#clip0_24_548)">
<mask id="mask0_24_548" style="mask-type:luminance" maskUnits="userSpaceOnUse" x="0" y="0" width="3375" height="1000">
<path d="M3375 0H0V1000H3375V0Z" fill="white"/>
</mask>
<g mask="url(#mask0_24_548)">
<path d="M2441.11 290.648V807.446C2439.25 832.196 2451.29 855.908 2472.28 868.854C2493.27 881.8 2519.68 881.8 2540.67 868.854C2561.66 855.908 2573.7 832.196 2571.84 807.446V163.663C2571.31 124.654 2546.25 90.3055 2509.48 78.2117C2472.71 66.1175 2432.4 78.9584 2409.17 110.156L2166.39 449.288L2164.33 446.271L1922.3 110.156C1899.31 78.1359 1858.49 64.7055 1821.21 76.898C1783.93 89.0905 1758.68 124.128 1758.7 163.663V807.446C1761.28 841.933 1789.77 868.588 1824.06 868.588C1858.35 868.588 1886.84 841.933 1889.42 807.446V290.648L2112.42 601.329C2124.79 618.463 2144.54 628.596 2165.55 628.596C2186.56 628.596 2206.31 618.463 2218.68 601.329L2441.11 290.648ZM3006.8 873.575C2969.2 873.471 2938.74 842.746 2938.64 804.808V663.504C2938.62 580.538 2962.99 499.433 3008.67 430.446L3224.56 103.75C3246.38 75.3863 3286.15 68.7259 3315.89 88.458C3345.62 108.19 3355.3 147.673 3338.11 179.112L3121.66 505.996C3090.77 552.596 3074.37 607.442 3074.6 663.504V804.808C3074.5 842.6 3044.26 873.267 3006.8 873.575ZM395.353 873.575C357.706 873.575 327.186 842.788 327.186 804.808V340.199C327.084 268.341 269.366 210.115 198.136 210.011H83.466C45.8181 210.011 15.2988 179.222 15.2988 141.243C15.2988 103.263 45.8181 72.4746 83.466 72.4746H198.136C344.618 72.6821 463.316 192.425 463.52 340.199V804.808C463.416 842.746 432.958 873.471 395.353 873.575ZM1198.04 892.229H1195.24C1080.05 892.85 969.362 847.154 887.649 765.242C732.354 602.075 732.354 344.354 887.649 181.185C965.037 100.483 1071.43 54.6984 1182.73 54.1992H1185.72C1390.72 54.2534 1565.1 204.99 1596.59 409.344C1601.61 442.433 1592.06 476.083 1570.44 501.475C1548.57 527.204 1516.64 542.004 1483.04 541.983H1072.17C1034.52 541.983 1004 511.192 1004 473.213C1004 435.233 1034.52 404.445 1072.17 404.445H1456.7C1431.43 305.843 1355.52 228.584 1258.01 202.216C1160.5 175.848 1056.47 204.45 985.699 277.083C883.158 387.45 883.158 559.167 985.699 669.533C1041.72 724.608 1117.02 755.146 1195.24 754.504H1197.48C1275.46 755.954 1350.87 726.375 1407.4 672.171C1424.45 654.013 1449.93 646.629 1473.93 652.883C1497.94 659.142 1516.68 678.05 1522.88 702.267C1529.09 726.483 1521.77 752.188 1503.77 769.388C1421.85 849.321 1312 893.454 1198.04 892.229Z" fill="#34373A"/>
<path d="M2883.97 440.817C2861.42 440.533 2840.46 429.046 2827.94 410.108L2675.18 179.123C2659.47 158.7 2656.44 131.114 2667.34 107.718C2678.24 84.3218 2701.22 69.0676 2726.83 68.2326C2752.44 67.3976 2776.35 81.123 2788.73 103.761L2940.75 334.746C2954.58 355.741 2955.92 382.688 2944.23 404.969C2932.54 427.25 2909.71 441.296 2884.72 441.571L2883.97 440.817ZM707.298 209.833H545.378C507.732 209.833 477.211 179.045 477.211 141.065C477.211 103.085 507.732 72.2967 545.378 72.2967H707.298C744.948 72.2967 775.465 103.085 775.465 141.065C775.465 179.045 744.948 209.833 707.298 209.833Z" fill="#34373A"/>
</g>
</g>
<defs>
<clipPath id="clip0_24_548">
<rect width="3375" height="1000" fill="white"/>
</clipPath>
</defs>
</svg>
