<svg width="1745" height="1000" viewBox="0 0 1745 1000" fill="none" xmlns="http://www.w3.org/2000/svg">
<g clip-path="url(#clip0_24_579)">
<path d="M1745 816.9L1744.78 826.248L1744.01 834.733L1728.16 993.247L1256.92 993.235L1256.68 988.573C1278.5 985.003 1295.97 979.524 1297.35 956.306C1296.71 946.013 1295.36 935.895 1291.88 925.766L1257.32 825.197L1088.13 825.167L1055 920.534C1051.42 930.851 1050.21 941.239 1049.87 951.767C1051.9 978.021 1072.07 984.803 1096.83 988.567L1096.4 993.247H968.293C967.418 993.247 966.202 989.636 966.995 989.254L970.559 987.545C991.315 984.322 1008.05 972.589 1018.7 954.756L1033.88 922.683L1171.58 535.69L1231.9 535.578L1375.27 936.054L1385.48 959.119C1392.44 974.844 1407.67 985.825 1425.74 987.134C1432.07 987.592 1439.65 984.703 1445.48 982.36C1463.55 975.097 1467.77 954.087 1467.77 934.005L1467.78 591.791C1467.78 584.216 1466.63 577.639 1465.15 570.904C1460.35 549.119 1441.29 543.188 1420.8 540.399C1420.08 540.112 1419.57 537.375 1419.58 535.637L1588.54 535.614C1588.92 536.5 1589.36 539.154 1589.39 540.194C1580.49 541.632 1572.64 542.989 1564.52 546.154C1543.64 554.298 1540.59 574.686 1540.59 596.53V980.464L1589.96 980.423C1608.38 980.405 1625.87 977.604 1643.26 972.413C1711.14 951.603 1726.32 881.039 1740.26 818.056L1744.99 816.888L1745 816.9ZM1251.92 809.378L1173 581.926L1093.33 809.454L1251.92 809.372V809.378Z" fill="black"/>
<path d="M1214.15 0.381592L1233.81 1.77913C1271.73 4.48024 1308.51 12.6188 1344.41 26.1127L1330.06 167.587L1324.76 167.821C1322.58 133.682 1316.74 100.663 1298.59 71.785C1282.86 46.741 1258.71 29.7298 1229.71 23.1532C1206.32 17.8449 1182.89 17.6511 1159.33 22.6599C1093.85 36.5765 1057.46 92.4485 1044.55 155.584C1025.91 246.706 1039.59 373.893 1113.24 437.786C1152.84 472.143 1208.38 479.483 1255.84 457.123C1264.01 453.271 1270.5 447.921 1276.9 440.986L1276.84 322.86C1276.83 311.656 1275.31 300.693 1270.76 290.828C1259.12 265.625 1220.51 262.66 1193.43 258.872C1193.46 257.833 1193.89 255.332 1194.3 254.263H1394.82L1395.01 258.878C1375.04 261.556 1355.93 266.418 1349.96 285.989C1347.65 293.552 1346.39 301.615 1346.39 309.965L1346.36 437.264C1284.34 481.35 1200.22 494.034 1126.7 477.293C1052.54 460.411 996.54 411.157 970.571 339.83C948.87 280.223 949.269 205.103 971.082 145.561C989.753 94.6036 1025.9 53.6112 1074.34 29.1426C1106.51 12.8889 1141.13 4.48024 1177.07 1.72628L1194.35 0.40508L1214.16 0.381592H1214.15Z" fill="black"/>
<path d="M229.146 999.994H225.476L61.2511 592.901C51.8215 569.56 36.8141 546.888 12.0247 542.126L0.0117188 539.906V536.283L186.936 535.625L186.625 540.076C186.554 541.069 135.889 539.924 136.911 575.232C137.181 584.61 138.825 593.893 142.483 603.153L257.047 892.895L365.957 607.851C369.961 597.375 371.529 587.005 371.235 576.348C370.548 551.198 347.796 541.891 323.776 540.3L323.377 535.637H452.361L452.038 540.082C451.95 541.321 423.526 539.953 404.233 568.485C395.948 580.74 389.161 593.541 383.536 607.816L229.152 1000L229.146 999.994Z" fill="black"/>
<path d="M785.99 303.464L616.75 303.4L583.559 398.902C580.048 409.013 578.932 419.184 578.539 429.513C580.265 456.324 600.827 462.601 624.865 466.694C625.828 466.917 625.775 470.634 624.912 471.28L495.998 471.268L495.651 466.776C495.593 466.036 498.211 465.901 498.857 465.813C518.82 462.496 535.102 452.073 545.882 435.214C552.652 424.298 557.543 413.365 562.451 401.028L700.202 13.8696H760.619L905.785 419.348C910.652 430.834 915.226 441.356 923.335 450.37C935.947 464.386 957.078 465.807 957.09 466.776L957.16 471.274H785.843L785.649 466.653C807.649 463.053 824.782 457.328 825.945 434.204C825.604 423.183 823.232 413.001 820.021 402.184L785.99 303.47V303.464ZM780.482 287.358L701.605 60.0293L621.947 287.616L780.482 287.358Z" fill="black"/>
<path d="M889.726 953.47C896.537 982.977 928.813 986.201 957.019 988.508L956.831 993.241H744.466L743.363 988.532C771.957 986.271 804.637 982.871 811.231 952.813C813.186 943.899 814.055 935.531 814.055 925.766L814.067 550.769L783.189 550.846C696.796 551.051 681.248 614.057 671.466 688.561C671.302 689.665 666.904 689.084 666.91 687.863L666.986 520.481C672.817 522.824 675.06 525.743 679.193 527.827C689.392 532.971 700.818 535.543 713.036 535.543L974.434 535.655L1003.73 533.917C1014.84 533.259 1022.55 527.375 1033.69 519.918L1033.82 688.796L1029.13 688.849C1022.73 635.942 1011.08 570.957 954.207 555.696C942.464 552.542 930.598 550.898 918.356 550.863L886.65 550.775L886.667 929.295C886.667 938.045 887.9 945.59 889.721 953.464L889.726 953.47Z" fill="black"/>
<path d="M478.354 18.4144L478.19 13.8167L607.051 13.8049V18.6082C589.666 20.2582 574.294 27.1813 563.449 40.9922C553.327 53.8754 545.494 68.1561 539.282 83.9106L385.098 474.95C384.563 476.312 383.9 477.381 383.372 477.845C382.843 478.309 380.841 477.258 380.048 476.641L217.808 74.903C204.738 44.5859 191.398 21.051 156.498 18.62L156.516 13.8108H341.62L341.696 18.3851C316.865 19.8296 290.679 27.8449 291.841 54.0868C292.246 63.1942 293.791 72.1314 297.325 81.0686L411.966 370.91L520.705 86.4591C529.037 62.7362 530.428 36.8408 507.624 25.4843C498.646 21.0157 489.557 19.4068 478.348 18.4144H478.354Z" fill="black"/>
<path d="M1590.46 471.274H1421.62L1420.98 466.659C1441.61 463.934 1460.11 459.518 1465.44 438.814C1467.49 430.875 1469.02 423.012 1469.02 414.069L1469.04 69.5066C1469.04 61.5618 1467.84 54.7621 1466.06 47.6335C1460.87 26.8114 1441.71 21.004 1420.97 18.3381L1421.14 13.8108L1590.13 13.7991L1590.86 18.3146C1571.3 21.0451 1552.02 25.7721 1545.79 45.0968C1543.44 52.4074 1541.85 59.8707 1541.85 68.3205V411.715C1541.85 420.364 1543.25 427.862 1545.16 435.613C1550.5 457.287 1569.22 464.01 1590.56 466.706L1590.45 471.28L1590.46 471.274Z" fill="black"/>
<path d="M626.773 993.236L457.839 993.253L457.094 988.644C475.783 985.943 494.524 982.431 500.684 963.946C503.725 954.833 505.351 945.561 505.351 935.173L505.363 590.658C505.363 582.331 503.989 575.044 501.834 567.669C496.069 547.927 477.121 543.042 457.387 540.247L457.563 535.637H627.137L626.321 540.347C605.777 543.253 586.994 548.303 581.34 569.378C579.496 576.248 578.187 583.059 578.187 590.746L578.21 934.522C578.21 944.257 580.001 953.247 582.931 961.897C589.349 980.816 607.621 985.884 626.944 988.62L626.767 993.241L626.773 993.236Z" fill="black"/>
</g>
<defs>
<clipPath id="clip0_24_579">
<rect width="1745" height="1000" fill="white"/>
</clipPath>
</defs>
</svg>
