<svg width="6474" height="1000" viewBox="0 0 6474 1000" fill="none" xmlns="http://www.w3.org/2000/svg">
<mask id="mask0_24_727" style="mask-type:luminance" maskUnits="userSpaceOnUse" x="0" y="0" width="6469" height="1000">
<path d="M6468.05 0H0V1000H6468.05V0Z" fill="white"/>
</mask>
<g mask="url(#mask0_24_727)">
<path d="M2211.29 131.598V135.555C2266.68 147.424 2293.39 149.402 2259.76 235.452L2068.84 726.039L1893.77 250.289C1860.14 162.26 1898.72 141.489 1967.97 135.555V131.598H1688.03C1702.87 144.456 1721.67 173.139 1731.55 198.857L1811.67 420.411L1688.03 730.984L1512.96 250.289C1479.33 162.26 1517.91 141.489 1587.14 135.555V131.598H1307.22C1322.06 144.456 1340.85 173.139 1350.74 198.857L1600 840.774L1597.04 861.545L1709.79 800.221L1842.33 468.876L1980.82 840.774L1977.86 861.545L2090.62 800.221L2301.29 261.168C2334.92 175.118 2351.75 147.424 2393.3 135.555V131.598H2211.29Z" fill="#222222"/>
<path d="M2447.2 823.958H2617.33C2587.66 804.176 2578.76 785.384 2578.76 731.973V412.5L2583.69 339.308L2392.8 354.142V358.1C2413.57 360.076 2439.29 367 2453.14 375.902V755.713L2447.2 823.958Z" fill="#222222"/>
<path d="M2877.88 830.881C3000.54 830.881 3079.68 764.616 3079.68 674.608C3079.68 591.524 3012.41 541.081 2899.67 521.297C2832.4 509.431 2778 496.574 2778 434.26C2778 407.555 2788.87 367.989 2854.16 367.989C2926.35 367.989 3002.51 410.521 2996.59 489.647H2998.57L3065.83 396.674C3029.23 363.045 2967.91 338.318 2889.75 338.318C2774.03 338.318 2690.95 391.729 2690.95 480.747C2690.95 536.137 2721.61 620.208 2872.95 639.989C2957.01 651.858 3001.54 669.66 3001.54 729.997C3001.54 776.484 2974.83 799.231 2915.48 799.231C2833.37 799.231 2742.37 757.689 2745.34 671.639H2743.37L2681.05 772.526C2720.61 805.166 2801.74 830.881 2877.88 830.881Z" fill="#222222"/>
<path d="M3629.28 727.029C3598.62 767.581 3530.38 782.418 3482.91 782.418C3364.19 782.418 3284.08 699.337 3282.11 558.884H3543.22C3669.84 558.884 3652.05 338.318 3438.4 338.318C3291 338.318 3153.52 432.282 3153.52 591.524C3153.52 732.963 3261.34 830.881 3419.61 830.881C3524.43 830.881 3604.57 786.374 3634.23 730.987L3629.28 727.029ZM3405.74 368.982C3520.49 368.982 3548.2 524.266 3480.93 525.255L3282.11 527.234C3286.05 416.455 3338.48 368.982 3405.74 368.982Z" fill="#222222"/>
<path d="M3974.75 338.318C3924.32 338.318 3882.77 349.2 3851.13 365.023V94.0145L3856.06 49.5059L3636.49 152.371V158.305C3699.78 139.512 3725.5 134.567 3725.5 174.131V707.247C3725.5 771.539 3713.63 787.363 3678.02 796.266V797.255C3764.08 822.971 3850.13 830.881 3903.56 830.881C4123.15 830.881 4228.97 703.289 4228.97 566.797C4228.97 433.271 4130.07 338.318 3974.75 338.318ZM3960.93 796.266C3916.4 796.266 3880.79 791.321 3851.13 765.602V397.663C3871.9 384.805 3896.64 376.892 3925.3 376.892C4040.06 376.892 4101.38 493.605 4101.38 629.11C4101.38 744.831 4058.85 796.266 3960.93 796.266Z" fill="#222222"/>
<path d="M4571.09 338.318C4411.85 338.318 4307.97 439.205 4307.97 584.6C4307.97 732.963 4411.85 830.881 4571.09 830.881C4730.33 830.881 4834.21 729.997 4834.21 584.6C4834.21 436.237 4730.33 338.318 4571.09 338.318ZM4609.67 799.231C4490.98 799.231 4428.66 645.924 4428.66 514.376C4428.66 418.434 4461.32 369.968 4532.54 369.968C4652.2 369.968 4713.54 523.276 4713.54 655.816C4713.54 749.776 4680.89 799.231 4609.67 799.231Z" fill="#222222"/>
<path d="M5419.13 742.855V374.916C5355.81 350.187 5287.57 338.318 5224.26 338.318C5014.59 338.318 4913.69 460.966 4913.69 605.371C4913.69 742.855 5007.67 830.881 5152.07 830.881C5198.54 830.881 5238.12 820.992 5269.76 804.176C5269.76 805.166 5268.78 805.166 5268.78 805.166L5457.71 835.829V832.86C5428.03 813.079 5419.13 796.266 5419.13 742.855ZM5039.3 548.005C5039.3 433.271 5086.8 371.947 5179.75 371.947C5227.23 371.947 5262.84 381.839 5293.52 415.466V715.16C5293.52 729.997 5292.52 740.876 5291.52 750.768C5271.76 772.526 5247.02 784.397 5214.39 784.397C5114.49 784.397 5039.3 691.424 5039.3 548.005Z" fill="#222222"/>
<path d="M5852.26 339.308C5782.05 339.308 5728.62 380.847 5705.86 444.15H5693.02V412.5L5697.96 339.308L5507.06 354.142V358.1C5527.82 360.076 5553.53 367 5567.38 375.902V755.713L5562.46 823.958H5731.57C5701.91 804.176 5693.02 785.384 5693.02 731.973V550.971C5700.91 482.723 5735.54 413.487 5781.05 413.487C5817.63 413.487 5826.55 456.018 5803.78 515.363H5807.76L5906.66 351.176C5887.87 342.273 5872.05 339.308 5852.26 339.308Z" fill="#222222"/>
<path d="M6426.58 742.855V94.0145L6431.52 49.5059L6211.93 152.371V158.305C6275.25 139.512 6300.97 134.567 6300.97 174.131V343.266C6277.23 340.297 6254.46 338.318 6231.73 338.318C6022.03 338.318 5921.13 460.966 5921.13 605.371C5921.13 742.855 6015.11 830.881 6159.51 830.881C6206.01 830.881 6245.57 820.992 6277.23 804.179C6277.23 805.166 6276.23 805.166 6276.23 805.166L6465.16 835.829V832.86C6435.47 813.079 6426.58 796.266 6426.58 742.855ZM6046.74 548.005C6046.74 433.271 6094.24 371.947 6187.22 371.947C6234.7 371.947 6270.31 391.729 6300.97 425.358V715.16C6300.97 729.997 6299.97 740.876 6298.99 750.768C6279.2 772.529 6254.46 784.397 6221.83 784.397C6121.93 784.397 6046.74 691.423 6046.74 548.005Z" fill="#222222"/>
<path d="M2508.15 274.184C2548.23 274.184 2580.73 241.687 2580.73 201.602C2580.73 161.517 2548.23 129.021 2508.15 129.021C2468.06 129.021 2435.56 161.517 2435.56 201.602C2435.56 241.687 2468.06 274.184 2508.15 274.184Z" fill="#222222"/>
<path d="M156.799 241.143L16.2038 382.484C7.25601 391.479 2.78211 395.976 1.10585 401.163C-0.368618 405.724 -0.368618 410.637 1.10585 415.2C2.78211 420.387 7.25601 424.884 16.2038 433.879L156.799 575.221C165.747 584.216 170.221 588.713 175.38 590.397C179.917 591.879 184.806 591.879 189.343 590.397C194.503 588.713 198.977 584.216 207.925 575.221L348.52 433.879C357.467 424.884 361.941 420.387 363.618 415.2C365.092 410.637 365.092 405.724 363.618 401.163C361.941 395.976 357.467 391.479 348.52 382.484L207.925 241.143C198.977 232.147 194.503 227.651 189.343 225.965C184.806 224.483 179.917 224.483 175.38 225.965C170.221 227.651 165.747 232.147 156.799 241.143Z" fill="#CE3E4F"/>
<path d="M380.495 16.2799L239.898 157.62C230.951 166.614 226.477 171.113 224.801 176.299C223.327 180.861 223.327 185.776 224.801 190.337C226.477 195.523 230.951 200.021 239.898 209.016L380.495 350.358C389.44 359.353 393.917 363.847 399.075 365.534C403.612 367.016 408.499 367.016 413.039 365.534C418.197 363.847 422.671 359.353 431.619 350.358L572.215 209.016C581.163 200.021 585.637 195.523 587.313 190.337C588.787 185.776 588.787 180.861 587.313 176.299C585.637 171.113 581.163 166.615 572.215 157.62L431.619 16.2799C422.671 7.28469 418.197 2.78708 413.039 1.10195C408.499 -0.380336 403.612 -0.380336 399.075 1.10195C393.917 2.78706 389.44 7.28513 380.495 16.2799Z" fill="#CE3E4F"/>
<path d="M376.381 639.918L235.786 781.257C226.839 790.252 222.365 794.752 220.689 799.936C219.215 804.497 219.215 809.413 220.689 813.976C222.365 819.16 226.839 823.66 235.786 832.655L376.381 973.994C385.329 982.989 389.803 987.486 394.961 989.171C399.501 990.655 404.388 990.655 408.928 989.171C414.086 987.486 418.56 982.989 427.508 973.994L568.101 832.655C577.049 823.66 581.523 819.16 583.199 813.976C584.673 809.413 584.673 804.497 583.199 799.936C581.523 794.752 577.049 790.252 568.101 781.257L427.508 639.918C418.56 630.921 414.086 626.426 408.928 624.739C404.388 623.258 399.501 623.258 394.961 624.739C389.803 626.426 385.329 630.921 376.381 639.918Z" fill="#CE3E4F"/>
<path d="M604.19 241.143L463.593 382.484C454.648 391.479 450.172 395.976 448.498 401.163C447.022 405.724 447.022 410.637 448.498 415.2C450.172 420.387 454.646 424.884 463.593 433.879L604.19 575.221C613.137 584.216 617.611 588.713 622.77 590.397C627.309 591.879 632.196 591.879 636.733 590.397C641.894 588.713 646.368 584.216 655.316 575.221L795.91 433.879C804.857 424.884 809.331 420.387 811.008 415.2C812.481 410.637 812.481 405.724 811.008 401.163C809.331 395.976 804.857 391.479 795.91 382.484L655.316 241.143C646.368 232.147 641.894 227.651 636.733 225.965C632.196 224.483 627.309 224.483 622.77 225.965C617.611 227.651 613.137 232.147 604.19 241.143Z" fill="#CE3E4F"/>
</g>
</svg>
